STARTFONT 2.3
FONT -FontForge-Source Sans Pro-Bold-R-Normal-SansPro--9-90-72-72-P-47-ISO10646-1
SIZE 9 72 72  4
FONTBOUNDINGBOX 24 14 -4 -3
COMMENT "Generated by fontforge, http://fontforge.sourceforge.net"
COMMENT "Copyright 2010, 2012, 2014 Adobe Systems Incorporated (http://www.adobe.com/), with Reserved Font Name `Source'."
STARTPROPERTIES 41
FOUNDRY "FontForge"
FAMILY_NAME "Source Sans Pro"
WEIGHT_NAME "Bold"
SLANT "R"
SETWIDTH_NAME "Normal"
ADD_STYLE_NAME "SansPro"
PIXEL_SIZE 9
POINT_SIZE 90
RESOLUTION_X 72
RESOLUTION_Y 72
SPACING "P"
AVERAGE_WIDTH 47
CHARSET_REGISTRY "ISO10646"
CHARSET_ENCODING "1"
FONTNAME_REGISTRY ""
CHARSET_COLLECTIONS "ISO8859-2 ISO8859-5 ISO8859-7 ISO8859-9 ISO8859-4 ISO10646-1"
BITS_PER_PIXEL 4
FONT_NAME "SourceSansPro-Bold"
FACE_NAME "Source Sans Pro Bold"
COPYRIGHT "Copyright 2010, 2012, 2014 Adobe Systems Incorporated (http://www.adobe.com/), with Reserved Font Name `Source'."
FONT_VERSION "2.021;PS 2.000;hotconv 1.0.86;makeotf.lib2.5.63406"
FONT_ASCENT 7
FONT_DESCENT 2
UNDERLINE_POSITION -1
UNDERLINE_THICKNESS 1
X_HEIGHT 3
CAP_HEIGHT 5
RAW_ASCENT 750
RAW_DESCENT 250
NORM_SPACE 2
RELATIVE_WEIGHT 70
RELATIVE_SETWIDTH 50
SUPERSCRIPT_X 0
SUPERSCRIPT_Y 3
SUPERSCRIPT_SIZE 5
SUBSCRIPT_X 0
SUBSCRIPT_Y 0
SUBSCRIPT_SIZE 5
FIGURE_WIDTH 5
AVG_LOWERCASE_WIDTH 48
AVG_UPPERCASE_WIDTH 57
ENDPROPERTIES
CHARS 1896
STARTCHAR space
ENCODING 32
SWIDTH 200 0
DWIDTH 2 0
BBX 1 1 0 0
BITMAP
00
ENDCHAR
STARTCHAR exclam
ENCODING 33
SWIDTH 340 0
DWIDTH 3 0
BBX 3 7 0 0
BITMAP
2E30
1F20
0F10
0E00
0000
2E20
2E20
ENDCHAR
STARTCHAR quotedbl
ENCODING 34
SWIDTH 536 0
DWIDTH 5 0
BBX 5 3 0 3
BITMAP
4F3F20
3E1F10
1C0D00
ENDCHAR
STARTCHAR numbersign
ENCODING 35
SWIDTH 528 0
DWIDTH 5 0
BBX 5 6 0 0
BITMAP
042600
092C00
8FFF70
AFFF40
1A6600
397400
ENDCHAR
STARTCHAR dollar
ENCODING 36
SWIDTH 528 0
DWIDTH 5 0
BBX 5 8 0 -1
BITMAP
01C000
1CFB00
6E1300
3EA200
02BE10
233F20
5DF900
01C000
ENDCHAR
STARTCHAR percent
ENCODING 37
SWIDTH 857 0
DWIDTH 8 0
BBX 8 6 0 0
BITMAP
4E903800
A4D1A100
A4D58CD1
4E9B6986
00566986
00B01CD1
ENDCHAR
STARTCHAR ampersand
ENCODING 38
SWIDTH 667 0
DWIDTH 6 0
BBX 6 6 0 0
BITMAP
07E800
0F4E00
0E7A34
2DE3C6
BA6FF4
5DE769
ENDCHAR
STARTCHAR quotesingle
ENCODING 39
SWIDTH 300 0
DWIDTH 3 0
BBX 2 3 0 3
BITMAP
4F
3E
1C
ENDCHAR
STARTCHAR parenleft
ENCODING 40
SWIDTH 344 0
DWIDTH 3 0
BBX 3 8 0 -2
BITMAP
0670
0D30
3D00
5C00
5C00
3D00
0D30
0670
ENDCHAR
STARTCHAR parenright
ENCODING 41
SWIDTH 344 0
DWIDTH 3 0
BBX 3 8 0 -2
BITMAP
5700
1E10
0C40
0A60
0A60
0C40
1E10
5700
ENDCHAR
STARTCHAR asterisk
ENCODING 42
SWIDTH 457 0
DWIDTH 4 0
BBX 4 4 0 2
BITMAP
1571
6EF7
1DC2
0110
ENDCHAR
STARTCHAR plus
ENCODING 43
SWIDTH 528 0
DWIDTH 5 0
BBX 5 5 0 0
BITMAP
018000
02D000
AFFF70
02D000
018000
ENDCHAR
STARTCHAR comma
ENCODING 44
SWIDTH 300 0
DWIDTH 3 0
BBX 3 3 0 -2
BITMAP
4E20
1B20
5500
ENDCHAR
STARTCHAR hyphen
ENCODING 45
SWIDTH 332 0
DWIDTH 3 0
BBX 3 1 0 2
BITMAP
9F90
ENDCHAR
STARTCHAR period
ENCODING 46
SWIDTH 300 0
DWIDTH 3 0
BBX 3 2 0 0
BITMAP
4D10
4D10
ENDCHAR
STARTCHAR slash
ENCODING 47
SWIDTH 339 0
DWIDTH 3 0
BBX 3 8 0 -2
BITMAP
03A0
0670
0A30
0D00
1C00
5800
8500
C100
ENDCHAR
STARTCHAR zero
ENCODING 48
SWIDTH 528 0
DWIDTH 5 0
BBX 5 6 0 0
BITMAP
1BE800
6C2F30
990D50
990D50
6C2F20
1BE800
ENDCHAR
STARTCHAR one
ENCODING 49
SWIDTH 528 0
DWIDTH 5 0
BBX 5 6 0 0
BITMAP
06F300
3FF300
02F300
02F300
02F300
6FFF40
ENDCHAR
STARTCHAR two
ENCODING 50
SWIDTH 528 0
DWIDTH 5 0
BBX 5 6 0 0
BITMAP
4DE600
336F00
006E00
03E700
3EB000
AFFF50
ENDCHAR
STARTCHAR three
ENCODING 51
SWIDTH 528 0
DWIDTH 5 0
BBX 5 6 0 0
BITMAP
4DE900
136F10
08F800
004F30
324F30
6DE800
ENDCHAR
STARTCHAR four
ENCODING 52
SWIDTH 528 0
DWIDTH 5 0
BBX 5 6 0 0
BITMAP
01ED00
08DD00
1E8D00
9A5D00
CFFF80
005D00
ENDCHAR
STARTCHAR five
ENCODING 53
SWIDTH 528 0
DWIDTH 5 0
BBX 5 6 0 0
BITMAP
3FFF10
4E0000
5FEA00
024F40
323F30
6DE800
ENDCHAR
STARTCHAR six
ENCODING 54
SWIDTH 528 0
DWIDTH 5 0
BBX 5 6 0 0
BITMAP
08EC20
5D1300
8DEC10
9C1D50
6D2D50
0AEA00
ENDCHAR
STARTCHAR seven
ENCODING 55
SWIDTH 528 0
DWIDTH 5 0
BBX 5 6 0 0
BITMAP
9FFF60
005E20
00D700
03F100
06D000
08C000
ENDCHAR
STARTCHAR eight
ENCODING 56
SWIDTH 528 0
DWIDTH 5 0
BBX 5 6 0 0
BITMAP
1CE900
5D1F10
2ECB00
4C9E20
9A1E50
2CEA10
ENDCHAR
STARTCHAR nine
ENCODING 57
SWIDTH 528 0
DWIDTH 5 0
BBX 5 6 0 0
BITMAP
2CE700
9A3F20
9A2E50
3DDE40
123E10
4DE500
ENDCHAR
STARTCHAR colon
ENCODING 58
SWIDTH 300 0
DWIDTH 3 0
BBX 3 5 0 0
BITMAP
4D10
4D10
0000
4D10
4D10
ENDCHAR
STARTCHAR semicolon
ENCODING 59
SWIDTH 300 0
DWIDTH 3 0
BBX 3 7 0 -2
BITMAP
4D10
4D10
0000
0000
4E20
1B20
5500
ENDCHAR
STARTCHAR less
ENCODING 60
SWIDTH 528 0
DWIDTH 5 0
BBX 5 4 0 1
BITMAP
004A60
6DA510
6DA610
004A60
ENDCHAR
STARTCHAR equal
ENCODING 61
SWIDTH 528 0
DWIDTH 5 0
BBX 5 3 0 1
BITMAP
AFFF70
000000
AFFF70
ENDCHAR
STARTCHAR greater
ENCODING 62
SWIDTH 528 0
DWIDTH 5 0
BBX 5 4 0 1
BITMAP
983000
27CC40
27CC40
983000
ENDCHAR
STARTCHAR question
ENCODING 63
SWIDTH 463 0
DWIDTH 4 0
BBX 4 6 0 0
BITMAP
4DE7
12A9
07B0
0000
0980
0980
ENDCHAR
STARTCHAR at
ENCODING 64
SWIDTH 903 0
DWIDTH 8 0
BBX 8 8 0 -2
BITMAP
007DEC40
08C314D2
2D2BD958
7779883A
86A6B677
695E9EC1
1D611200
02BEE500
ENDCHAR
STARTCHAR A
ENCODING 65
SWIDTH 573 0
DWIDTH 5 0
BBX 6 6 0 0
BITMAP
06F800
0ACD00
0E6F20
4F1E70
9FFFB0
D706F1
ENDCHAR
STARTCHAR B
ENCODING 66
SWIDTH 605 0
DWIDTH 5 0
BBX 6 6 0 0
BITMAP
5FFE60
5F0AC0
5FFF70
5F05E1
5F05F1
5FFE70
ENDCHAR
STARTCHAR C
ENCODING 67
SWIDTH 582 0
DWIDTH 5 0
BBX 5 6 0 0
BITMAP
05DE80
3F5130
8D0000
8C0000
4F4140
06DE90
ENDCHAR
STARTCHAR D
ENCODING 68
SWIDTH 635 0
DWIDTH 6 0
BBX 6 6 0 0
BITMAP
5FFC30
5F18E1
5F02F3
5F02F3
5F19E1
5FFC30
ENDCHAR
STARTCHAR E
ENCODING 69
SWIDTH 548 0
DWIDTH 5 0
BBX 5 6 0 0
BITMAP
5FFF50
5F0000
5FFF00
5F0000
5F0000
5FFF70
ENDCHAR
STARTCHAR F
ENCODING 70
SWIDTH 524 0
DWIDTH 5 0
BBX 5 6 0 0
BITMAP
5FFF60
5F0000
5F0000
5FFF10
5F0000
5F0000
ENDCHAR
STARTCHAR G
ENCODING 71
SWIDTH 638 0
DWIDTH 6 0
BBX 6 6 0 0
BITMAP
05DEA0
3F5130
8D0000
8C0EF3
4F51E3
06DEB1
ENDCHAR
STARTCHAR H
ENCODING 72
SWIDTH 674 0
DWIDTH 6 0
BBX 6 6 0 0
BITMAP
5F00E6
5F00E6
5FFFF6
5F00E6
5F00E6
5F00E6
ENDCHAR
STARTCHAR I
ENCODING 73
SWIDTH 301 0
DWIDTH 3 0
BBX 2 6 0 0
BITMAP
5F
5F
5F
5F
5F
5F
ENDCHAR
STARTCHAR J
ENCODING 74
SWIDTH 509 0
DWIDTH 5 0
BBX 4 6 0 0
BITMAP
006E
006E
006E
006E
338C
6EE4
ENDCHAR
STARTCHAR K
ENCODING 75
SWIDTH 614 0
DWIDTH 6 0
BBX 6 6 0 0
BITMAP
5F08D1
5F4E30
5FEA00
5FCF20
5F1BB0
5F03F4
ENDCHAR
STARTCHAR L
ENCODING 76
SWIDTH 518 0
DWIDTH 5 0
BBX 5 6 0 0
BITMAP
5F0000
5F0000
5F0000
5F0000
5F0000
5FFF50
ENDCHAR
STARTCHAR M
ENCODING 77
SWIDTH 762 0
DWIDTH 7 0
BBX 7 6 0 0
BITMAP
5F507F30
5FA0CF30
5CE3DE30
5DAC8F30
5D5F3F30
5D061F30
ENDCHAR
STARTCHAR N
ENCODING 78
SWIDTH 665 0
DWIDTH 6 0
BBX 6 6 0 0
BITMAP
5F50F4
5FC0F4
5DC5E4
5E5CD4
5E0CF4
5E05F4
ENDCHAR
STARTCHAR O
ENCODING 79
SWIDTH 684 0
DWIDTH 6 0
BBX 6 6 0 0
BITMAP
07DE80
4F42E6
8C00AA
8C00AA
4F42E6
07DE80
ENDCHAR
STARTCHAR P
ENCODING 80
SWIDTH 596 0
DWIDTH 5 0
BBX 5 6 0 0
BITMAP
5FFD60
5F07E0
5F07E0
5FFD50
5F0000
5F0000
ENDCHAR
STARTCHAR Q
ENCODING 81
SWIDTH 684 0
DWIDTH 6 0
BBX 6 8 0 -2
BITMAP
07DE80
4F42E6
8C00AA
8C00AA
4F42E6
08EF90
004F40
0006ED
ENDCHAR
STARTCHAR R
ENCODING 82
SWIDTH 613 0
DWIDTH 6 0
BBX 6 6 0 0
BITMAP
5FFE60
5F07E0
5F07E0
5FFF60
5F1E70
5F06E2
ENDCHAR
STARTCHAR S
ENCODING 83
SWIDTH 556 0
DWIDTH 5 0
BBX 5 6 0 0
BITMAP
1AEC30
6F1410
3FC500
03AF70
251C90
4CEC20
ENDCHAR
STARTCHAR T
ENCODING 84
SWIDTH 556 0
DWIDTH 5 0
BBX 5 6 0 0
BITMAP
CFFFC0
02F300
02F300
02F300
02F300
02F300
ENDCHAR
STARTCHAR U
ENCODING 85
SWIDTH 665 0
DWIDTH 6 0
BBX 6 6 0 0
BITMAP
5F00E5
5F00E5
5F00E5
5F00F4
2F44F2
07EE70
ENDCHAR
STARTCHAR V
ENCODING 86
SWIDTH 556 0
DWIDTH 5 0
BBX 5 6 0 0
BITMAP
E706E0
9B0A90
5E0D50
1F5F10
0BDB00
07F700
ENDCHAR
STARTCHAR W
ENCODING 87
SWIDTH 813 0
DWIDTH 7 0
BBX 8 6 0 0
BITMAP
C80E62F2
9A3F94E0
6D6CC6C0
4F96F990
1FE2CD60
0DE09F40
ENDCHAR
STARTCHAR X
ENCODING 88
SWIDTH 567 0
DWIDTH 5 0
BBX 5 6 0 0
BITMAP
8D0BA0
1E7F20
07FA00
09FA00
2F6F30
AB0BB0
ENDCHAR
STARTCHAR Y
ENCODING 89
SWIDTH 525 0
DWIDTH 5 0
BBX 5 6 0 0
BITMAP
D80C90
6E3F20
0ECA00
07F300
04F000
04F000
ENDCHAR
STARTCHAR Z
ENCODING 90
SWIDTH 541 0
DWIDTH 5 0
BBX 5 6 0 0
BITMAP
7FFF80
006F30
02E900
0AD100
5F4000
AFFF90
ENDCHAR
STARTCHAR bracketleft
ENCODING 91
SWIDTH 344 0
DWIDTH 3 0
BBX 3 9 0 -2
BITMAP
3FA0
3C00
3C00
3C00
3C00
3C00
3C00
3C00
3FA0
ENDCHAR
STARTCHAR backslash
ENCODING 92
SWIDTH 339 0
DWIDTH 3 0
BBX 3 8 0 -2
BITMAP
A300
6700
3A00
0D00
0B20
0850
0490
01C0
ENDCHAR
STARTCHAR bracketright
ENCODING 93
SWIDTH 344 0
DWIDTH 3 0
BBX 3 9 0 -2
BITMAP
9F50
0A50
0A50
0A50
0A50
0A50
0A50
0A50
9F50
ENDCHAR
STARTCHAR asciicircum
ENCODING 94
SWIDTH 528 0
DWIDTH 5 0
BBX 5 4 0 2
BITMAP
05F100
0AC600
1E4C00
6A0E20
ENDCHAR
STARTCHAR underscore
ENCODING 95
SWIDTH 500 0
DWIDTH 5 0
BBX 5 1 0 -1
BITMAP
DFFF60
ENDCHAR
STARTCHAR grave
ENCODING 96
SWIDTH 555 0
DWIDTH 5 0
BBX 3 2 0 5
BITMAP
1B30
05B0
ENDCHAR
STARTCHAR a
ENCODING 97
SWIDTH 527 0
DWIDTH 5 0
BBX 5 4 0 0
BITMAP
3CEA00
2DEF30
8C5F30
4ECE30
ENDCHAR
STARTCHAR b
ENCODING 98
SWIDTH 573 0
DWIDTH 5 0
BBX 5 6 0 0
BITMAP
6E0000
6E0000
6EDE40
6E2BB0
6E2BA0
6DDD30
ENDCHAR
STARTCHAR c
ENCODING 99
SWIDTH 467 0
DWIDTH 4 0
BBX 4 4 0 0
BITMAP
1BEA
8D11
9D12
2BEA
ENDCHAR
STARTCHAR d
ENCODING 100
SWIDTH 573 0
DWIDTH 5 0
BBX 5 6 0 0
BITMAP
000B90
000B90
2CEE90
8D1C90
9C1D90
2CEC90
ENDCHAR
STARTCHAR e
ENCODING 101
SWIDTH 518 0
DWIDTH 5 0
BBX 5 4 0 0
BITMAP
1BEB10
8FFF40
9C1200
2BEC00
ENDCHAR
STARTCHAR f
ENCODING 102
SWIDTH 341 0
DWIDTH 3 0
BBX 4 6 0 0
BITMAP
0AE3
2F40
BFE0
3F20
3F20
3F20
ENDCHAR
STARTCHAR g
ENCODING 103
SWIDTH 534 0
DWIDTH 5 0
BBX 5 6 0 -2
BITMAP
3DFF90
8C5F00
3FE900
5FFE50
981B90
5EEB20
ENDCHAR
STARTCHAR h
ENCODING 104
SWIDTH 571 0
DWIDTH 5 0
BBX 5 6 0 0
BITMAP
6E0000
6E0000
6ECE40
6E2C90
6E0B90
6E0B90
ENDCHAR
STARTCHAR i
ENCODING 105
SWIDTH 276 0
DWIDTH 2 0
BBX 2 7 0 0
BITMAP
14
5C
00
6E
6E
6E
6E
ENDCHAR
STARTCHAR j
ENCODING 106
SWIDTH 278 0
DWIDTH 3 0
BBX 3 9 -1 -2
BITMAP
0140
05D0
0000
06E0
06E0
06E0
06E0
07D0
5E70
ENDCHAR
STARTCHAR k
ENCODING 107
SWIDTH 548 0
DWIDTH 5 0
BBX 5 6 0 0
BITMAP
6D0000
6D0000
6D3E50
6EE600
6FAC00
6D0D80
ENDCHAR
STARTCHAR l
ENCODING 108
SWIDTH 286 0
DWIDTH 3 0
BBX 3 6 0 0
BITMAP
6E00
6E00
6E00
6E00
6E00
3E60
ENDCHAR
STARTCHAR m
ENCODING 109
SWIDTH 857 0
DWIDTH 8 0
BBX 8 4 0 0
BITMAP
6DDE9EB0
6E2DA4F2
6E0C82F3
6E0C82F3
ENDCHAR
STARTCHAR n
ENCODING 110
SWIDTH 572 0
DWIDTH 5 0
BBX 5 4 0 0
BITMAP
6DCE40
6E2C90
6E0B90
6E0B90
ENDCHAR
STARTCHAR o
ENCODING 111
SWIDTH 555 0
DWIDTH 5 0
BBX 5 4 0 0
BITMAP
1BEB10
8D1D80
9D1D80
1BEB10
ENDCHAR
STARTCHAR p
ENCODING 112
SWIDTH 573 0
DWIDTH 5 0
BBX 5 6 0 -2
BITMAP
6DDE40
6E2BB0
6E1BA0
6EDD30
6E0000
6E0000
ENDCHAR
STARTCHAR q
ENCODING 113
SWIDTH 573 0
DWIDTH 5 0
BBX 5 6 0 -2
BITMAP
2CEC90
8D1D90
9C1C90
2CEE90
000B90
000750
ENDCHAR
STARTCHAR r
ENCODING 114
SWIDTH 398 0
DWIDTH 4 0
BBX 4 4 0 0
BITMAP
6CC7
6F30
6E00
6E00
ENDCHAR
STARTCHAR s
ENCODING 115
SWIDTH 443 0
DWIDTH 4 0
BBX 4 4 0 0
BITMAP
4DE6
7D72
36C9
7EE5
ENDCHAR
STARTCHAR t
ENCODING 116
SWIDTH 383 0
DWIDTH 3 0
BBX 4 6 0 0
BITMAP
1F10
2F10
CFF2
4F10
3F30
1CF3
ENDCHAR
STARTCHAR u
ENCODING 117
SWIDTH 568 0
DWIDTH 5 0
BBX 5 4 0 0
BITMAP
7D0C80
7D0C80
6E1D80
2EDC80
ENDCHAR
STARTCHAR v
ENCODING 118
SWIDTH 523 0
DWIDTH 5 0
BBX 5 4 0 0
BITMAP
B90C60
5D2F10
0E9A00
09F500
ENDCHAR
STARTCHAR w
ENCODING 119
SWIDTH 776 0
DWIDTH 7 0
BBX 7 4 0 0
BITMAP
AA3F39A0
5D7D7C60
1FB6CF20
0CE1ED00
ENDCHAR
STARTCHAR x
ENCODING 120
SWIDTH 514 0
DWIDTH 5 0
BBX 5 4 0 0
BITMAP
7D3E20
0CE700
0DE700
8B4E30
ENDCHAR
STARTCHAR y
ENCODING 121
SWIDTH 521 0
DWIDTH 5 0
BBX 5 6 0 -2
BITMAP
A90D60
4E2F10
0DAA00
07F500
05E000
6E5000
ENDCHAR
STARTCHAR z
ENCODING 122
SWIDTH 460 0
DWIDTH 4 0
BBX 4 4 0 0
BITMAP
7FFD
04F6
3E70
AFFE
ENDCHAR
STARTCHAR braceleft
ENCODING 123
SWIDTH 344 0
DWIDTH 3 0
BBX 3 9 0 -2
BITMAP
0CA0
0F10
0F10
1F10
BB00
1F10
0F10
0F10
0CA0
ENDCHAR
STARTCHAR bar
ENCODING 124
SWIDTH 268 0
DWIDTH 2 0
BBX 2 9 0 -2
BITMAP
3A
3A
3A
3A
3A
3A
3A
3A
3A
ENDCHAR
STARTCHAR braceright
ENCODING 125
SWIDTH 344 0
DWIDTH 3 0
BBX 3 9 0 -2
BITMAP
9D00
1E20
0E10
0E20
09C0
0E20
0E10
1E20
9D00
ENDCHAR
STARTCHAR asciitilde
ENCODING 126
SWIDTH 528 0
DWIDTH 5 0
BBX 5 2 0 2
BITMAP
4E7640
73AD10
ENDCHAR
STARTCHAR uni00A0
ENCODING 160
SWIDTH 208 0
DWIDTH 2 0
BBX 1 1 0 0
BITMAP
00
ENDCHAR
STARTCHAR exclamdown
ENCODING 161
SWIDTH 340 0
DWIDTH 3 0
BBX 3 7 0 -3
BITMAP
2E20
2E20
0000
0E00
0F10
1F20
2E30
ENDCHAR
STARTCHAR cent
ENCODING 162
SWIDTH 528 0
DWIDTH 5 0
BBX 5 6 0 0
BITMAP
007300
09FE10
5E9300
5E9400
0AFE20
007300
ENDCHAR
STARTCHAR sterling
ENCODING 163
SWIDTH 528 0
DWIDTH 5 0
BBX 5 6 0 0
BITMAP
06ED30
0E6200
4FA500
4CB500
2D6000
8FFF70
ENDCHAR
STARTCHAR currency
ENCODING 164
SWIDTH 528 0
DWIDTH 5 0
BBX 5 6 0 0
BITMAP
200210
8DEE50
7C2E30
7C1E40
8DEE50
200210
ENDCHAR
STARTCHAR yen
ENCODING 165
SWIDTH 528 0
DWIDTH 5 0
BBX 5 6 0 0
BITMAP
AA0D60
3E4E10
0CD800
AFFF60
5AF830
16F210
ENDCHAR
STARTCHAR brokenbar
ENCODING 166
SWIDTH 268 0
DWIDTH 2 0
BBX 2 9 0 -2
BITMAP
3A
3A
3A
39
01
3A
3A
3A
3A
ENDCHAR
STARTCHAR section
ENCODING 167
SWIDTH 528 0
DWIDTH 5 0
BBX 5 7 0 -1
BITMAP
0BEA00
2F4300
5BCA00
9C2C50
2CFE20
238D00
3DE700
ENDCHAR
STARTCHAR dieresis
ENCODING 168
SWIDTH 555 0
DWIDTH 5 0
BBX 3 1 1 5
BITMAP
D2D0
ENDCHAR
STARTCHAR copyright
ENCODING 169
SWIDTH 750 0
DWIDTH 7 0
BBX 7 6 0 0
BITMAP
05CEB300
3B314C10
83CF7640
83CF7640
3B314C10
05CEB200
ENDCHAR
STARTCHAR ordfeminine
ENCODING 170
SWIDTH 359 0
DWIDTH 3 0
BBX 3 3 0 3
BITMAP
AF90
C7D0
7DB0
ENDCHAR
STARTCHAR guillemotleft
ENCODING 171
SWIDTH 480 0
DWIDTH 4 0
BBX 4 4 0 0
BITMAP
0A38
77B3
77B3
0A38
ENDCHAR
STARTCHAR logicalnot
ENCODING 172
SWIDTH 528 0
DWIDTH 5 0
BBX 5 3 0 0
BITMAP
AFFF70
000870
000540
ENDCHAR
STARTCHAR uni00AD
ENCODING 173
SWIDTH 332 0
DWIDTH 3 0
BBX 3 1 0 2
BITMAP
9F90
ENDCHAR
STARTCHAR registered
ENCODING 174
SWIDTH 462 0
DWIDTH 4 0
BBX 4 6 0 2
BITMAP
1BD2
7438
8CE8
8888
7438
1CD2
ENDCHAR
STARTCHAR macron
ENCODING 175
SWIDTH 555 0
DWIDTH 5 0
BBX 3 1 1 5
BITMAP
CFC0
ENDCHAR
STARTCHAR degree
ENCODING 176
SWIDTH 365 0
DWIDTH 3 0
BBX 3 3 0 3
BITMAP
4E80
94C0
4E80
ENDCHAR
STARTCHAR plusminus
ENCODING 177
SWIDTH 528 0
DWIDTH 5 0
BBX 5 6 0 0
BITMAP
017000
02D000
AFFF70
02D000
003000
AFFF70
ENDCHAR
STARTCHAR two.sups
ENCODING 178
SWIDTH 376 0
DWIDTH 3 0
BBX 3 4 0 3
BITMAP
6E80
23C0
2C50
9FF0
ENDCHAR
STARTCHAR three.sups
ENCODING 179
SWIDTH 376 0
DWIDTH 3 0
BBX 3 4 0 3
BITMAP
4E80
14D0
3CA0
5EB0
ENDCHAR
STARTCHAR acute
ENCODING 180
SWIDTH 555 0
DWIDTH 5 0
BBX 3 2 2 5
BITMAP
3B10
B500
ENDCHAR
STARTCHAR uni00B5
ENCODING 181
SWIDTH 594 0
DWIDTH 5 0
BBX 6 5 0 -1
BITMAP
6E0C80
6E0C70
6E2D80
6FEAF3
6D0000
ENDCHAR
STARTCHAR paragraph
ENCODING 182
SWIDTH 636 0
DWIDTH 6 0
BBX 5 7 0 -1
BITMAP
2BF8D0
8FF8D0
8FF8D0
2CF8D0
0017D0
0007D0
000480
ENDCHAR
STARTCHAR periodcentered
ENCODING 183
SWIDTH 300 0
DWIDTH 3 0
BBX 3 2 0 2
BITMAP
4D10
4D10
ENDCHAR
STARTCHAR cedilla
ENCODING 184
SWIDTH 555 0
DWIDTH 5 0
BBX 3 4 1 -3
BITMAP
0600
2E30
0B50
7B10
ENDCHAR
STARTCHAR one.sups
ENCODING 185
SWIDTH 376 0
DWIDTH 3 0
BBX 3 4 0 3
BITMAP
3D70
0870
0870
0870
ENDCHAR
STARTCHAR ordmasculine
ENCODING 186
SWIDTH 373 0
DWIDTH 3 0
BBX 4 3 0 3
BITMAP
5EA0
B5E1
6EA0
ENDCHAR
STARTCHAR guillemotright
ENCODING 187
SWIDTH 480 0
DWIDTH 4 0
BBX 4 4 0 0
BITMAP
5682
0C4B
0C4B
5682
ENDCHAR
STARTCHAR onequarter
ENCODING 188
SWIDTH 809 0
DWIDTH 7 0
BBX 8 6 0 0
BITMAP
6E307500
0C31B000
0C374CA0
0C4A78A0
0083CFF3
02A003A0
ENDCHAR
STARTCHAR onehalf
ENCODING 189
SWIDTH 846 0
DWIDTH 8 0
BBX 8 6 0 0
BITMAP
6E309300
0C32A000
0C395DB0
0C6912E1
00A21A80
03806FF3
ENDCHAR
STARTCHAR threequarters
ENCODING 190
SWIDTH 818 0
DWIDTH 7 0
BBX 8 6 0 0
BITMAP
5E803800
14C0A100
3DA47BC0
5EBB78C0
0056BFF4
00B002C0
ENDCHAR
STARTCHAR questiondown
ENCODING 191
SWIDTH 463 0
DWIDTH 4 0
BBX 4 6 0 -2
BITMAP
06C0
06C0
0000
0990
7C22
5EE6
ENDCHAR
STARTCHAR Agrave
ENCODING 192
SWIDTH 573 0
DWIDTH 5 0
BBX 6 8 0 0
BITMAP
0A5000
04C100
06F800
0ACD00
0E6F20
4F1E70
9FFFB0
D706F1
ENDCHAR
STARTCHAR Aacute
ENCODING 193
SWIDTH 573 0
DWIDTH 5 0
BBX 6 8 0 0
BITMAP
004B00
00B500
06F800
0ACD00
0E6F20
4F1E70
9FFFB0
D706F1
ENDCHAR
STARTCHAR Acircumflex
ENCODING 194
SWIDTH 573 0
DWIDTH 5 0
BBX 6 7 0 0
BITMAP
089900
06F800
0ACD00
0E6F20
4F1E70
9FFFB0
D706F1
ENDCHAR
STARTCHAR Atilde
ENCODING 195
SWIDTH 573 0
DWIDTH 5 0
BBX 6 9 0 0
BITMAP
000310
0CBC30
2A5700
06F800
0ACD00
0E6F20
4F1E70
9FFFB0
D706F1
ENDCHAR
STARTCHAR Adieresis
ENCODING 196
SWIDTH 573 0
DWIDTH 5 0
BBX 6 7 0 0
BITMAP
0C1C10
06F800
0ACD00
0E6F20
4F1E70
9FFFB0
D706F1
ENDCHAR
STARTCHAR Aring
ENCODING 197
SWIDTH 573 0
DWIDTH 5 0
BBX 6 8 0 0
BITMAP
04E600
04E600
06F800
0ACD00
0E6F20
4F1E70
9FFFB0
D706F1
ENDCHAR
STARTCHAR AE
ENCODING 198
SWIDTH 845 0
DWIDTH 8 0
BBX 8 6 0 0
BITMAP
009FFFF1
01ECC000
08E8FFB0
1E88C000
6FFFC000
D908FFF2
ENDCHAR
STARTCHAR Ccedilla
ENCODING 199
SWIDTH 582 0
DWIDTH 5 0
BBX 5 9 0 -3
BITMAP
05DE80
3F5130
8D0000
8C0000
4F4140
06FF90
007C00
002E00
00B700
ENDCHAR
STARTCHAR Egrave
ENCODING 200
SWIDTH 548 0
DWIDTH 5 0
BBX 5 8 0 0
BITMAP
095000
03C100
5FFF50
5F0000
5FFF00
5F0000
5F0000
5FFF70
ENDCHAR
STARTCHAR Eacute
ENCODING 201
SWIDTH 548 0
DWIDTH 5 0
BBX 5 8 0 0
BITMAP
003B00
00B500
5FFF50
5F0000
5FFF00
5F0000
5F0000
5FFF70
ENDCHAR
STARTCHAR Ecircumflex
ENCODING 202
SWIDTH 548 0
DWIDTH 5 0
BBX 5 7 0 0
BITMAP
089A00
5FFF50
5F0000
5FFF00
5F0000
5F0000
5FFF70
ENDCHAR
STARTCHAR Edieresis
ENCODING 203
SWIDTH 548 0
DWIDTH 5 0
BBX 5 7 0 0
BITMAP
0C1C10
5FFF50
5F0000
5FFF00
5F0000
5F0000
5FFF70
ENDCHAR
STARTCHAR Igrave
ENCODING 204
SWIDTH 301 0
DWIDTH 3 0
BBX 3 8 -1 0
BITMAP
1B30
06B0
05F0
05F0
05F0
05F0
05F0
05F0
ENDCHAR
STARTCHAR Iacute
ENCODING 205
SWIDTH 301 0
DWIDTH 3 0
BBX 3 8 0 0
BITMAP
0680
2C30
5F00
5F00
5F00
5F00
5F00
5F00
ENDCHAR
STARTCHAR Icircumflex
ENCODING 206
SWIDTH 301 0
DWIDTH 3 0
BBX 3 7 0 0
BITMAP
A970
5F00
5F00
5F00
5F00
5F00
5F00
ENDCHAR
STARTCHAR Idieresis
ENCODING 207
SWIDTH 301 0
DWIDTH 3 0
BBX 4 7 -1 0
BITMAP
2B2B
05F0
05F0
05F0
05F0
05F0
05F0
ENDCHAR
STARTCHAR Eth
ENCODING 208
SWIDTH 660 0
DWIDTH 6 0
BBX 6 6 0 0
BITMAP
1FFD60
1F45F3
BFF5E7
1F40E7
1F46F3
1FFD60
ENDCHAR
STARTCHAR Ntilde
ENCODING 209
SWIDTH 665 0
DWIDTH 6 0
BBX 6 9 0 0
BITMAP
000140
06E9A0
0A4820
5F50F4
5FC0F4
5DC5E4
5E5CD4
5E0CF4
5E05F4
ENDCHAR
STARTCHAR Ograve
ENCODING 210
SWIDTH 684 0
DWIDTH 6 0
BBX 6 8 0 0
BITMAP
03B100
018700
07DE80
4F42E6
8C00AA
8C00AA
4F42E6
07DE80
ENDCHAR
STARTCHAR Oacute
ENCODING 211
SWIDTH 684 0
DWIDTH 6 0
BBX 6 8 0 0
BITMAP
000950
005A10
07DE80
4F42E6
8C00AA
8C00AA
4F42E6
07DE80
ENDCHAR
STARTCHAR Ocircumflex
ENCODING 212
SWIDTH 684 0
DWIDTH 6 0
BBX 6 7 0 0
BITMAP
02BA40
07DE80
4F42E6
8C00AA
8C00AA
4F42E6
07DE80
ENDCHAR
STARTCHAR Otilde
ENCODING 213
SWIDTH 684 0
DWIDTH 6 0
BBX 6 9 0 0
BITMAP
000040
05E9B0
095830
07DE80
4F42E6
8C00AA
8C00AA
4F42E6
07DE80
ENDCHAR
STARTCHAR Odieresis
ENCODING 214
SWIDTH 684 0
DWIDTH 6 0
BBX 6 7 0 0
BITMAP
068680
07DE80
4F42E6
8C00AA
8C00AA
4F42E6
07DE80
ENDCHAR
STARTCHAR multiply
ENCODING 215
SWIDTH 528 0
DWIDTH 5 0
BBX 5 4 0 1
BITMAP
491B10
1BD800
1BD800
491B10
ENDCHAR
STARTCHAR Oslash
ENCODING 216
SWIDTH 684 0
DWIDTH 6 0
BBX 6 8 0 -1
BITMAP
000001
07DEBB
4F36F6
8C2EDA
7ED6AA
2FA2E7
7CEE90
110000
ENDCHAR
STARTCHAR Ugrave
ENCODING 217
SWIDTH 665 0
DWIDTH 6 0
BBX 6 8 0 0
BITMAP
04A100
019600
5F00E5
5F00E5
5F00E5
5F00F4
2F44F2
07EE70
ENDCHAR
STARTCHAR Uacute
ENCODING 218
SWIDTH 665 0
DWIDTH 6 0
BBX 6 8 0 0
BITMAP
001A40
007910
5F00E5
5F00E5
5F00E5
5F00F4
2F44F2
07EE70
ENDCHAR
STARTCHAR Ucircumflex
ENCODING 219
SWIDTH 665 0
DWIDTH 6 0
BBX 6 7 0 0
BITMAP
03AA30
5F00E5
5F00E5
5F00E5
5F00F4
2F44F2
07EE70
ENDCHAR
STARTCHAR Udieresis
ENCODING 220
SWIDTH 665 0
DWIDTH 6 0
BBX 6 7 0 0
BITMAP
077770
5F00E5
5F00E5
5F00E5
5F00F4
2F44F2
07EE70
ENDCHAR
STARTCHAR Yacute
ENCODING 221
SWIDTH 525 0
DWIDTH 5 0
BBX 5 8 0 0
BITMAP
006900
02C300
D80C90
6E3F20
0ECA00
07F300
04F000
04F000
ENDCHAR
STARTCHAR Thorn
ENCODING 222
SWIDTH 617 0
DWIDTH 6 0
BBX 6 6 0 0
BITMAP
5F0000
5FFE60
5F05F1
5F06F0
5FFE60
5F0000
ENDCHAR
STARTCHAR germandbls
ENCODING 223
SWIDTH 632 0
DWIDTH 6 0
BBX 6 6 0 0
BITMAP
0AEC30
5F2C70
6D2E10
6D2E91
6D13E6
6D5ED2
ENDCHAR
STARTCHAR agrave
ENCODING 224
SWIDTH 527 0
DWIDTH 5 0
BBX 5 7 0 0
BITMAP
1B3000
05B000
000000
3CEA00
2DEF30
8C5F30
4ECE30
ENDCHAR
STARTCHAR aacute
ENCODING 225
SWIDTH 527 0
DWIDTH 5 0
BBX 5 7 0 0
BITMAP
003B00
00B400
000000
3CEA00
2DEF30
8C5F30
4ECE30
ENDCHAR
STARTCHAR acircumflex
ENCODING 226
SWIDTH 527 0
DWIDTH 5 0
BBX 5 7 0 0
BITMAP
08F700
1B3B00
000000
3CEA00
2DEF30
8C5F30
4ECE30
ENDCHAR
STARTCHAR atilde
ENCODING 227
SWIDTH 527 0
DWIDTH 5 0
BBX 5 8 0 0
BITMAP
000310
0DAD10
3A6700
000000
3CEA00
2DEF30
8C5F30
4ECE30
ENDCHAR
STARTCHAR adieresis
ENCODING 228
SWIDTH 527 0
DWIDTH 5 0
BBX 5 6 0 0
BITMAP
1D2C00
000000
3CEA00
2DEF30
8C5F30
4ECE30
ENDCHAR
STARTCHAR aring
ENCODING 229
SWIDTH 527 0
DWIDTH 5 0
BBX 5 7 0 0
BITMAP
07E600
07F600
000000
3CEA00
2DEF30
8C5F30
4ECE30
ENDCHAR
STARTCHAR ae
ENCODING 230
SWIDTH 786 0
DWIDTH 7 0
BBX 7 4 0 0
BITMAP
3CE9DD40
2DEFFFA0
8D4F6210
4ED8EE50
ENDCHAR
STARTCHAR ccedilla
ENCODING 231
SWIDTH 467 0
DWIDTH 4 0
BBX 4 7 0 -3
BITMAP
1BEA
8D11
9D12
2BFA
02E3
00B5
06B1
ENDCHAR
STARTCHAR egrave
ENCODING 232
SWIDTH 518 0
DWIDTH 5 0
BBX 5 7 0 0
BITMAP
1B3000
05A000
000000
1BEB10
8FFF40
9C1200
2BEC00
ENDCHAR
STARTCHAR eacute
ENCODING 233
SWIDTH 518 0
DWIDTH 5 0
BBX 5 7 0 0
BITMAP
004B00
00B400
000000
1BEB10
8FFF40
9C1200
2BEC00
ENDCHAR
STARTCHAR ecircumflex
ENCODING 234
SWIDTH 518 0
DWIDTH 5 0
BBX 5 7 0 0
BITMAP
09F700
1B3B00
000000
1BEB10
8FFF40
9C1200
2BEC00
ENDCHAR
STARTCHAR edieresis
ENCODING 235
SWIDTH 518 0
DWIDTH 5 0
BBX 5 6 0 0
BITMAP
1D2C00
000000
1BEB10
8FFF40
9C1200
2BEC00
ENDCHAR
STARTCHAR igrave
ENCODING 236
SWIDTH 276 0
DWIDTH 2 0
BBX 3 7 -1 0
BITMAP
3B10
0880
0000
06E0
06E0
06E0
06E0
ENDCHAR
STARTCHAR iacute
ENCODING 237
SWIDTH 276 0
DWIDTH 2 0
BBX 3 7 0 0
BITMAP
0690
2C20
0000
6E00
6E00
6E00
6E00
ENDCHAR
STARTCHAR icircumflex
ENCODING 238
SWIDTH 276 0
DWIDTH 2 0
BBX 4 7 -1 0
BITMAP
0BF4
3949
0000
06E0
06E0
06E0
06E0
ENDCHAR
STARTCHAR idieresis
ENCODING 239
SWIDTH 276 0
DWIDTH 2 0
BBX 4 6 -1 0
BITMAP
3A4A
0000
06E0
06E0
06E0
06E0
ENDCHAR
STARTCHAR eth
ENCODING 240
SWIDTH 560 0
DWIDTH 5 0
BBX 5 6 0 0
BITMAP
0A7940
09FA00
1B8D20
2BCF80
8C3C80
3CFB10
ENDCHAR
STARTCHAR ntilde
ENCODING 241
SWIDTH 572 0
DWIDTH 5 0
BBX 5 8 0 0
BITMAP
000220
08DA50
0C4910
000000
6DCE40
6E2C90
6E0B90
6E0B90
ENDCHAR
STARTCHAR ograve
ENCODING 242
SWIDTH 555 0
DWIDTH 5 0
BBX 5 7 0 0
BITMAP
1B3000
05B000
000000
1BEB10
8D1D80
9D1D80
1BEB10
ENDCHAR
STARTCHAR oacute
ENCODING 243
SWIDTH 555 0
DWIDTH 5 0
BBX 5 7 0 0
BITMAP
003B10
00B500
000000
1BEB10
8D1D80
9D1D80
1BEB10
ENDCHAR
STARTCHAR ocircumflex
ENCODING 244
SWIDTH 555 0
DWIDTH 5 0
BBX 5 7 0 0
BITMAP
08F800
0B3B00
000000
1BEB10
8D1D80
9D1D80
1BEB10
ENDCHAR
STARTCHAR otilde
ENCODING 245
SWIDTH 555 0
DWIDTH 5 0
BBX 5 8 0 0
BITMAP
000310
0CBD20
2A6700
000000
1BEB10
8D1D80
9D1D80
1BEB10
ENDCHAR
STARTCHAR odieresis
ENCODING 246
SWIDTH 555 0
DWIDTH 5 0
BBX 5 6 0 0
BITMAP
0D2D00
000000
1BEB10
8D1D80
9D1D80
1BEB10
ENDCHAR
STARTCHAR divide
ENCODING 247
SWIDTH 528 0
DWIDTH 5 0
BBX 5 6 0 0
BITMAP
003000
04E000
577730
588830
03E000
004000
ENDCHAR
STARTCHAR oslash
ENCODING 248
SWIDTH 555 0
DWIDTH 5 0
BBX 5 4 0 0
BITMAP
1BED50
9C8E80
8E8C80
5CFB10
ENDCHAR
STARTCHAR ugrave
ENCODING 249
SWIDTH 568 0
DWIDTH 5 0
BBX 5 7 0 0
BITMAP
0B4000
04B000
000000
7D0C80
7D0C80
6E1D80
2EDC80
ENDCHAR
STARTCHAR uacute
ENCODING 250
SWIDTH 568 0
DWIDTH 5 0
BBX 5 7 0 0
BITMAP
003B10
00A500
000000
7D0C80
7D0C80
6E1D80
2EDC80
ENDCHAR
STARTCHAR ucircumflex
ENCODING 251
SWIDTH 568 0
DWIDTH 5 0
BBX 5 7 0 0
BITMAP
07F900
0B3B10
000000
7D0C80
7D0C80
6E1D80
2EDC80
ENDCHAR
STARTCHAR udieresis
ENCODING 252
SWIDTH 568 0
DWIDTH 5 0
BBX 5 6 0 0
BITMAP
0C2D10
000000
7D0C80
7D0C80
6E1D80
2EDC80
ENDCHAR
STARTCHAR yacute
ENCODING 253
SWIDTH 521 0
DWIDTH 5 0
BBX 5 9 0 -2
BITMAP
004A00
00C400
000000
A90D60
4E2F10
0DAA00
07F500
05E000
6E5000
ENDCHAR
STARTCHAR thorn
ENCODING 254
SWIDTH 573 0
DWIDTH 5 0
BBX 5 8 0 -2
BITMAP
6E0000
6E0000
6EDD40
6E1BB0
6E1BA0
6EED30
6E0000
6E0000
ENDCHAR
STARTCHAR ydieresis
ENCODING 255
SWIDTH 521 0
DWIDTH 5 0
BBX 5 8 0 -2
BITMAP
2C2C00
000000
A90D60
4E2F10
0DAA00
07F500
05E000
6E5000
ENDCHAR
STARTCHAR Amacron
ENCODING 256
SWIDTH 573 0
DWIDTH 5 0
BBX 6 7 0 0
BITMAP
0CFE00
06F800
0ACD00
0E6F20
4F1E70
9FFFB0
D706F1
ENDCHAR
STARTCHAR amacron
ENCODING 257
SWIDTH 527 0
DWIDTH 5 0
BBX 5 6 0 0
BITMAP
0DFC00
000000
3CEA00
2DEF30
8C5F30
4ECE30
ENDCHAR
STARTCHAR Abreve
ENCODING 258
SWIDTH 573 0
DWIDTH 5 0
BBX 6 8 0 0
BITMAP
0B1B00
07E800
06F800
0ACD00
0E6F20
4F1E70
9FFFB0
D706F1
ENDCHAR
STARTCHAR abreve
ENCODING 259
SWIDTH 527 0
DWIDTH 5 0
BBX 5 8 0 0
BITMAP
010100
0D2D00
08E700
000000
3CEA00
2DEF30
8C5F30
4ECE30
ENDCHAR
STARTCHAR Aogonek
ENCODING 260
SWIDTH 573 0
DWIDTH 5 0
BBX 6 8 0 -2
BITMAP
06F800
0ACD00
0E6F20
4F1E70
9FFFB0
D706F1
000580
0006E3
ENDCHAR
STARTCHAR aogonek
ENCODING 261
SWIDTH 527 0
DWIDTH 5 0
BBX 5 6 0 -2
BITMAP
3CEA00
2DEF30
8C5F30
4ECE30
004900
005E30
ENDCHAR
STARTCHAR Cacute
ENCODING 262
SWIDTH 582 0
DWIDTH 5 0
BBX 5 8 0 0
BITMAP
000950
005A10
05DE80
3F5130
8D0000
8C0000
4F4140
06DE90
ENDCHAR
STARTCHAR cacute
ENCODING 263
SWIDTH 467 0
DWIDTH 4 0
BBX 5 7 0 0
BITMAP
002B10
00A600
000000
1BEA00
8D1100
9D1200
2BEA00
ENDCHAR
STARTCHAR Ccircumflex
ENCODING 264
SWIDTH 582 0
DWIDTH 5 0
BBX 5 7 0 0
BITMAP
02BA40
05DE80
3F5130
8D0000
8C0000
4F4140
06DE90
ENDCHAR
STARTCHAR ccircumflex
ENCODING 265
SWIDTH 467 0
DWIDTH 4 0
BBX 5 7 0 0
BITMAP
06F900
0B3B10
000000
1BEA00
8D1100
9D1200
2BEA00
ENDCHAR
STARTCHAR Cdotaccent
ENCODING 266
SWIDTH 582 0
DWIDTH 5 0
BBX 5 7 0 0
BITMAP
007A00
05DE80
3F5130
8D0000
8C0000
4F4140
06DE90
ENDCHAR
STARTCHAR cdotaccent
ENCODING 267
SWIDTH 467 0
DWIDTH 4 0
BBX 4 6 0 0
BITMAP
00D3
0000
1BEA
8D11
9D12
2BEA
ENDCHAR
STARTCHAR Ccaron
ENCODING 268
SWIDTH 582 0
DWIDTH 5 0
BBX 5 7 0 0
BITMAP
02BA40
05DE80
3F5130
8D0000
8C0000
4F4140
06DE90
ENDCHAR
STARTCHAR ccaron
ENCODING 269
SWIDTH 467 0
DWIDTH 4 0
BBX 5 7 0 0
BITMAP
0B3B10
06F900
000000
1BEA00
8D1100
9D1200
2BEA00
ENDCHAR
STARTCHAR Dcaron
ENCODING 270
SWIDTH 635 0
DWIDTH 6 0
BBX 6 7 0 0
BITMAP
05AB20
5FFC30
5F18E1
5F02F3
5F02F3
5F19E1
5FFC30
ENDCHAR
STARTCHAR dcaron
ENCODING 271
SWIDTH 614 0
DWIDTH 6 0
BBX 6 6 0 0
BITMAP
000BAA
000B90
2CEE90
8D1C90
9C1D90
2CEC90
ENDCHAR
STARTCHAR Dcroat
ENCODING 272
SWIDTH 660 0
DWIDTH 6 0
BBX 6 6 0 0
BITMAP
1FFD60
1F45F3
BFF5E7
1F40E7
1F46F3
1FFD60
ENDCHAR
STARTCHAR dcroat
ENCODING 273
SWIDTH 573 0
DWIDTH 5 0
BBX 6 6 0 0
BITMAP
000B90
01FFF3
000B90
3DEE90
9D2D90
4DED90
ENDCHAR
STARTCHAR Emacron
ENCODING 274
SWIDTH 548 0
DWIDTH 5 0
BBX 5 7 0 0
BITMAP
0CFE00
5FFF50
5F0000
5FFF00
5F0000
5F0000
5FFF70
ENDCHAR
STARTCHAR emacron
ENCODING 275
SWIDTH 518 0
DWIDTH 5 0
BBX 5 6 0 0
BITMAP
0DFC00
000000
1BEB10
8FFF40
9C1200
2BEC00
ENDCHAR
STARTCHAR Ebreve
ENCODING 276
SWIDTH 548 0
DWIDTH 5 0
BBX 5 8 0 0
BITMAP
0B2B00
06E800
5FFF50
5F0000
5FFF00
5F0000
5F0000
5FFF70
ENDCHAR
STARTCHAR ebreve
ENCODING 277
SWIDTH 518 0
DWIDTH 5 0
BBX 5 8 0 0
BITMAP
010100
0D2D00
08E600
000000
1BEB10
8FFF40
9C1200
2BEC00
ENDCHAR
STARTCHAR Edotaccent
ENCODING 278
SWIDTH 548 0
DWIDTH 5 0
BBX 5 7 0 0
BITMAP
01D300
5FFF50
5F0000
5FFF00
5F0000
5F0000
5FFF70
ENDCHAR
STARTCHAR edotaccent
ENCODING 279
SWIDTH 518 0
DWIDTH 5 0
BBX 5 6 0 0
BITMAP
02D100
000000
1BEB10
8FFF40
9C1200
2BEC00
ENDCHAR
STARTCHAR Eogonek
ENCODING 280
SWIDTH 548 0
DWIDTH 5 0
BBX 5 8 0 -2
BITMAP
5FFF50
5F0000
5FFF00
5F0000
5F0000
5FFF70
002B10
003E70
ENDCHAR
STARTCHAR eogonek
ENCODING 281
SWIDTH 518 0
DWIDTH 5 0
BBX 5 6 0 -2
BITMAP
1BEB10
8FFF40
9C1200
2BFD10
007500
007E10
ENDCHAR
STARTCHAR Ecaron
ENCODING 282
SWIDTH 548 0
DWIDTH 5 0
BBX 5 7 0 0
BITMAP
089A00
5FFF50
5F0000
5FFF00
5F0000
5F0000
5FFF70
ENDCHAR
STARTCHAR ecaron
ENCODING 283
SWIDTH 518 0
DWIDTH 5 0
BBX 5 7 0 0
BITMAP
1B3B00
09F700
000000
1BEB10
8FFF40
9C1200
2BEC00
ENDCHAR
STARTCHAR Gcircumflex
ENCODING 284
SWIDTH 638 0
DWIDTH 6 0
BBX 6 7 0 0
BITMAP
01A970
05DEA0
3F5130
8D0000
8C0EF3
4F51E3
06DEB1
ENDCHAR
STARTCHAR gcircumflex
ENCODING 285
SWIDTH 534 0
DWIDTH 5 0
BBX 5 9 0 -2
BITMAP
07F800
0B3B00
000000
3DFF90
8C5F00
3FE900
5FFE50
981B90
5EEB20
ENDCHAR
STARTCHAR Gbreve
ENCODING 286
SWIDTH 638 0
DWIDTH 6 0
BBX 6 8 0 0
BITMAP
01B3A0
00AE40
05DEA0
3F5130
8D0000
8C0EF3
4F51E3
06DEB1
ENDCHAR
STARTCHAR gbreve
ENCODING 287
SWIDTH 534 0
DWIDTH 5 0
BBX 5 10 0 -2
BITMAP
010100
0D2D00
07E700
000000
3DFF90
8C5F00
3FE900
5FFE50
981B90
5EEB20
ENDCHAR
STARTCHAR Gdotaccent
ENCODING 288
SWIDTH 638 0
DWIDTH 6 0
BBX 6 7 0 0
BITMAP
004C00
05DEA0
3F5130
8D0000
8C0EF3
4F51E3
06DEB1
ENDCHAR
STARTCHAR gdotaccent
ENCODING 289
SWIDTH 534 0
DWIDTH 5 0
BBX 5 8 0 -2
BITMAP
01D200
000000
3DFF90
8C5F00
3FE900
5FFE50
981B90
5EEB20
ENDCHAR
STARTCHAR uni0122
ENCODING 290
SWIDTH 638 0
DWIDTH 6 0
BBX 6 9 0 -3
BITMAP
05DEA0
3F5130
8D0000
8C0EF3
4F51E3
06DEB1
004B00
001E10
00A900
ENDCHAR
STARTCHAR uni0123
ENCODING 291
SWIDTH 534 0
DWIDTH 5 0
BBX 5 10 0 -2
BITMAP
01B700
05C000
02D100
000000
3DFF90
8C5F00
3FE900
5FFE50
981B90
5EEB20
ENDCHAR
STARTCHAR Hcircumflex
ENCODING 292
SWIDTH 674 0
DWIDTH 6 0
BBX 6 7 0 0
BITMAP
03BA30
5F00E6
5F00E6
5FFFF6
5F00E6
5F00E6
5F00E6
ENDCHAR
STARTCHAR hcircumflex
ENCODING 293
SWIDTH 571 0
DWIDTH 5 0
BBX 6 7 -1 0
BITMAP
1B9500
06E000
06E000
06ECE4
06E2C9
06E0B9
06E0B9
ENDCHAR
STARTCHAR Hbar
ENCODING 294
SWIDTH 712 0
DWIDTH 6 0
BBX 7 6 0 0
BITMAP
BFFFFF30
2F30C800
2FFFF800
2F30C800
2F30C800
2F30C800
ENDCHAR
STARTCHAR hbar
ENCODING 295
SWIDTH 571 0
DWIDTH 5 0
BBX 5 6 0 0
BITMAP
6E0000
FFF600
6E1100
6EDF60
6E0B90
6E0B90
ENDCHAR
STARTCHAR Itilde
ENCODING 296
SWIDTH 301 0
DWIDTH 3 0
BBX 4 9 -1 0
BITMAP
0004
2EAD
5875
05F0
05F0
05F0
05F0
05F0
05F0
ENDCHAR
STARTCHAR itilde
ENCODING 297
SWIDTH 276 0
DWIDTH 2 0
BBX 4 8 -1 0
BITMAP
0004
2E9C
6784
0000
06E0
06E0
06E0
06E0
ENDCHAR
STARTCHAR Imacron
ENCODING 298
SWIDTH 301 0
DWIDTH 3 0
BBX 3 7 0 0
BITMAP
FFB0
5F00
5F00
5F00
5F00
5F00
5F00
ENDCHAR
STARTCHAR imacron
ENCODING 299
SWIDTH 276 0
DWIDTH 2 0
BBX 4 6 -1 0
BITMAP
1FF8
0000
06E0
06E0
06E0
06E0
ENDCHAR
STARTCHAR uni012C
ENCODING 300
SWIDTH 301 0
DWIDTH 3 0
BBX 4 8 -1 0
BITMAP
1B2A
09E5
05F0
05F0
05F0
05F0
05F0
05F0
ENDCHAR
STARTCHAR uni012D
ENCODING 301
SWIDTH 276 0
DWIDTH 2 0
BBX 4 8 -1 0
BITMAP
0101
3A4A
0BE4
0000
06E0
06E0
06E0
06E0
ENDCHAR
STARTCHAR Iogonek
ENCODING 302
SWIDTH 301 0
DWIDTH 3 0
BBX 3 8 0 -2
BITMAP
5F00
5F00
5F00
5F00
5F00
5F00
6800
7E30
ENDCHAR
STARTCHAR iogonek
ENCODING 303
SWIDTH 276 0
DWIDTH 2 0
BBX 3 8 0 -2
BITMAP
5C00
0000
6E00
6E00
6E00
6E00
6700
7E10
ENDCHAR
STARTCHAR Idotaccent
ENCODING 304
SWIDTH 301 0
DWIDTH 3 0
BBX 2 7 0 0
BITMAP
4D
5F
5F
5F
5F
5F
5F
ENDCHAR
STARTCHAR dotlessi
ENCODING 305
SWIDTH 276 0
DWIDTH 2 0
BBX 2 4 0 0
BITMAP
6E
6E
6E
6E
ENDCHAR
STARTCHAR uni0132
ENCODING 306
SWIDTH 602 0
DWIDTH 5 0
BBX 5 8 0 -2
BITMAP
5F09B0
5F09B0
5F09B0
5F09B0
5F09B0
5F09B0
000AA0
008E40
ENDCHAR
STARTCHAR uni0133
ENCODING 307
SWIDTH 554 0
DWIDTH 5 0
BBX 5 8 0 -2
BITMAP
6D0D60
130310
6E0E60
6E0E60
6E0E60
6E0E60
001E60
00DC10
ENDCHAR
STARTCHAR Jcircumflex
ENCODING 308
SWIDTH 509 0
DWIDTH 5 0
BBX 5 7 0 0
BITMAP
01B960
006E00
006E00
006E00
006E00
338C00
6EE400
ENDCHAR
STARTCHAR jcircumflex
ENCODING 309
SWIDTH 278 0
DWIDTH 3 0
BBX 4 9 -1 -2
BITMAP
0BF4
3A49
0000
06E0
06E0
06E0
06E0
07D0
5E70
ENDCHAR
STARTCHAR uni0136
ENCODING 310
SWIDTH 614 0
DWIDTH 6 0
BBX 6 9 0 -3
BITMAP
5F08D1
5F4E30
5FEA00
5FCF20
5F1BB0
5F03F4
008800
005C00
00D500
ENDCHAR
STARTCHAR uni0137
ENCODING 311
SWIDTH 548 0
DWIDTH 5 0
BBX 5 9 0 -3
BITMAP
6D0000
6D0000
6D3E50
6EE600
6FAC00
6D0D80
00C300
009700
05C200
ENDCHAR
STARTCHAR kgreenlandic
ENCODING 312
SWIDTH 548 0
DWIDTH 5 0
BBX 5 4 0 0
BITMAP
6E2E50
6ED700
6FCC00
6E0D80
ENDCHAR
STARTCHAR Lacute
ENCODING 313
SWIDTH 518 0
DWIDTH 5 0
BBX 5 8 0 0
BITMAP
059000
1C3000
5F0000
5F0000
5F0000
5F0000
5F0000
5FFF50
ENDCHAR
STARTCHAR lacute
ENCODING 314
SWIDTH 286 0
DWIDTH 3 0
BBX 3 9 0 0
BITMAP
0770
3B20
0000
6E00
6E00
6E00
6E00
6E00
3E60
ENDCHAR
STARTCHAR uni013B
ENCODING 315
SWIDTH 518 0
DWIDTH 5 0
BBX 5 9 0 -3
BITMAP
5F0000
5F0000
5F0000
5F0000
5F0000
5FFF50
00C300
00A600
05C200
ENDCHAR
STARTCHAR uni013C
ENCODING 316
SWIDTH 286 0
DWIDTH 3 0
BBX 3 9 0 -3
BITMAP
6E00
6E00
6E00
6E00
6E00
3E60
0C40
0980
4C20
ENDCHAR
STARTCHAR Lcaron
ENCODING 317
SWIDTH 518 0
DWIDTH 5 0
BBX 5 6 0 0
BITMAP
5F0B00
5F0000
5F0000
5F0000
5F0000
5FFF50
ENDCHAR
STARTCHAR lcaron
ENCODING 318
SWIDTH 319 0
DWIDTH 3 0
BBX 4 6 0 0
BITMAP
6EB1
6E00
6E00
6E00
6E00
3E60
ENDCHAR
STARTCHAR Ldot
ENCODING 319
SWIDTH 518 0
DWIDTH 5 0
BBX 5 6 0 0
BITMAP
5F0000
5F0000
5F0D40
5F0D50
5F0000
5FFF50
ENDCHAR
STARTCHAR ldot
ENCODING 320
SWIDTH 453 0
DWIDTH 4 0
BBX 4 6 0 0
BITMAP
6E00
6E00
6E5D
6E5D
6E00
3E60
ENDCHAR
STARTCHAR Lslash
ENCODING 321
SWIDTH 524 0
DWIDTH 5 0
BBX 6 6 -1 0
BITMAP
04F100
04F130
04FD90
1DF300
05F100
04FFF6
ENDCHAR
STARTCHAR lslash
ENCODING 322
SWIDTH 303 0
DWIDTH 3 0
BBX 4 6 -1 0
BITMAP
05F0
05F8
1DF2
06F0
05F0
01D7
ENDCHAR
STARTCHAR Nacute
ENCODING 323
SWIDTH 665 0
DWIDTH 6 0
BBX 6 8 0 0
BITMAP
001A40
006910
5F50F4
5FC0F4
5DC5E4
5E5CD4
5E0CF4
5E05F4
ENDCHAR
STARTCHAR nacute
ENCODING 324
SWIDTH 572 0
DWIDTH 5 0
BBX 5 7 0 0
BITMAP
001B30
008800
000000
6DCE40
6E2C90
6E0B90
6E0B90
ENDCHAR
STARTCHAR uni0145
ENCODING 325
SWIDTH 665 0
DWIDTH 6 0
BBX 6 9 0 -3
BITMAP
5F50F4
5FC0F4
5DC5E4
5E5CD4
5E0CF4
5E05F4
006900
003E00
00C700
ENDCHAR
STARTCHAR uni0146
ENCODING 326
SWIDTH 572 0
DWIDTH 5 0
BBX 5 7 0 -3
BITMAP
6DCE40
6E2C90
6E0B90
6E0B90
00C300
00A700
05C200
ENDCHAR
STARTCHAR Ncaron
ENCODING 327
SWIDTH 665 0
DWIDTH 6 0
BBX 6 7 0 0
BITMAP
03AA30
5F50F4
5FC0F4
5DC5E4
5E5CD4
5E0CF4
5E05F4
ENDCHAR
STARTCHAR ncaron
ENCODING 328
SWIDTH 572 0
DWIDTH 5 0
BBX 5 7 0 0
BITMAP
094930
04FB00
000000
6DCE40
6E2C90
6E0B90
6E0B90
ENDCHAR
STARTCHAR napostrophe
ENCODING 329
SWIDTH 852 0
DWIDTH 8 0
BBX 8 6 0 0
BITMAP
3D100000
0B100000
250EBEB0
000E85F1
000E63F2
000E63F2
ENDCHAR
STARTCHAR uni014A
ENCODING 330
SWIDTH 666 0
DWIDTH 6 0
BBX 6 6 0 0
BITMAP
5FAEA0
5F52F5
5F00C8
5F00C8
5F01E6
5F1EB1
ENDCHAR
STARTCHAR uni014B
ENCODING 331
SWIDTH 572 0
DWIDTH 5 0
BBX 5 6 0 -2
BITMAP
6DCE40
6E2C90
6E0B90
6E0B90
000C90
00AD30
ENDCHAR
STARTCHAR Omacron
ENCODING 332
SWIDTH 684 0
DWIDTH 6 0
BBX 6 7 0 0
BITMAP
04FF70
07DE80
4F42E6
8C00AA
8C00AA
4F42E6
07DE80
ENDCHAR
STARTCHAR omacron
ENCODING 333
SWIDTH 555 0
DWIDTH 5 0
BBX 5 6 0 0
BITMAP
0CFC00
000000
1BEB10
8D1D80
9D1D80
1BEB10
ENDCHAR
STARTCHAR uni014E
ENCODING 334
SWIDTH 684 0
DWIDTH 6 0
BBX 6 8 0 0
BITMAP
048660
01CD20
07DE80
4F42E6
8C00AA
8C00AA
4F42E6
07DE80
ENDCHAR
STARTCHAR uni014F
ENCODING 335
SWIDTH 555 0
DWIDTH 5 0
BBX 5 8 0 0
BITMAP
010100
0D2D00
07E700
000000
1BEB10
8D1D80
9D1D80
1BEB10
ENDCHAR
STARTCHAR Ohungarumlaut
ENCODING 336
SWIDTH 684 0
DWIDTH 6 0
BBX 6 8 0 0
BITMAP
0075B1
00B480
07DE80
4F42E6
8C00AA
8C00AA
4F42E6
07DE80
ENDCHAR
STARTCHAR ohungarumlaut
ENCODING 337
SWIDTH 555 0
DWIDTH 5 0
BBX 5 7 0 0
BITMAP
048850
000A10
000000
1BEB10
8D1D80
9D1D80
1BEB10
ENDCHAR
STARTCHAR OE
ENCODING 338
SWIDTH 871 0
DWIDTH 8 0
BBX 8 6 0 0
BITMAP
06DFFFF4
4F54F110
8C04FFE0
8D04F100
4F54F110
06DFFFF5
ENDCHAR
STARTCHAR oe
ENCODING 339
SWIDTH 822 0
DWIDTH 7 0
BBX 7 4 0 0
BITMAP
2BE8AE80
8C1EFFF0
9C1EA120
2CE9AE90
ENDCHAR
STARTCHAR Racute
ENCODING 340
SWIDTH 613 0
DWIDTH 6 0
BBX 6 8 0 0
BITMAP
002B10
009700
5FFE60
5F07E0
5F07E0
5FFF60
5F1E70
5F06E2
ENDCHAR
STARTCHAR racute
ENCODING 341
SWIDTH 398 0
DWIDTH 4 0
BBX 4 7 0 0
BITMAP
0078
02C2
0000
6CC7
6F30
6E00
6E00
ENDCHAR
STARTCHAR uni0156
ENCODING 342
SWIDTH 613 0
DWIDTH 6 0
BBX 6 9 0 -3
BITMAP
5FFE60
5F07E0
5F07E0
5FFF60
5F1E70
5F06E2
009700
006B00
01E500
ENDCHAR
STARTCHAR uni0157
ENCODING 343
SWIDTH 398 0
DWIDTH 4 0
BBX 4 7 0 -3
BITMAP
6CC7
6F30
6E00
6E00
4B00
1E10
A900
ENDCHAR
STARTCHAR Rcaron
ENCODING 344
SWIDTH 613 0
DWIDTH 6 0
BBX 6 7 0 0
BITMAP
069B10
5FFE60
5F07E0
5F07E0
5FFF60
5F1E70
5F06E2
ENDCHAR
STARTCHAR rcaron
ENCODING 345
SWIDTH 398 0
DWIDTH 4 0
BBX 4 7 0 0
BITMAP
3949
0CF4
0000
6CC7
6F30
6E00
6E00
ENDCHAR
STARTCHAR Sacute
ENCODING 346
SWIDTH 556 0
DWIDTH 5 0
BBX 5 8 0 0
BITMAP
003B00
00B500
1AEC30
6F1410
3FC500
03AF70
251C90
4CEC20
ENDCHAR
STARTCHAR sacute
ENCODING 347
SWIDTH 443 0
DWIDTH 4 0
BBX 4 7 0 0
BITMAP
0087
03B2
0000
4DE6
7D72
36C9
7EE5
ENDCHAR
STARTCHAR Scircumflex
ENCODING 348
SWIDTH 556 0
DWIDTH 5 0
BBX 5 7 0 0
BITMAP
079A00
1AEC30
6F1410
3FC500
03AF70
251C90
4CEC20
ENDCHAR
STARTCHAR scircumflex
ENCODING 349
SWIDTH 443 0
DWIDTH 4 0
BBX 4 7 0 0
BITMAP
1DE2
5858
0000
4DE6
7D72
36C9
7EE5
ENDCHAR
STARTCHAR uni015E
ENCODING 350
SWIDTH 556 0
DWIDTH 5 0
BBX 5 9 0 -3
BITMAP
1AEC30
6F1410
3FC500
03AF70
251C90
4CFC20
02E300
00B500
07B100
ENDCHAR
STARTCHAR uni015F
ENCODING 351
SWIDTH 443 0
DWIDTH 4 0
BBX 4 7 0 -3
BITMAP
4DE6
7D72
36C9
7FF5
08B0
02E0
0C70
ENDCHAR
STARTCHAR Scaron
ENCODING 352
SWIDTH 556 0
DWIDTH 5 0
BBX 5 7 0 0
BITMAP
079A00
1AEC30
6F1410
3FC500
03AF70
251C90
4CEC20
ENDCHAR
STARTCHAR scaron
ENCODING 353
SWIDTH 443 0
DWIDTH 4 0
BBX 4 7 0 0
BITMAP
5858
1DE2
0000
4DE6
7D72
36C9
7EE5
ENDCHAR
STARTCHAR uni0162
ENCODING 354
SWIDTH 556 0
DWIDTH 5 0
BBX 5 9 0 -3
BITMAP
CFFFC0
02F300
02F300
02F300
02F300
02F300
02E300
00B500
07B100
ENDCHAR
STARTCHAR uni0163
ENCODING 355
SWIDTH 383 0
DWIDTH 3 0
BBX 4 9 0 -3
BITMAP
1F10
2F10
CFF2
4F10
3F30
1EF3
07C0
02E0
0B70
ENDCHAR
STARTCHAR Tcaron
ENCODING 356
SWIDTH 556 0
DWIDTH 5 0
BBX 5 7 0 0
BITMAP
099900
CFFFC0
02F300
02F300
02F300
02F300
02F300
ENDCHAR
STARTCHAR tcaron
ENCODING 357
SWIDTH 383 0
DWIDTH 3 0
BBX 4 6 0 0
BITMAP
1F93
2F10
CFF2
4F10
3F30
1CF3
ENDCHAR
STARTCHAR uni0166
ENCODING 358
SWIDTH 556 0
DWIDTH 5 0
BBX 5 6 0 0
BITMAP
CFFFC0
36F300
02F300
3FFF40
02F300
02F300
ENDCHAR
STARTCHAR uni0167
ENCODING 359
SWIDTH 383 0
DWIDTH 3 0
BBX 4 6 0 0
BITMAP
1F10
2F10
CFF2
CFF2
3F30
0CF3
ENDCHAR
STARTCHAR Utilde
ENCODING 360
SWIDTH 665 0
DWIDTH 6 0
BBX 6 9 0 0
BITMAP
000140
06E9A0
0B4820
5F00E5
5F00E5
5F00E5
5F00F4
2F44F2
07EE70
ENDCHAR
STARTCHAR utilde
ENCODING 361
SWIDTH 568 0
DWIDTH 5 0
BBX 5 8 0 0
BITMAP
000310
0BBC20
1B5800
000000
7D0C80
7D0C80
6E1D80
2EDC80
ENDCHAR
STARTCHAR Umacron
ENCODING 362
SWIDTH 665 0
DWIDTH 6 0
BBX 6 7 0 0
BITMAP
06FF50
5F00E5
5F00E5
5F00E5
5F00F4
2F44F2
07EE70
ENDCHAR
STARTCHAR umacron
ENCODING 363
SWIDTH 568 0
DWIDTH 5 0
BBX 5 6 0 0
BITMAP
0CFD00
000000
7D0C80
7D0C80
6E1D80
2EDC80
ENDCHAR
STARTCHAR Ubreve
ENCODING 364
SWIDTH 665 0
DWIDTH 6 0
BBX 6 8 0 0
BITMAP
056750
02DD10
5F00E5
5F00E5
5F00E5
5F00F4
2F44F2
07EE70
ENDCHAR
STARTCHAR ubreve
ENCODING 365
SWIDTH 568 0
DWIDTH 5 0
BBX 5 8 0 0
BITMAP
010100
0D2D00
06E800
000000
7D0C80
7D0C80
6E1D80
2EDC80
ENDCHAR
STARTCHAR Uring
ENCODING 366
SWIDTH 665 0
DWIDTH 6 0
BBX 6 8 0 0
BITMAP
00CC00
00CC00
5F00E5
5F00E5
5F00E5
5F00F4
2F44F2
07EE70
ENDCHAR
STARTCHAR uring
ENCODING 367
SWIDTH 568 0
DWIDTH 5 0
BBX 5 7 0 0
BITMAP
06E800
06F800
000000
7D0C80
7D0C80
6E1D80
2EDC80
ENDCHAR
STARTCHAR Uhungarumlaut
ENCODING 368
SWIDTH 665 0
DWIDTH 6 0
BBX 6 8 0 0
BITMAP
0094B1
01B570
5F00E5
5F00E5
5F00E5
5F00F4
2F44F2
07EE70
ENDCHAR
STARTCHAR uhungarumlaut
ENCODING 369
SWIDTH 568 0
DWIDTH 5 0
BBX 5 7 0 0
BITMAP
039760
000A10
000000
7D0C80
7D0C80
6E1D80
2EDC80
ENDCHAR
STARTCHAR Uogonek
ENCODING 370
SWIDTH 665 0
DWIDTH 6 0
BBX 6 8 0 -2
BITMAP
5F00E5
5F00E5
5F00E5
5F00F4
2F44F2
07EF70
009500
009E10
ENDCHAR
STARTCHAR uogonek
ENCODING 371
SWIDTH 568 0
DWIDTH 5 0
BBX 5 6 0 -2
BITMAP
7D0C80
7D0C80
6E1D80
2EDC80
001C10
001D80
ENDCHAR
STARTCHAR Wcircumflex
ENCODING 372
SWIDTH 813 0
DWIDTH 7 0
BBX 8 7 0 0
BITMAP
0079A000
C80E62F2
9A3F94E0
6D6CC6C0
4F96F990
1FE2CD60
0DE09F40
ENDCHAR
STARTCHAR wcircumflex
ENCODING 373
SWIDTH 776 0
DWIDTH 7 0
BBX 7 7 0 0
BITMAP
008F8000
00B3B000
00000000
AA3F39A0
5D7D7C60
1FB6CF20
0CE1ED00
ENDCHAR
STARTCHAR Ycircumflex
ENCODING 374
SWIDTH 525 0
DWIDTH 5 0
BBX 5 7 0 0
BITMAP
0A9700
D80C90
6E3F20
0ECA00
07F300
04F000
04F000
ENDCHAR
STARTCHAR ycircumflex
ENCODING 375
SWIDTH 521 0
DWIDTH 5 0
BBX 5 9 0 -2
BITMAP
09F600
1B3B00
000000
A90D60
4E2F10
0DAA00
07F500
05E000
6E5000
ENDCHAR
STARTCHAR Ydieresis
ENCODING 376
SWIDTH 525 0
DWIDTH 5 0
BBX 5 7 0 0
BITMAP
2C2C00
D80C90
6E3F20
0ECA00
07F300
04F000
04F000
ENDCHAR
STARTCHAR Zacute
ENCODING 377
SWIDTH 541 0
DWIDTH 5 0
BBX 5 8 0 0
BITMAP
004A00
00B400
7FFF80
006F30
02E900
0AD100
5F4000
AFFF90
ENDCHAR
STARTCHAR zacute
ENCODING 378
SWIDTH 460 0
DWIDTH 4 0
BBX 4 7 0 0
BITMAP
0078
02C2
0000
7FFD
04F6
3E70
AFFE
ENDCHAR
STARTCHAR Zdotaccent
ENCODING 379
SWIDTH 541 0
DWIDTH 5 0
BBX 5 7 0 0
BITMAP
01D200
7FFF80
006F30
02E900
0AD100
5F4000
AFFF90
ENDCHAR
STARTCHAR zdotaccent
ENCODING 380
SWIDTH 460 0
DWIDTH 4 0
BBX 4 6 0 0
BITMAP
05B0
0000
7FFD
04F6
3E70
AFFE
ENDCHAR
STARTCHAR Zcaron
ENCODING 381
SWIDTH 541 0
DWIDTH 5 0
BBX 5 7 0 0
BITMAP
099900
7FFF80
006F30
02E900
0AD100
5F4000
AFFF90
ENDCHAR
STARTCHAR zcaron
ENCODING 382
SWIDTH 460 0
DWIDTH 4 0
BBX 4 7 0 0
BITMAP
4949
0CF3
0000
7FFD
04F6
3E70
AFFE
ENDCHAR
STARTCHAR uni0180
ENCODING 384
SWIDTH 571 0
DWIDTH 5 0
BBX 5 6 0 0
BITMAP
6E0000
FFF600
6E0000
6EDE50
6F2BB0
6DED40
ENDCHAR
STARTCHAR uni018F
ENCODING 399
SWIDTH 675 0
DWIDTH 6 0
BBX 6 6 0 0
BITMAP
08EE80
0423F5
0000B9
8FFFF9
5E22D5
08EE80
ENDCHAR
STARTCHAR uni0192
ENCODING 402
SWIDTH 528 0
DWIDTH 5 0
BBX 5 7 0 -1
BITMAP
009F50
02F300
0EFF00
05E000
07C000
0A9000
9D3000
ENDCHAR
STARTCHAR uni0193
ENCODING 403
SWIDTH 638 0
DWIDTH 6 0
BBX 6 7 0 0
BITMAP
0002DA
05DFE0
3F5130
8D0000
8C0EF3
4F51E3
06DEB1
ENDCHAR
STARTCHAR Ohorn
ENCODING 416
SWIDTH 684 0
DWIDTH 6 0
BBX 6 8 0 0
BITMAP
000004
00003E
07DEE5
4F42E7
8D00AA
8D00AA
3F42E6
06DE80
ENDCHAR
STARTCHAR ohorn
ENCODING 417
SWIDTH 555 0
DWIDTH 5 0
BBX 5 7 0 0
BITMAP
000060
0001F0
1AEE50
7D1D70
AB0A90
7D1D70
1AEA10
ENDCHAR
STARTCHAR Uhorn
ENCODING 431
SWIDTH 683 0
DWIDTH 6 0
BBX 7 8 0 0
BITMAP
00000430
00000A70
5F00ED20
5F00E500
5F00E500
5F00F400
2F44F200
07EE7000
ENDCHAR
STARTCHAR uhorn
ENCODING 432
SWIDTH 568 0
DWIDTH 5 0
BBX 6 6 0 0
BITMAP
000064
0000B6
7D0CD1
7D0C80
6E1D80
2EDC80
ENDCHAR
STARTCHAR uni01C2
ENCODING 450
SWIDTH 330 0
DWIDTH 3 0
BBX 3 11 0 -3
BITMAP
0200
0D00
0D00
0D00
EFD0
0D00
EFD0
0D00
0D00
0D00
0600
ENDCHAR
STARTCHAR uni01CD
ENCODING 461
SWIDTH 573 0
DWIDTH 5 0
BBX 6 7 0 0
BITMAP
089900
06F800
0ACD00
0E6F20
4F1E70
9FFFB0
D706F1
ENDCHAR
STARTCHAR uni01CE
ENCODING 462
SWIDTH 527 0
DWIDTH 5 0
BBX 5 7 0 0
BITMAP
1B3B00
08F700
000000
3CEA00
2DEF30
8C5F30
4ECE30
ENDCHAR
STARTCHAR uni01CF
ENCODING 463
SWIDTH 301 0
DWIDTH 3 0
BBX 3 7 0 0
BITMAP
A970
5F00
5F00
5F00
5F00
5F00
5F00
ENDCHAR
STARTCHAR uni01D0
ENCODING 464
SWIDTH 276 0
DWIDTH 2 0
BBX 4 7 -1 0
BITMAP
3949
0CF4
0000
06E0
06E0
06E0
06E0
ENDCHAR
STARTCHAR uni01D1
ENCODING 465
SWIDTH 684 0
DWIDTH 6 0
BBX 6 7 0 0
BITMAP
02BA40
07DE80
4F42E6
8C00AA
8C00AA
4F42E6
07DE80
ENDCHAR
STARTCHAR uni01D2
ENCODING 466
SWIDTH 555 0
DWIDTH 5 0
BBX 5 7 0 0
BITMAP
0B3B00
08F800
000000
1BEB10
8D1D80
9D1D80
1BEB10
ENDCHAR
STARTCHAR uni01D3
ENCODING 467
SWIDTH 665 0
DWIDTH 6 0
BBX 6 7 0 0
BITMAP
03AA30
5F00E5
5F00E5
5F00E5
5F00F4
2F44F2
07EE70
ENDCHAR
STARTCHAR uni01D4
ENCODING 468
SWIDTH 568 0
DWIDTH 5 0
BBX 5 7 0 0
BITMAP
0B3B10
07F900
000000
7D0C80
7D0C80
6E1D80
2EDC80
ENDCHAR
STARTCHAR uni01D5
ENCODING 469
SWIDTH 665 0
DWIDTH 6 0
BBX 6 9 0 0
BITMAP
06FF50
000000
066660
5F00E5
5F00E5
5F00E5
5F00F4
2F44F2
07EE70
ENDCHAR
STARTCHAR uni01D6
ENCODING 470
SWIDTH 568 0
DWIDTH 5 0
BBX 5 8 0 0
BITMAP
0CFD00
000000
0B1C00
000000
7D0C80
7D0C80
6E1D80
2EDC80
ENDCHAR
STARTCHAR uni01D7
ENCODING 471
SWIDTH 665 0
DWIDTH 6 0
BBX 6 9 0 0
BITMAP
001B00
005700
066660
5F00E5
5F00E5
5F00E5
5F00F4
2F44F2
07EE70
ENDCHAR
STARTCHAR uni01D8
ENCODING 472
SWIDTH 568 0
DWIDTH 5 0
BBX 5 9 0 0
BITMAP
002100
009300
002000
0B1C00
000000
7D0C80
7D0C80
6E1D80
2EDC80
ENDCHAR
STARTCHAR uni01D9
ENCODING 473
SWIDTH 665 0
DWIDTH 6 0
BBX 6 11 0 0
BITMAP
011110
03AA30
00CB00
000000
066660
5F00E5
5F00E5
5F00E5
5F00F4
2F44F2
07EE70
ENDCHAR
STARTCHAR uni01DA
ENCODING 474
SWIDTH 568 0
DWIDTH 5 0
BBX 5 10 0 0
BITMAP
020200
085A00
02F400
000000
0B1C00
000000
7D0C80
7D0C80
6E1D80
2EDC80
ENDCHAR
STARTCHAR uni01DB
ENCODING 475
SWIDTH 665 0
DWIDTH 6 0
BBX 6 9 0 0
BITMAP
01B000
007400
066660
5F00E5
5F00E5
5F00E5
5F00F4
2F44F2
07EE70
ENDCHAR
STARTCHAR uni01DC
ENCODING 476
SWIDTH 568 0
DWIDTH 5 0
BBX 5 8 0 0
BITMAP
037000
009000
0B1C00
000000
7D0C80
7D0C80
6E1D80
2EDC80
ENDCHAR
STARTCHAR uni01E2
ENCODING 482
SWIDTH 845 0
DWIDTH 8 0
BBX 8 7 0 0
BITMAP
0008FF30
009FFFF1
01ECC000
08E8FFB0
1E88C000
6FFFC000
D908FFF2
ENDCHAR
STARTCHAR uni01E3
ENCODING 483
SWIDTH 786 0
DWIDTH 7 0
BBX 7 6 0 0
BITMAP
009FF000
00000000
3CE9DD40
2DEFFFA0
8D4F6210
4ED8EE50
ENDCHAR
STARTCHAR Gcaron
ENCODING 486
SWIDTH 638 0
DWIDTH 6 0
BBX 6 7 0 0
BITMAP
01A970
05DEA0
3F5130
8D0000
8C0EF3
4F51E3
06DEB1
ENDCHAR
STARTCHAR gcaron
ENCODING 487
SWIDTH 534 0
DWIDTH 5 0
BBX 5 9 0 -2
BITMAP
0B3B00
07F800
000000
3DFF90
8C5F00
3FE900
5FFE50
981B90
5EEB20
ENDCHAR
STARTCHAR uni01EA
ENCODING 490
SWIDTH 684 0
DWIDTH 6 0
BBX 6 8 0 -2
BITMAP
07DE80
4F42E6
8C00AA
8C00AA
4F42E6
07EF80
007600
008E10
ENDCHAR
STARTCHAR uni01EB
ENCODING 491
SWIDTH 555 0
DWIDTH 5 0
BBX 5 6 0 -2
BITMAP
1BEB10
8D1D80
9D1D90
2CFB10
02B000
02E600
ENDCHAR
STARTCHAR uni01F4
ENCODING 500
SWIDTH 638 0
DWIDTH 6 0
BBX 6 8 0 0
BITMAP
000780
002B20
05DEA0
3F5130
8D0000
8C0EF3
4F51E3
06DEB1
ENDCHAR
STARTCHAR uni01F5
ENCODING 501
SWIDTH 534 0
DWIDTH 5 0
BBX 5 9 0 -2
BITMAP
003B10
00B500
000000
3DFF90
8C5F00
3FE900
5FFE50
981B90
5EEB20
ENDCHAR
STARTCHAR uni01F8
ENCODING 504
SWIDTH 665 0
DWIDTH 6 0
BBX 6 8 0 0
BITMAP
04A100
019600
5F50F4
5FC0F4
5DC5E4
5E5CD4
5E0CF4
5E05F4
ENDCHAR
STARTCHAR uni01F9
ENCODING 505
SWIDTH 572 0
DWIDTH 5 0
BBX 5 7 0 0
BITMAP
096000
02C100
000000
6DCE40
6E2C90
6E0B90
6E0B90
ENDCHAR
STARTCHAR uni01FC
ENCODING 508
SWIDTH 845 0
DWIDTH 8 0
BBX 8 8 0 0
BITMAP
00002B20
00009700
009FFFF1
01ECC000
08E8FFB0
1E88C000
6FFFC000
D908FFF2
ENDCHAR
STARTCHAR uni01FD
ENCODING 509
SWIDTH 786 0
DWIDTH 7 0
BBX 7 7 0 0
BITMAP
0001B200
00097000
00000000
3CE9DD40
2DEFFFA0
8D4F6210
4ED8EE50
ENDCHAR
STARTCHAR uni0218
ENCODING 536
SWIDTH 556 0
DWIDTH 5 0
BBX 5 9 0 -3
BITMAP
1AEC30
6F1410
3FC500
03AF70
251C90
4CEC20
01D200
00B500
07B100
ENDCHAR
STARTCHAR uni0219
ENCODING 537
SWIDTH 443 0
DWIDTH 4 0
BBX 4 7 0 -3
BITMAP
4DE6
7D72
36C9
7EE5
0690
03E0
0C70
ENDCHAR
STARTCHAR uni021A
ENCODING 538
SWIDTH 556 0
DWIDTH 5 0
BBX 5 9 0 -3
BITMAP
CFFFC0
02F300
02F300
02F300
02F300
02F300
01D200
00C500
07B100
ENDCHAR
STARTCHAR uni021B
ENCODING 539
SWIDTH 383 0
DWIDTH 3 0
BBX 4 9 0 -3
BITMAP
1F10
2F10
CFF2
4F10
3F30
1CF3
0690
03E0
0C70
ENDCHAR
STARTCHAR uni0237
ENCODING 567
SWIDTH 278 0
DWIDTH 3 0
BBX 3 6 -1 -2
BITMAP
06E0
06E0
06E0
06E0
07D0
5E70
ENDCHAR
STARTCHAR uni0243
ENCODING 579
SWIDTH 628 0
DWIDTH 6 0
BBX 6 6 0 0
BITMAP
1FFE80
1F46F0
1FBD90
4F86F3
5F84F4
1FFE90
ENDCHAR
STARTCHAR uni0250
ENCODING 592
SWIDTH 534 0
DWIDTH 5 0
BBX 5 4 0 0
BITMAP
7CDE20
7E4F40
6FDB00
1CEC20
ENDCHAR
STARTCHAR uni0251
ENCODING 593
SWIDTH 573 0
DWIDTH 5 0
BBX 5 4 0 0
BITMAP
2CEC90
8D1D90
9C1D90
2CEC90
ENDCHAR
STARTCHAR uni0252
ENCODING 594
SWIDTH 573 0
DWIDTH 5 0
BBX 5 4 0 0
BITMAP
6DDE40
6E2BB0
6E2BA0
6DDD30
ENDCHAR
STARTCHAR uni0253
ENCODING 595
SWIDTH 573 0
DWIDTH 5 0
BBX 5 6 0 0
BITMAP
1BE300
6E1000
6EDE40
6E2BB0
6E0BA0
6EFD30
ENDCHAR
STARTCHAR uni0254
ENCODING 596
SWIDTH 467 0
DWIDTH 4 0
BBX 4 4 0 0
BITMAP
7EC3
11AC
11AC
7ED3
ENDCHAR
STARTCHAR uni0255
ENCODING 597
SWIDTH 467 0
DWIDTH 4 0
BBX 5 5 0 -1
BITMAP
2BEA00
9EED00
7F5E10
9DE900
320000
ENDCHAR
STARTCHAR uni0256
ENCODING 598
SWIDTH 573 0
DWIDTH 5 0
BBX 6 8 0 -2
BITMAP
000B90
000B90
2CEE90
8D1C90
9C1C90
2CEE90
000A90
0005E5
ENDCHAR
STARTCHAR uni0257
ENCODING 599
SWIDTH 573 0
DWIDTH 5 0
BBX 6 6 0 0
BITMAP
0004E5
000AA0
2CEE90
8D1C90
9C1D90
2CEC90
ENDCHAR
STARTCHAR uni0258
ENCODING 600
SWIDTH 518 0
DWIDTH 5 0
BBX 5 4 0 0
BITMAP
3DE900
9FFF30
114F40
4DE800
ENDCHAR
STARTCHAR uni0259
ENCODING 601
SWIDTH 518 0
DWIDTH 5 0
BBX 5 4 0 0
BITMAP
3DE800
023F30
AFFF40
4DE800
ENDCHAR
STARTCHAR uni025A
ENCODING 602
SWIDTH 707 0
DWIDTH 6 0
BBX 7 5 0 0
BITMAP
00003200
3DFFE900
18CF5D60
9C5F2000
2CE70000
ENDCHAR
STARTCHAR uni025B
ENCODING 603
SWIDTH 462 0
DWIDTH 4 0
BBX 4 4 0 0
BITMAP
3DF9
2EF4
8D11
3CFA
ENDCHAR
STARTCHAR uni025C
ENCODING 604
SWIDTH 476 0
DWIDTH 4 0
BBX 4 4 0 0
BITMAP
5EE6
1EF6
119C
6EE6
ENDCHAR
STARTCHAR uni025E
ENCODING 606
SWIDTH 566 0
DWIDTH 5 0
BBX 5 4 0 0
BITMAP
3DFB20
2ECBA0
8D1BA0
3CFC20
ENDCHAR
STARTCHAR uni025F
ENCODING 607
SWIDTH 321 0
DWIDTH 3 0
BBX 4 6 -1 -2
BITMAP
03F1
0DFB
03F1
03F1
05F1
2F90
ENDCHAR
STARTCHAR uni0260
ENCODING 608
SWIDTH 583 0
DWIDTH 5 0
BBX 6 8 0 -2
BITMAP
0003D6
0009A0
1BED90
8D1C90
8D1C90
2CEE90
031D80
2DFB20
ENDCHAR
STARTCHAR uni0261
ENCODING 609
SWIDTH 583 0
DWIDTH 5 0
BBX 5 6 0 -2
BITMAP
1BEC90
8D1C90
8D1C90
2CEE90
031D80
2DFC20
ENDCHAR
STARTCHAR uni0262
ENCODING 610
SWIDTH 517 0
DWIDTH 5 0
BBX 5 4 0 0
BITMAP
1BEC00
8C1200
8CAF40
1BFD30
ENDCHAR
STARTCHAR uni0263
ENCODING 611
SWIDTH 523 0
DWIDTH 5 0
BBX 5 6 0 -2
BITMAP
A90D60
4E3E10
0DC900
09F600
0E9B00
0AE600
ENDCHAR
STARTCHAR uni0264
ENCODING 612
SWIDTH 569 0
DWIDTH 5 0
BBX 5 4 0 0
BITMAP
AE8DC0
0AEC10
2F3F40
0BFC10
ENDCHAR
STARTCHAR uni0265
ENCODING 613
SWIDTH 572 0
DWIDTH 5 0
BBX 5 6 0 -2
BITMAP
7D0C80
7D0C80
6E1C80
2EEE80
000B80
000C80
ENDCHAR
STARTCHAR uni0266
ENCODING 614
SWIDTH 571 0
DWIDTH 5 0
BBX 5 6 0 0
BITMAP
1BE300
6E1000
6EDE40
6E2C90
6E0B90
6E0B90
ENDCHAR
STARTCHAR uni0267
ENCODING 615
SWIDTH 571 0
DWIDTH 5 0
BBX 5 8 0 -2
BITMAP
1BE300
6E1000
6EDE40
6E2C90
6E0B90
6E0B90
000C90
00AD30
ENDCHAR
STARTCHAR uni0268
ENCODING 616
SWIDTH 321 0
DWIDTH 3 0
BBX 3 6 0 0
BITMAP
2D10
0000
3F20
DFB0
3F20
3F20
ENDCHAR
STARTCHAR uni026A
ENCODING 618
SWIDTH 395 0
DWIDTH 4 0
BBX 4 4 0 0
BITMAP
8FF1
0D70
0D70
8FF1
ENDCHAR
STARTCHAR uni026C
ENCODING 620
SWIDTH 377 0
DWIDTH 3 0
BBX 5 6 -1 0
BITMAP
00A900
06D900
1CD900
0BFF40
00AA00
007F20
ENDCHAR
STARTCHAR uni026D
ENCODING 621
SWIDTH 286 0
DWIDTH 3 0
BBX 3 8 0 -2
BITMAP
6E00
6E00
6E00
6E00
6E00
6E00
6E00
2DA0
ENDCHAR
STARTCHAR uni026E
ENCODING 622
SWIDTH 640 0
DWIDTH 6 0
BBX 6 8 0 -2
BITMAP
6E0000
6E0000
6FFFF5
6E09A0
6E5F80
6E27E7
0041E7
02CEB1
ENDCHAR
STARTCHAR uni026F
ENCODING 623
SWIDTH 857 0
DWIDTH 8 0
BBX 8 4 0 0
BITMAP
7D0C82F2
7D0C82F2
6E2E95F2
2DD9EAF2
ENDCHAR
STARTCHAR uni0270
ENCODING 624
SWIDTH 857 0
DWIDTH 8 0
BBX 8 6 0 -2
BITMAP
7D0C82F2
7D0C82F2
6E2E95F2
2DD9EBF2
000002F2
000002F2
ENDCHAR
STARTCHAR uni0271
ENCODING 625
SWIDTH 857 0
DWIDTH 8 0
BBX 8 6 0 -2
BITMAP
6DCE8EB0
6E2DB4F2
6E0C82F3
6E0C82F3
000003F2
00000EB0
ENDCHAR
STARTCHAR uni0272
ENCODING 626
SWIDTH 572 0
DWIDTH 5 0
BBX 6 6 -1 -2
BITMAP
06DCE4
06E2C9
06E0B9
06E0B9
07D000
3E7000
ENDCHAR
STARTCHAR uni0273
ENCODING 627
SWIDTH 572 0
DWIDTH 5 0
BBX 6 6 0 -2
BITMAP
6DCE40
6E2C90
6E0B90
6E0B90
000AA0
0005E5
ENDCHAR
STARTCHAR uni0274
ENCODING 628
SWIDTH 561 0
DWIDTH 5 0
BBX 5 4 0 0
BITMAP
6F2C70
6EBB70
6CBE70
6C2E70
ENDCHAR
STARTCHAR uni0275
ENCODING 629
SWIDTH 555 0
DWIDTH 5 0
BBX 5 4 0 0
BITMAP
1BEB10
9FFF80
9C2C80
2BEB20
ENDCHAR
STARTCHAR uni0276
ENCODING 630
SWIDTH 726 0
DWIDTH 7 0
BBX 7 4 0 0
BITMAP
1BFEEE30
8D1EFE00
8C1E5000
1BFEDD40
ENDCHAR
STARTCHAR uni0278
ENCODING 632
SWIDTH 738 0
DWIDTH 7 0
BBX 7 8 0 -2
BITMAP
004E0000
004E0000
1AEFD600
8D6E4F30
8D6E4F30
1AEFD700
004E0000
004E0000
ENDCHAR
STARTCHAR uni0279
ENCODING 633
SWIDTH 398 0
DWIDTH 4 0
BBX 3 4 0 0
BITMAP
05F0
05F0
08F0
D9F0
ENDCHAR
STARTCHAR uni027A
ENCODING 634
SWIDTH 398 0
DWIDTH 4 0
BBX 3 6 0 0
BITMAP
05F0
05F0
05F0
05F0
08F0
D9F0
ENDCHAR
STARTCHAR uni027B
ENCODING 635
SWIDTH 398 0
DWIDTH 4 0
BBX 4 6 0 -2
BITMAP
05F0
05F0
08F0
DAF0
02F1
00BB
ENDCHAR
STARTCHAR uni027D
ENCODING 637
SWIDTH 398 0
DWIDTH 4 0
BBX 4 6 0 -2
BITMAP
6CB7
6F30
6E00
6E00
6E00
2DA0
ENDCHAR
STARTCHAR uni027E
ENCODING 638
SWIDTH 380 0
DWIDTH 3 0
BBX 4 4 0 0
BITMAP
1CF5
6E10
6E00
6E00
ENDCHAR
STARTCHAR uni0280
ENCODING 640
SWIDTH 532 0
DWIDTH 5 0
BBX 5 4 0 0
BITMAP
6E8B10
6E3F30
6FFC00
6E3E40
ENDCHAR
STARTCHAR uni0281
ENCODING 641
SWIDTH 532 0
DWIDTH 5 0
BBX 5 4 0 0
BITMAP
7E3F30
1EFF30
6E3F30
2DFF30
ENDCHAR
STARTCHAR uni0282
ENCODING 642
SWIDTH 443 0
DWIDTH 4 0
BBX 4 6 0 -2
BITMAP
4DE6
7D72
25C9
BFE5
B700
5E40
ENDCHAR
STARTCHAR uni0283
ENCODING 643
SWIDTH 278 0
DWIDTH 3 0
BBX 4 8 -1 -2
BITMAP
01CD
06E1
06E0
06E0
06E0
06E0
07D0
5E70
ENDCHAR
STARTCHAR uni0284
ENCODING 644
SWIDTH 321 0
DWIDTH 3 0
BBX 5 8 -1 -2
BITMAP
01CE10
03F300
04F100
0DFB00
03F100
03F100
05F100
2F9000
ENDCHAR
STARTCHAR uni0288
ENCODING 648
SWIDTH 383 0
DWIDTH 3 0
BBX 4 8 0 -2
BITMAP
0300
1F10
CFF2
4F10
4F10
4F10
3F30
0BF3
ENDCHAR
STARTCHAR uni0289
ENCODING 649
SWIDTH 617 0
DWIDTH 6 0
BBX 6 4 0 0
BITMAP
3F28C0
DFFFF6
3F3AC0
1CEBC0
ENDCHAR
STARTCHAR uni028A
ENCODING 650
SWIDTH 558 0
DWIDTH 5 0
BBX 5 4 0 0
BITMAP
BF5FB0
5D1D50
9C1C90
2CEC20
ENDCHAR
STARTCHAR uni028B
ENCODING 651
SWIDTH 552 0
DWIDTH 5 0
BBX 5 4 0 0
BITMAP
7D7E40
7D0C90
6E1D70
1CEB10
ENDCHAR
STARTCHAR uni028C
ENCODING 652
SWIDTH 523 0
DWIDTH 5 0
BBX 5 4 0 0
BITMAP
09F400
1E9A00
5D3F10
B80D60
ENDCHAR
STARTCHAR uni028D
ENCODING 653
SWIDTH 776 0
DWIDTH 7 0
BBX 7 4 0 0
BITMAP
0DE1EC00
2EC7BF10
6C8D6E50
A84F2A90
ENDCHAR
STARTCHAR uni028E
ENCODING 654
SWIDTH 521 0
DWIDTH 5 0
BBX 5 6 0 0
BITMAP
008E30
03E200
09F200
0EB800
5C4E00
B80E50
ENDCHAR
STARTCHAR uni028F
ENCODING 655
SWIDTH 466 0
DWIDTH 4 0
BBX 5 4 0 0
BITMAP
C85E10
4EC700
0BE000
08C000
ENDCHAR
STARTCHAR uni0290
ENCODING 656
SWIDTH 460 0
DWIDTH 4 0
BBX 5 6 0 -2
BITMAP
7FFC00
03E300
1D6000
9FFC00
007D00
002D90
ENDCHAR
STARTCHAR uni0291
ENCODING 657
SWIDTH 503 0
DWIDTH 5 0
BBX 5 5 0 -1
BITMAP
7FFC00
04FF60
3EC790
AFFD40
009000
ENDCHAR
STARTCHAR uni0292
ENCODING 658
SWIDTH 460 0
DWIDTH 4 0
BBX 4 6 0 -2
BITMAP
AFFA
04D2
1EC4
04BD
319D
8ED4
ENDCHAR
STARTCHAR uni0294
ENCODING 660
SWIDTH 448 0
DWIDTH 4 0
BBX 4 6 0 0
BITMAP
9ED5
419C
01BA
0BC1
0D70
0D70
ENDCHAR
STARTCHAR uni0295
ENCODING 661
SWIDTH 506 0
DWIDTH 5 0
BBX 5 6 0 0
BITMAP
2CEB10
8D1500
6E2000
09E100
04F100
04F100
ENDCHAR
STARTCHAR uni0298
ENCODING 664
SWIDTH 556 0
DWIDTH 5 0
BBX 5 6 0 0
BITMAP
0AEA00
5D2D50
8ACA80
8A0A80
5D2D50
0AEA00
ENDCHAR
STARTCHAR uni0299
ENCODING 665
SWIDTH 528 0
DWIDTH 5 0
BBX 5 4 0 0
BITMAP
6FFD20
6FFD10
6D1E60
6FFC20
ENDCHAR
STARTCHAR uni029C
ENCODING 668
SWIDTH 582 0
DWIDTH 5 0
BBX 5 4 0 0
BITMAP
6E0AA0
6FFFA0
6E0AA0
6E0AA0
ENDCHAR
STARTCHAR uni029D
ENCODING 669
SWIDTH 360 0
DWIDTH 3 0
BBX 5 9 -1 -3
BITMAP
008800
000000
00AA00
00AA00
00AA00
3EFA00
6ACD10
2DDC70
000220
ENDCHAR
STARTCHAR uni029F
ENCODING 671
SWIDTH 432 0
DWIDTH 4 0
BBX 4 4 0 0
BITMAP
6E00
6E00
6E00
6FFA
ENDCHAR
STARTCHAR uni02A1
ENCODING 673
SWIDTH 476 0
DWIDTH 4 0
BBX 5 6 0 0
BITMAP
7EE700
427E00
01C800
DFFF20
0B9000
0B9000
ENDCHAR
STARTCHAR uni02A2
ENCODING 674
SWIDTH 476 0
DWIDTH 4 0
BBX 5 6 0 0
BITMAP
4DEA10
AB1500
4D3000
DFFF30
05F000
05F000
ENDCHAR
STARTCHAR h.sups
ENCODING 688
SWIDTH 384 0
DWIDTH 3 0
BBX 4 5 0 3
BITMAP
9500
9500
9DD0
96D2
95C2
ENDCHAR
STARTCHAR j.sups
ENCODING 690
SWIDTH 190 0
DWIDTH 2 0
BBX 3 6 -1 2
BITMAP
0840
0000
0950
0950
0A50
3E20
ENDCHAR
STARTCHAR r.sups
ENCODING 691
SWIDTH 272 0
DWIDTH 2 0
BBX 3 3 0 3
BITMAP
9C50
9600
9500
ENDCHAR
STARTCHAR w.sups
ENCODING 695
SWIDTH 523 0
DWIDTH 5 0
BBX 5 3 0 3
BITMAP
B4D670
7BCB30
4F6E00
ENDCHAR
STARTCHAR y.sups
ENCODING 696
SWIDTH 353 0
DWIDTH 3 0
BBX 3 4 0 2
BITMAP
B3D0
5A90
0E40
9B00
ENDCHAR
STARTCHAR uni02B9
ENCODING 697
SWIDTH 300 0
DWIDTH 3 0
BBX 3 3 0 3
BITMAP
2F20
3E00
4B00
ENDCHAR
STARTCHAR uni02BB
ENCODING 699
SWIDTH 300 0
DWIDTH 3 0
BBX 2 3 0 3
BITMAP
07
57
5C
ENDCHAR
STARTCHAR uni02BC
ENCODING 700
SWIDTH 300 0
DWIDTH 3 0
BBX 3 3 0 3
BITMAP
3D10
0B10
2500
ENDCHAR
STARTCHAR uni02BE
ENCODING 702
SWIDTH 176 0
DWIDTH 2 0
BBX 2 3 0 4
BITMAP
B3
57
B3
ENDCHAR
STARTCHAR uni02BF
ENCODING 703
SWIDTH 176 0
DWIDTH 2 0
BBX 2 3 0 4
BITMAP
95
B1
95
ENDCHAR
STARTCHAR uni02C1
ENCODING 705
SWIDTH 343 0
DWIDTH 3 0
BBX 3 5 0 3
BITMAP
5E90
B520
4C10
0C20
0610
ENDCHAR
STARTCHAR circumflex
ENCODING 710
SWIDTH 555 0
DWIDTH 5 0
BBX 3 2 1 5
BITMAP
8F80
B3B0
ENDCHAR
STARTCHAR caron
ENCODING 711
SWIDTH 555 0
DWIDTH 5 0
BBX 3 2 1 5
BITMAP
B3B0
8F80
ENDCHAR
STARTCHAR uni02C8
ENCODING 712
SWIDTH 147 0
DWIDTH 1 0
BBX 2 1 0 5
BITMAP
D3
ENDCHAR
STARTCHAR uni02C9
ENCODING 713
SWIDTH 308 0
DWIDTH 3 0
BBX 3 1 0 5
BITMAP
EFB0
ENDCHAR
STARTCHAR uni02CA
ENCODING 714
SWIDTH 236 0
DWIDTH 2 0
BBX 3 2 0 5
BITMAP
0960
3B10
ENDCHAR
STARTCHAR uni02CB
ENCODING 715
SWIDTH 236 0
DWIDTH 2 0
BBX 3 2 -1 5
BITMAP
5A00
1A50
ENDCHAR
STARTCHAR uni02CC
ENCODING 716
SWIDTH 147 0
DWIDTH 1 0
BBX 2 1 0 -2
BITMAP
D3
ENDCHAR
STARTCHAR uni02D0
ENCODING 720
SWIDTH 300 0
DWIDTH 3 0
BBX 3 4 0 0
BITMAP
3B10
0000
0000
3B10
ENDCHAR
STARTCHAR uni02D1
ENCODING 721
SWIDTH 300 0
DWIDTH 3 0
BBX 3 1 0 3
BITMAP
3B10
ENDCHAR
STARTCHAR breve
ENCODING 728
SWIDTH 555 0
DWIDTH 5 0
BBX 3 3 1 5
BITMAP
1010
D2D0
7E70
ENDCHAR
STARTCHAR dotaccent
ENCODING 729
SWIDTH 555 0
DWIDTH 5 0
BBX 3 1 1 5
BITMAP
1D10
ENDCHAR
STARTCHAR ring
ENCODING 730
SWIDTH 555 0
DWIDTH 5 0
BBX 3 2 1 5
BITMAP
7E70
7F70
ENDCHAR
STARTCHAR ogonek
ENCODING 731
SWIDTH 555 0
DWIDTH 5 0
BBX 3 3 1 -2
BITMAP
0100
2B00
2E60
ENDCHAR
STARTCHAR tilde
ENCODING 732
SWIDTH 555 0
DWIDTH 5 0
BBX 5 3 0 5
BITMAP
000310
0CBD20
2A6700
ENDCHAR
STARTCHAR hungarumlaut
ENCODING 733
SWIDTH 555 0
DWIDTH 5 0
BBX 4 2 1 5
BITMAP
4885
00A1
ENDCHAR
STARTCHAR uni02DE
ENCODING 734
SWIDTH 189 0
DWIDTH 2 0
BBX 3 3 -1 2
BITMAP
0200
CD00
48B0
ENDCHAR
STARTCHAR uni02E0
ENCODING 736
SWIDTH 353 0
DWIDTH 3 0
BBX 3 4 0 2
BITMAP
B3C0
5B80
2E50
3E60
ENDCHAR
STARTCHAR l.sups
ENCODING 737
SWIDTH 194 0
DWIDTH 2 0
BBX 2 5 0 3
BITMAP
95
95
95
95
69
ENDCHAR
STARTCHAR s.sups
ENCODING 738
SWIDTH 297 0
DWIDTH 3 0
BBX 3 3 0 3
BITMAP
8E40
7C40
9E50
ENDCHAR
STARTCHAR x.sups
ENCODING 739
SWIDTH 348 0
DWIDTH 3 0
BBX 3 3 0 3
BITMAP
88A0
2F40
98C0
ENDCHAR
STARTCHAR uni0300
ENCODING 768
SWIDTH 0 0
DWIDTH 0 0
BBX 3 2 -2 5
BITMAP
5900
1A40
ENDCHAR
STARTCHAR uni0301
ENCODING 769
SWIDTH 0 0
DWIDTH 0 0
BBX 3 2 -1 5
BITMAP
0A50
4A10
ENDCHAR
STARTCHAR uni0302
ENCODING 770
SWIDTH 0 0
DWIDTH 0 0
BBX 4 2 -2 5
BITMAP
1EE1
6666
ENDCHAR
STARTCHAR uni0303
ENCODING 771
SWIDTH 0 0
DWIDTH 0 0
BBX 4 3 -2 5
BITMAP
0013
5E99
A492
ENDCHAR
STARTCHAR uni0304
ENCODING 772
SWIDTH 0 0
DWIDTH 0 0
BBX 4 1 -2 5
BITMAP
5FF5
ENDCHAR
STARTCHAR uni0305
ENCODING 773
SWIDTH 0 0
DWIDTH 0 0
BBX 4 1 -2 5
BITMAP
5FF5
ENDCHAR
STARTCHAR uni0306
ENCODING 774
SWIDTH 0 0
DWIDTH 0 0
BBX 4 2 -2 5
BITMAP
7777
2DD2
ENDCHAR
STARTCHAR uni0307
ENCODING 775
SWIDTH 0 0
DWIDTH 0 0
BBX 2 1 -1 5
BITMAP
88
ENDCHAR
STARTCHAR uni0308
ENCODING 776
SWIDTH 0 0
DWIDTH 0 0
BBX 4 1 -2 5
BITMAP
7777
ENDCHAR
STARTCHAR uni0309
ENCODING 777
SWIDTH 0 0
DWIDTH 0 0
BBX 2 3 -1 4
BITMAP
B7
5B
11
ENDCHAR
STARTCHAR uni030A
ENCODING 778
SWIDTH 0 0
DWIDTH 0 0
BBX 4 2 -2 5
BITMAP
1DD1
1DD1
ENDCHAR
STARTCHAR uni030B
ENCODING 779
SWIDTH 0 0
DWIDTH 0 0
BBX 3 2 -1 5
BITMAP
A3C0
0560
ENDCHAR
STARTCHAR uni030C
ENCODING 780
SWIDTH 0 0
DWIDTH 0 0
BBX 4 2 -2 5
BITMAP
6666
1EE1
ENDCHAR
STARTCHAR uni030F
ENCODING 783
SWIDTH 0 0
DWIDTH 0 0
BBX 3 2 -2 5
BITMAP
B590
75B0
ENDCHAR
STARTCHAR uni0311
ENCODING 785
SWIDTH 0 0
DWIDTH 0 0
BBX 4 2 -2 5
BITMAP
2DD2
6666
ENDCHAR
STARTCHAR uni0312
ENCODING 786
SWIDTH 0 0
DWIDTH 0 0
BBX 2 2 -1 5
BITMAP
43
75
ENDCHAR
STARTCHAR uni0313
ENCODING 787
SWIDTH 0 0
DWIDTH 0 0
BBX 2 2 -1 5
BITMAP
57
34
ENDCHAR
STARTCHAR uni0318
ENCODING 792
SWIDTH 0 0
DWIDTH 0 0
BBX 2 3 -1 -3
BITMAP
06
CD
06
ENDCHAR
STARTCHAR uni0319
ENCODING 793
SWIDTH 0 0
DWIDTH 0 0
BBX 2 3 -1 -3
BITMAP
60
DC
60
ENDCHAR
STARTCHAR uni031A
ENCODING 794
SWIDTH 0 0
DWIDTH 0 0
BBX 2 2 -1 4
BITMAP
CD
07
ENDCHAR
STARTCHAR uni031B
ENCODING 795
SWIDTH 0 0
DWIDTH 0 0
BBX 3 3 -1 4
BITMAP
0340
0980
1C10
ENDCHAR
STARTCHAR uni031C
ENCODING 796
SWIDTH 0 0
DWIDTH 0 0
BBX 2 3 -1 -3
BITMAP
68
A2
68
ENDCHAR
STARTCHAR uni031D
ENCODING 797
SWIDTH 0 0
DWIDTH 0 0
BBX 2 2 -1 -2
BITMAP
55
FF
ENDCHAR
STARTCHAR uni031E
ENCODING 798
SWIDTH 0 0
DWIDTH 0 0
BBX 2 2 -1 -3
BITMAP
FF
55
ENDCHAR
STARTCHAR uni031F
ENCODING 799
SWIDTH 0 0
DWIDTH 0 0
BBX 2 3 -1 -3
BITMAP
33
FF
33
ENDCHAR
STARTCHAR uni0320
ENCODING 800
SWIDTH 0 0
DWIDTH 0 0
BBX 2 1 -1 -2
BITMAP
FF
ENDCHAR
STARTCHAR uni0323
ENCODING 803
SWIDTH 0 0
DWIDTH 0 0
BBX 2 1 -1 -2
BITMAP
88
ENDCHAR
STARTCHAR uni0324
ENCODING 804
SWIDTH 0 0
DWIDTH 0 0
BBX 4 1 -2 -2
BITMAP
7777
ENDCHAR
STARTCHAR uni0325
ENCODING 805
SWIDTH 0 0
DWIDTH 0 0
BBX 4 2 -2 -2
BITMAP
1DD1
1DD1
ENDCHAR
STARTCHAR uni0326
ENCODING 806
SWIDTH 0 0
DWIDTH 0 0
BBX 2 3 -1 -3
BITMAP
88
4C
D6
ENDCHAR
STARTCHAR uni0327
ENCODING 807
SWIDTH 0 0
DWIDTH 0 0
BBX 2 4 -1 -3
BITMAP
43
A9
4C
D5
ENDCHAR
STARTCHAR uni0328
ENCODING 808
SWIDTH 0 0
DWIDTH 0 0
BBX 2 3 -1 -2
BITMAP
01
94
9D
ENDCHAR
STARTCHAR uni0329
ENCODING 809
SWIDTH 0 0
DWIDTH 0 0
BBX 2 1 -1 -2
BITMAP
88
ENDCHAR
STARTCHAR uni032A
ENCODING 810
SWIDTH 0 0
DWIDTH 0 0
BBX 4 2 -2 -3
BITMAP
2FF2
1551
ENDCHAR
STARTCHAR uni032C
ENCODING 812
SWIDTH 0 0
DWIDTH 0 0
BBX 4 2 -2 -2
BITMAP
6666
1EE1
ENDCHAR
STARTCHAR uni032E
ENCODING 814
SWIDTH 0 0
DWIDTH 0 0
BBX 4 2 -2 -2
BITMAP
7777
2DD2
ENDCHAR
STARTCHAR uni032F
ENCODING 815
SWIDTH 0 0
DWIDTH 0 0
BBX 4 2 -2 -2
BITMAP
2DD2
6666
ENDCHAR
STARTCHAR uni0330
ENCODING 816
SWIDTH 0 0
DWIDTH 0 0
BBX 4 3 -2 -2
BITMAP
0013
5E99
A492
ENDCHAR
STARTCHAR uni0331
ENCODING 817
SWIDTH 0 0
DWIDTH 0 0
BBX 4 1 -2 -2
BITMAP
5FF5
ENDCHAR
STARTCHAR uni0334
ENCODING 820
SWIDTH 0 0
DWIDTH 0 0
BBX 4 3 -2 1
BITMAP
0013
5E99
A492
ENDCHAR
STARTCHAR uni0339
ENCODING 825
SWIDTH 0 0
DWIDTH 0 0
BBX 2 3 -1 -3
BITMAP
86
2A
86
ENDCHAR
STARTCHAR uni033A
ENCODING 826
SWIDTH 0 0
DWIDTH 0 0
BBX 4 2 -2 -2
BITMAP
1551
2FF2
ENDCHAR
STARTCHAR uni033B
ENCODING 827
SWIDTH 0 0
DWIDTH 0 0
BBX 4 2 -2 -2
BITMAP
2FF2
2FF2
ENDCHAR
STARTCHAR uni033C
ENCODING 828
SWIDTH 0 0
DWIDTH 0 0
BBX 4 1 -2 -2
BITMAP
7FF7
ENDCHAR
STARTCHAR uni033D
ENCODING 829
SWIDTH 0 0
DWIDTH 0 0
BBX 2 1 -1 5
BITMAP
99
ENDCHAR
STARTCHAR uni0342
ENCODING 834
SWIDTH 0 0
DWIDTH 0 0
BBX 4 3 -2 5
BITMAP
0013
5E99
A492
ENDCHAR
STARTCHAR uni0345
ENCODING 837
SWIDTH 0 0
DWIDTH 0 0
BBX 2 1 -1 -2
BITMAP
6B
ENDCHAR
STARTCHAR uni0361
ENCODING 865
SWIDTH 0 0
DWIDTH 0 0
BBX 8 2 -4 5
BITMAP
28CEEC82
A620026A
ENDCHAR
STARTCHAR uni0374
ENCODING 884
SWIDTH 300 0
DWIDTH 3 0
BBX 3 3 0 3
BITMAP
2F20
3E00
4B00
ENDCHAR
STARTCHAR uni0375
ENCODING 885
SWIDTH 300 0
DWIDTH 3 0
BBX 2 3 0 0
BITMAP
1E
4D
7C
ENDCHAR
STARTCHAR uni037A
ENCODING 890
SWIDTH 555 0
DWIDTH 5 0
BBX 2 1 2 -2
BITMAP
C4
ENDCHAR
STARTCHAR uni037E
ENCODING 894
SWIDTH 300 0
DWIDTH 3 0
BBX 3 7 0 -2
BITMAP
4D10
4D10
0000
0000
4E20
1B20
5500
ENDCHAR
STARTCHAR tonos
ENCODING 900
SWIDTH 555 0
DWIDTH 5 0
BBX 2 3 2 5
BITMAP
10
C6
D1
ENDCHAR
STARTCHAR dieresistonos
ENCODING 901
SWIDTH 555 0
DWIDTH 5 0
BBX 5 3 0 5
BITMAP
001000
00B200
1A9920
ENDCHAR
STARTCHAR Alphatonos
ENCODING 902
SWIDTH 622 0
DWIDTH 6 0
BBX 6 6 0 0
BITMAP
C3EE00
E4DE40
08AB90
0D77D0
2FFFF3
7E00E8
ENDCHAR
STARTCHAR anoteleia
ENCODING 903
SWIDTH 300 0
DWIDTH 3 0
BBX 3 2 0 3
BITMAP
4D10
4D10
ENDCHAR
STARTCHAR Epsilontonos
ENCODING 904
SWIDTH 667 0
DWIDTH 6 0
BBX 7 6 -1 0
BITMAP
0D5FFF70
1D4F1000
004FFF10
004F1000
004F1000
004FFF80
ENDCHAR
STARTCHAR Etatonos
ENCODING 905
SWIDTH 792 0
DWIDTH 7 0
BBX 8 6 -1 0
BITMAP
0D5F10D7
1D4F10D7
004FFFF7
004F10D7
004F10D7
004F10D7
ENDCHAR
STARTCHAR Iotatonos
ENCODING 906
SWIDTH 420 0
DWIDTH 4 0
BBX 5 6 -1 0
BITMAP
0D5F10
1D4F10
004F10
004F10
004F10
004F10
ENDCHAR
STARTCHAR Omicrontonos
ENCODING 908
SWIDTH 777 0
DWIDTH 7 0
BBX 8 6 -1 0
BITMAP
0D29ED60
1D7E24F3
00AA00D7
00AA00D7
006E24F3
0008ED60
ENDCHAR
STARTCHAR Upsilontonos
ENCODING 910
SWIDTH 704 0
DWIDTH 6 0
BBX 8 6 -1 0
BITMAP
0D6F23F3
1D0C88B0
0005DE40
0000DC00
0000AA00
0000AA00
ENDCHAR
STARTCHAR Omegatonos
ENCODING 911
SWIDTH 803 0
DWIDTH 7 0
BBX 8 6 -1 0
BITMAP
0E17EE80
2C5F33E6
009C00BA
008D00C9
002E44F3
00CF99FC
ENDCHAR
STARTCHAR iotadieresistonos
ENCODING 912
SWIDTH 301 0
DWIDTH 3 0
BBX 4 8 -1 0
BITMAP
0020
00D0
587B
0000
06E0
06D0
06D0
03E8
ENDCHAR
STARTCHAR Alpha
ENCODING 913
SWIDTH 573 0
DWIDTH 5 0
BBX 6 6 0 0
BITMAP
06F800
0ACD00
0E6F20
4F1E70
9FFFB0
D706F1
ENDCHAR
STARTCHAR Beta
ENCODING 914
SWIDTH 605 0
DWIDTH 5 0
BBX 6 6 0 0
BITMAP
5FFE60
5F0AC0
5FFF70
5F05E1
5F05F1
5FFE70
ENDCHAR
STARTCHAR Gamma
ENCODING 915
SWIDTH 521 0
DWIDTH 5 0
BBX 5 6 0 0
BITMAP
5FFF60
5F0000
5F0000
5F0000
5F0000
5F0000
ENDCHAR
STARTCHAR uni0394
ENCODING 916
SWIDTH 640 0
DWIDTH 6 0
BBX 6 6 0 0
BITMAP
01FD00
06BF30
0C7B80
2F37D0
7D02F3
AFFFF7
ENDCHAR
STARTCHAR Epsilon
ENCODING 917
SWIDTH 548 0
DWIDTH 5 0
BBX 5 6 0 0
BITMAP
5FFF50
5F0000
5FFF00
5F0000
5F0000
5FFF70
ENDCHAR
STARTCHAR Zeta
ENCODING 918
SWIDTH 541 0
DWIDTH 5 0
BBX 5 6 0 0
BITMAP
7FFF80
006F30
02E900
0AD100
5F4000
AFFF90
ENDCHAR
STARTCHAR Eta
ENCODING 919
SWIDTH 674 0
DWIDTH 6 0
BBX 6 6 0 0
BITMAP
5F00E6
5F00E6
5FFFF6
5F00E6
5F00E6
5F00E6
ENDCHAR
STARTCHAR Theta
ENCODING 920
SWIDTH 684 0
DWIDTH 6 0
BBX 6 6 0 0
BITMAP
07DE80
4F42E6
8CCEAA
8C00AA
4F42E6
07DE80
ENDCHAR
STARTCHAR Iota
ENCODING 921
SWIDTH 301 0
DWIDTH 3 0
BBX 2 6 0 0
BITMAP
5F
5F
5F
5F
5F
5F
ENDCHAR
STARTCHAR Kappa
ENCODING 922
SWIDTH 614 0
DWIDTH 6 0
BBX 6 6 0 0
BITMAP
5F08D1
5F4E30
5FEA00
5FCF20
5F1BB0
5F03F4
ENDCHAR
STARTCHAR Lambda
ENCODING 923
SWIDTH 556 0
DWIDTH 5 0
BBX 5 6 0 0
BITMAP
07F700
0BDB00
1F6F10
5E0E50
9A0B90
E607E0
ENDCHAR
STARTCHAR Mu
ENCODING 924
SWIDTH 762 0
DWIDTH 7 0
BBX 7 6 0 0
BITMAP
5F507F30
5FA0CF30
5CE3DE30
5DAC8F30
5D5F3F30
5D061F30
ENDCHAR
STARTCHAR Nu
ENCODING 925
SWIDTH 665 0
DWIDTH 6 0
BBX 6 6 0 0
BITMAP
5F50F4
5FC0F4
5DC5E4
5E5CD4
5E0CF4
5E05F4
ENDCHAR
STARTCHAR Xi
ENCODING 926
SWIDTH 571 0
DWIDTH 5 0
BBX 5 6 0 0
BITMAP
7FFF90
000000
0EFF10
000000
000000
8FFFA0
ENDCHAR
STARTCHAR Omicron
ENCODING 927
SWIDTH 684 0
DWIDTH 6 0
BBX 6 6 0 0
BITMAP
07DE80
4F42E6
8C00AA
8C00AA
4F42E6
07DE80
ENDCHAR
STARTCHAR Pi
ENCODING 928
SWIDTH 663 0
DWIDTH 6 0
BBX 6 6 0 0
BITMAP
5FFFF4
5F01F4
5F01F4
5F01F4
5F01F4
5F01F4
ENDCHAR
STARTCHAR Rho
ENCODING 929
SWIDTH 596 0
DWIDTH 5 0
BBX 5 6 0 0
BITMAP
5FFD60
5F07E0
5F07E0
5FFD50
5F0000
5F0000
ENDCHAR
STARTCHAR Sigma
ENCODING 931
SWIDTH 549 0
DWIDTH 5 0
BBX 5 6 0 0
BITMAP
9FFF60
2E6000
04E300
04E200
2E5000
AFFFA0
ENDCHAR
STARTCHAR Tau
ENCODING 932
SWIDTH 556 0
DWIDTH 5 0
BBX 5 6 0 0
BITMAP
CFFFC0
02F300
02F300
02F300
02F300
02F300
ENDCHAR
STARTCHAR Upsilon
ENCODING 933
SWIDTH 525 0
DWIDTH 5 0
BBX 5 6 0 0
BITMAP
D80C90
6E3F20
0ECA00
07F300
04F000
04F000
ENDCHAR
STARTCHAR Phi
ENCODING 934
SWIDTH 760 0
DWIDTH 7 0
BBX 7 6 0 0
BITMAP
003F0000
19EFE800
7D5F3E40
7D5F3E40
09EFE800
003F0000
ENDCHAR
STARTCHAR Chi
ENCODING 935
SWIDTH 567 0
DWIDTH 5 0
BBX 5 6 0 0
BITMAP
8D0BA0
1E7F20
07FA00
09FA00
2F6F30
AB0BB0
ENDCHAR
STARTCHAR Psi
ENCODING 936
SWIDTH 752 0
DWIDTH 7 0
BBX 7 6 0 0
BITMAP
8C4F0F40
8C4F0F40
5E6F6F10
08DFC500
004F0000
004F0000
ENDCHAR
STARTCHAR uni03A9
ENCODING 937
SWIDTH 711 0
DWIDTH 6 0
BBX 6 6 0 0
BITMAP
05DE91
2F52D8
6E008C
5F109B
1D72E5
9FC6FF
ENDCHAR
STARTCHAR Iotadieresis
ENCODING 938
SWIDTH 301 0
DWIDTH 3 0
BBX 4 7 -1 0
BITMAP
2B2B
05F0
05F0
05F0
05F0
05F0
05F0
ENDCHAR
STARTCHAR Upsilondieresis
ENCODING 939
SWIDTH 525 0
DWIDTH 5 0
BBX 5 7 0 0
BITMAP
2C2C00
D80C90
6E3F20
0ECA00
07F300
04F000
04F000
ENDCHAR
STARTCHAR alphatonos
ENCODING 940
SWIDTH 595 0
DWIDTH 5 0
BBX 6 8 0 0
BITMAP
001000
00A900
00B300
000000
2CEAD0
9C1D90
9C1D70
3DEAF3
ENDCHAR
STARTCHAR epsilontonos
ENCODING 941
SWIDTH 471 0
DWIDTH 4 0
BBX 4 8 0 0
BITMAP
0010
00E4
01D0
0000
4DFA
3FF3
9C12
4DFB
ENDCHAR
STARTCHAR etatonos
ENCODING 942
SWIDTH 562 0
DWIDTH 5 0
BBX 5 9 0 -1
BITMAP
001000
008A00
009500
000000
7CBE40
6F3C80
6E0B80
6E0C80
000C80
ENDCHAR
STARTCHAR iotatonos
ENCODING 943
SWIDTH 301 0
DWIDTH 3 0
BBX 3 8 0 0
BITMAP
0100
1F20
2C00
0000
6E00
6D00
6D00
3E80
ENDCHAR
STARTCHAR upsilondieresistonos
ENCODING 944
SWIDTH 532 0
DWIDTH 5 0
BBX 5 8 0 0
BITMAP
001000
00D000
388B00
000000
8B2F30
8B0E50
8C2F50
2CEA00
ENDCHAR
STARTCHAR alpha
ENCODING 945
SWIDTH 595 0
DWIDTH 5 0
BBX 6 4 0 0
BITMAP
2CEAD0
9C1D90
9C1D70
3DEAF3
ENDCHAR
STARTCHAR beta
ENCODING 946
SWIDTH 600 0
DWIDTH 5 0
BBX 5 7 0 -1
BITMAP
0AED30
5F2C80
6D5E30
6C3AD0
6E26F0
6ECE70
6D0000
ENDCHAR
STARTCHAR gamma
ENCODING 947
SWIDTH 533 0
DWIDTH 5 0
BBX 5 5 0 -1
BITMAP
AA0B80
2E3E30
09DA00
05F100
04F000
ENDCHAR
STARTCHAR delta
ENCODING 948
SWIDTH 548 0
DWIDTH 5 0
BBX 5 6 0 0
BITMAP
1CFD30
1E6310
0AFA00
7D2D70
8C1C70
2CEB10
ENDCHAR
STARTCHAR epsilon
ENCODING 949
SWIDTH 471 0
DWIDTH 4 0
BBX 4 4 0 0
BITMAP
4DFA
3FF3
9C12
4DFB
ENDCHAR
STARTCHAR zeta
ENCODING 950
SWIDTH 466 0
DWIDTH 4 0
BBX 4 7 0 -1
BITMAP
5FFE
03D5
1E50
8C00
8D10
2CFC
004C
ENDCHAR
STARTCHAR eta
ENCODING 951
SWIDTH 562 0
DWIDTH 5 0
BBX 5 5 0 -1
BITMAP
7CBE40
6F3C80
6E0B80
6E0C80
000C80
ENDCHAR
STARTCHAR theta
ENCODING 952
SWIDTH 549 0
DWIDTH 5 0
BBX 5 6 0 0
BITMAP
0AE900
5D1E40
8FFF70
8C0C70
5E2F40
0AE900
ENDCHAR
STARTCHAR iota
ENCODING 953
SWIDTH 301 0
DWIDTH 3 0
BBX 3 4 0 0
BITMAP
6E00
6D00
6D00
3E80
ENDCHAR
STARTCHAR kappa
ENCODING 954
SWIDTH 546 0
DWIDTH 5 0
BBX 5 4 0 0
BITMAP
7D1A70
6EC910
6FBB00
6D1D70
ENDCHAR
STARTCHAR lambda
ENCODING 955
SWIDTH 552 0
DWIDTH 5 0
BBX 5 6 0 0
BITMAP
8E9000
03F300
05F900
0BBE10
3F2E60
AB0AB0
ENDCHAR
STARTCHAR uni03BC
ENCODING 956
SWIDTH 594 0
DWIDTH 5 0
BBX 6 5 0 -1
BITMAP
6E0C80
6E0C70
6E2D80
6FEAF3
6D0000
ENDCHAR
STARTCHAR nu
ENCODING 957
SWIDTH 523 0
DWIDTH 5 0
BBX 5 4 0 0
BITMAP
B90D60
3F2F20
0CCB00
07F300
ENDCHAR
STARTCHAR xi
ENCODING 958
SWIDTH 469 0
DWIDTH 4 0
BBX 4 7 0 -1
BITMAP
DFFF
2F50
0CF8
7D10
8D20
2CFC
004C
ENDCHAR
STARTCHAR omicron
ENCODING 959
SWIDTH 553 0
DWIDTH 5 0
BBX 5 4 0 0
BITMAP
1BEB10
8D1D80
9D1D80
1BEB10
ENDCHAR
STARTCHAR pi
ENCODING 960
SWIDTH 635 0
DWIDTH 6 0
BBX 6 4 0 0
BITMAP
CFFFF8
0D59A0
0F49A0
2F35E6
ENDCHAR
STARTCHAR rho
ENCODING 961
SWIDTH 569 0
DWIDTH 5 0
BBX 5 5 0 -1
BITMAP
0AED30
5E2BA0
7D1BA0
7EED20
7D0000
ENDCHAR
STARTCHAR uni03C2
ENCODING 962
SWIDTH 446 0
DWIDTH 4 0
BBX 4 5 0 -1
BITMAP
1BE8
8D11
9D10
2CF7
0097
ENDCHAR
STARTCHAR sigma
ENCODING 963
SWIDTH 573 0
DWIDTH 5 0
BBX 6 4 0 0
BITMAP
2BFFF1
9C2D30
9D2E60
2CFB10
ENDCHAR
STARTCHAR tau
ENCODING 964
SWIDTH 492 0
DWIDTH 4 0
BBX 5 4 0 0
BITMAP
BFFF30
07C000
07C000
03EA00
ENDCHAR
STARTCHAR upsilon
ENCODING 965
SWIDTH 532 0
DWIDTH 5 0
BBX 5 4 0 0
BITMAP
8B2F30
8B0E50
8C2F50
2CEA00
ENDCHAR
STARTCHAR phi
ENCODING 966
SWIDTH 738 0
DWIDTH 7 0
BBX 7 7 0 -1
BITMAP
004E0000
004E0000
1AEFD600
8D6E4F30
8D6E4F30
1AEFD700
004E0000
ENDCHAR
STARTCHAR chi
ENCODING 967
SWIDTH 526 0
DWIDTH 5 0
BBX 5 5 0 -1
BITMAP
9B1E50
1DCA00
06F400
1DBC00
9B0C80
ENDCHAR
STARTCHAR psi
ENCODING 968
SWIDTH 752 0
DWIDTH 7 0
BBX 7 7 0 -1
BITMAP
004F0000
004F0000
8B4F2F20
8B4F0F50
6D4F4F30
1AEFE800
004F0000
ENDCHAR
STARTCHAR omega
ENCODING 969
SWIDTH 746 0
DWIDTH 7 0
BBX 7 4 0 0
BITMAP
4E104D10
9A4F1F40
8B6F2F40
2DE8EB00
ENDCHAR
STARTCHAR iotadieresis
ENCODING 970
SWIDTH 301 0
DWIDTH 3 0
BBX 4 6 -1 0
BITMAP
3A4A
0000
06E0
06D0
06D0
03E8
ENDCHAR
STARTCHAR upsilondieresis
ENCODING 971
SWIDTH 532 0
DWIDTH 5 0
BBX 5 6 0 0
BITMAP
2C2B00
000000
8B2F30
8B0E50
8C2F50
2CEA00
ENDCHAR
STARTCHAR omicrontonos
ENCODING 972
SWIDTH 553 0
DWIDTH 5 0
BBX 5 8 0 0
BITMAP
001000
00C700
00D200
000000
1BEB10
8D1D80
9D1D80
1BEB10
ENDCHAR
STARTCHAR upsilontonos
ENCODING 973
SWIDTH 532 0
DWIDTH 5 0
BBX 5 8 0 0
BITMAP
001000
00E400
01D000
000000
8B2F30
8B0E50
8C2F50
2CEA00
ENDCHAR
STARTCHAR omegatonos
ENCODING 974
SWIDTH 746 0
DWIDTH 7 0
BBX 7 8 0 0
BITMAP
00010000
000E4000
001D0000
00000000
4E104D10
9A4F1F40
8B6F2F40
2DE8EB00
ENDCHAR
STARTCHAR uni03D0
ENCODING 976
SWIDTH 592 0
DWIDTH 5 0
BBX 5 6 0 0
BITMAP
0AEC20
5E2D70
6ECE20
6E6BD0
4E27E0
09ED50
ENDCHAR
STARTCHAR uni03D1
ENCODING 977
SWIDTH 549 0
DWIDTH 5 0
BBX 5 6 0 0
BITMAP
2CE800
8C1E40
4EBE70
394D70
5E1E40
1CEA00
ENDCHAR
STARTCHAR uni03D5
ENCODING 981
SWIDTH 738 0
DWIDTH 7 0
BBX 7 5 0 -1
BITMAP
3C2AEA00
9C3E3F40
8D5E5F20
1AEFD600
004F0000
ENDCHAR
STARTCHAR uni03D7
ENCODING 983
SWIDTH 546 0
DWIDTH 5 0
BBX 5 5 0 -1
BITMAP
7D1A70
6ED910
6FCB00
6D1E80
003D60
ENDCHAR
STARTCHAR uni03D9
ENCODING 985
SWIDTH 553 0
DWIDTH 5 0
BBX 5 5 0 -1
BITMAP
1BEB10
8C1D80
9D1D80
2CFC20
02F300
ENDCHAR
STARTCHAR uni03DB
ENCODING 987
SWIDTH 490 0
DWIDTH 4 0
BBX 5 5 0 -1
BITMAP
1BEF30
9C1000
8D2000
1BFB00
005B00
ENDCHAR
STARTCHAR uni03DD
ENCODING 989
SWIDTH 433 0
DWIDTH 4 0
BBX 4 5 0 -1
BITMAP
6FFA
6C00
6FF7
6D00
6D00
ENDCHAR
STARTCHAR uni03E1
ENCODING 993
SWIDTH 536 0
DWIDTH 5 0
BBX 5 8 0 -2
BITMAP
1B3000
1AE200
01EB00
8ECF30
544E80
0CED90
0519A0
000A90
ENDCHAR
STARTCHAR uni0400
ENCODING 1024
SWIDTH 548 0
DWIDTH 5 0
BBX 5 8 0 0
BITMAP
095000
03C100
5FFF50
5F0000
5FFF00
5F0000
5F0000
5FFF70
ENDCHAR
STARTCHAR uni0401
ENCODING 1025
SWIDTH 548 0
DWIDTH 5 0
BBX 5 7 0 0
BITMAP
0C1C10
5FFF50
5F0000
5FFF00
5F0000
5F0000
5FFF70
ENDCHAR
STARTCHAR uni0402
ENCODING 1026
SWIDTH 701 0
DWIDTH 6 0
BBX 6 6 0 0
BITMAP
CFFFD0
05F000
05FFD4
05F08D
05F07D
05F4E6
ENDCHAR
STARTCHAR uni0403
ENCODING 1027
SWIDTH 521 0
DWIDTH 5 0
BBX 5 8 0 0
BITMAP
003B10
00B600
5FFF60
5F0000
5F0000
5F0000
5F0000
5F0000
ENDCHAR
STARTCHAR uni0404
ENCODING 1028
SWIDTH 582 0
DWIDTH 5 0
BBX 5 6 0 0
BITMAP
06DE80
3E3130
8FFC00
8D0000
4F4140
07DE90
ENDCHAR
STARTCHAR uni0405
ENCODING 1029
SWIDTH 556 0
DWIDTH 5 0
BBX 5 6 0 0
BITMAP
1AEC30
6F1410
3FC500
03AF70
251C90
4CEC20
ENDCHAR
STARTCHAR uni0406
ENCODING 1030
SWIDTH 301 0
DWIDTH 3 0
BBX 2 6 0 0
BITMAP
5F
5F
5F
5F
5F
5F
ENDCHAR
STARTCHAR uni0407
ENCODING 1031
SWIDTH 301 0
DWIDTH 3 0
BBX 4 7 -1 0
BITMAP
2B2B
05F0
05F0
05F0
05F0
05F0
05F0
ENDCHAR
STARTCHAR uni0408
ENCODING 1032
SWIDTH 509 0
DWIDTH 5 0
BBX 4 6 0 0
BITMAP
006E
006E
006E
006E
338C
6EE4
ENDCHAR
STARTCHAR uni0409
ENCODING 1033
SWIDTH 920 0
DWIDTH 8 0
BBX 8 6 0 0
BITMAP
02FFF300
05D3F300
08A3FFD5
0B83F38D
1E43F38D
DB03FFD4
ENDCHAR
STARTCHAR uni040A
ENCODING 1034
SWIDTH 933 0
DWIDTH 8 0
BBX 8 6 0 0
BITMAP
5F01F400
5F01F400
5FFFFFD6
5F01F46E
5F01F47E
5F01FFD5
ENDCHAR
STARTCHAR uni040B
ENCODING 1035
SWIDTH 718 0
DWIDTH 6 0
BBX 6 6 0 0
BITMAP
CFFFD0
05F000
05FFD4
05F08C
05F06E
05F06E
ENDCHAR
STARTCHAR uni040C
ENCODING 1036
SWIDTH 622 0
DWIDTH 6 0
BBX 6 8 0 0
BITMAP
000950
005A10
5F04E5
5F2E50
5FFD00
5F2F40
5F08C0
5F01E5
ENDCHAR
STARTCHAR uni040D
ENCODING 1037
SWIDTH 676 0
DWIDTH 6 0
BBX 6 8 0 0
BITMAP
03B100
018700
5F04F6
5F0CF6
5F4DD6
5EC6D6
5FD0E6
5F50E6
ENDCHAR
STARTCHAR uni040E
ENCODING 1038
SWIDTH 555 0
DWIDTH 5 0
BBX 5 8 0 0
BITMAP
0E4F20
07E900
B907D0
4E1C70
0C8F10
05FA00
02F400
3F9000
ENDCHAR
STARTCHAR uni040F
ENCODING 1039
SWIDTH 663 0
DWIDTH 6 0
BBX 6 7 0 -1
BITMAP
5F01F4
5F01F4
5F01F4
5F01F4
5F01F4
5FFFF4
009A00
ENDCHAR
STARTCHAR uni0410
ENCODING 1040
SWIDTH 573 0
DWIDTH 5 0
BBX 6 6 0 0
BITMAP
06F800
0ACD00
0E6F20
4F1E70
9FFFB0
D706F1
ENDCHAR
STARTCHAR uni0411
ENCODING 1041
SWIDTH 600 0
DWIDTH 5 0
BBX 5 6 0 0
BITMAP
5FFFB0
5F0000
5FA930
5F5AE0
5F06F0
5FFE60
ENDCHAR
STARTCHAR uni0412
ENCODING 1042
SWIDTH 605 0
DWIDTH 5 0
BBX 6 6 0 0
BITMAP
5FFE60
5F0AC0
5FFF70
5F05E1
5F05F1
5FFE70
ENDCHAR
STARTCHAR uni0413
ENCODING 1043
SWIDTH 521 0
DWIDTH 5 0
BBX 5 6 0 0
BITMAP
5FFF60
5F0000
5F0000
5F0000
5F0000
5F0000
ENDCHAR
STARTCHAR uni0414
ENCODING 1044
SWIDTH 670 0
DWIDTH 6 0
BBX 6 7 0 -1
BITMAP
06FFF3
08A2F3
0B72F3
0E42F3
4E12F3
DFFFFE
C6006D
ENDCHAR
STARTCHAR uni0415
ENCODING 1045
SWIDTH 548 0
DWIDTH 5 0
BBX 5 6 0 0
BITMAP
5FFF50
5F0000
5FFF00
5F0000
5F0000
5FFF70
ENDCHAR
STARTCHAR uni0416
ENCODING 1046
SWIDTH 868 0
DWIDTH 8 0
BBX 8 6 0 0
BITMAP
CB0B82C9
0C7B8A90
06FFFF30
0C7B8A90
4F1B84F2
BA0B80C8
ENDCHAR
STARTCHAR uni0417
ENCODING 1047
SWIDTH 564 0
DWIDTH 5 0
BBX 5 6 0 0
BITMAP
3CFC20
041E60
05FE20
000AA0
241BA0
4DFC20
ENDCHAR
STARTCHAR uni0418
ENCODING 1048
SWIDTH 676 0
DWIDTH 6 0
BBX 6 6 0 0
BITMAP
5F04F6
5F0CF6
5F4DD6
5EC6D6
5FD0E6
5F50E6
ENDCHAR
STARTCHAR uni0419
ENCODING 1049
SWIDTH 676 0
DWIDTH 6 0
BBX 6 8 0 0
BITMAP
07B890
02DE30
5F04F6
5F0CF6
5F4DD6
5EC6D6
5FD0E6
5F50E6
ENDCHAR
STARTCHAR uni041A
ENCODING 1050
SWIDTH 622 0
DWIDTH 6 0
BBX 6 6 0 0
BITMAP
5F04E5
5F2E50
5FFD00
5F2F40
5F08C0
5F01E5
ENDCHAR
STARTCHAR uni041B
ENCODING 1051
SWIDTH 657 0
DWIDTH 6 0
BBX 6 6 0 0
BITMAP
04FFF4
07B2F4
0A82F4
0D62F4
2F22F4
E902F4
ENDCHAR
STARTCHAR uni041C
ENCODING 1052
SWIDTH 762 0
DWIDTH 7 0
BBX 7 6 0 0
BITMAP
5F507F30
5FA0CF30
5CE3DE30
5DAC8F30
5D5F3F30
5D061F30
ENDCHAR
STARTCHAR uni041D
ENCODING 1053
SWIDTH 674 0
DWIDTH 6 0
BBX 6 6 0 0
BITMAP
5F00E6
5F00E6
5FFFF6
5F00E6
5F00E6
5F00E6
ENDCHAR
STARTCHAR uni041E
ENCODING 1054
SWIDTH 684 0
DWIDTH 6 0
BBX 6 6 0 0
BITMAP
07DE80
4F42E6
8C00AA
8C00AA
4F42E6
07DE80
ENDCHAR
STARTCHAR uni041F
ENCODING 1055
SWIDTH 663 0
DWIDTH 6 0
BBX 6 6 0 0
BITMAP
5FFFF4
5F01F4
5F01F4
5F01F4
5F01F4
5F01F4
ENDCHAR
STARTCHAR uni0420
ENCODING 1056
SWIDTH 596 0
DWIDTH 5 0
BBX 5 6 0 0
BITMAP
5FFD60
5F07E0
5F07E0
5FFD50
5F0000
5F0000
ENDCHAR
STARTCHAR uni0421
ENCODING 1057
SWIDTH 582 0
DWIDTH 5 0
BBX 5 6 0 0
BITMAP
05DE80
3F5130
8D0000
8C0000
4F4140
06DE90
ENDCHAR
STARTCHAR uni0422
ENCODING 1058
SWIDTH 556 0
DWIDTH 5 0
BBX 5 6 0 0
BITMAP
CFFFC0
02F300
02F300
02F300
02F300
02F300
ENDCHAR
STARTCHAR uni0423
ENCODING 1059
SWIDTH 555 0
DWIDTH 5 0
BBX 5 6 0 0
BITMAP
B907D0
4E1C70
0C8F10
05FA00
02F400
3F9000
ENDCHAR
STARTCHAR uni0424
ENCODING 1060
SWIDTH 764 0
DWIDTH 7 0
BBX 7 6 0 0
BITMAP
002F0000
1AEFE900
7C4F2E50
7C4F2E50
1AEFE900
002F0000
ENDCHAR
STARTCHAR uni0425
ENCODING 1061
SWIDTH 567 0
DWIDTH 5 0
BBX 5 6 0 0
BITMAP
8D0BA0
1E7F20
07FA00
09FA00
2F6F30
AB0BB0
ENDCHAR
STARTCHAR uni0426
ENCODING 1062
SWIDTH 669 0
DWIDTH 6 0
BBX 6 7 0 -1
BITMAP
5F02F3
5F02F3
5F02F3
5F02F3
5F02F3
5FFFFE
00006D
ENDCHAR
STARTCHAR uni0427
ENCODING 1063
SWIDTH 630 0
DWIDTH 6 0
BBX 5 6 0 0
BITMAP
7D05F0
7D05F0
5E26F0
0AEFF0
0005F0
0005F0
ENDCHAR
STARTCHAR uni0428
ENCODING 1064
SWIDTH 910 0
DWIDTH 8 0
BBX 8 6 0 0
BITMAP
5F08B0C8
5F08B0C8
5F08B0C8
5F08B0C8
5F08B0C8
5FFFFFF8
ENDCHAR
STARTCHAR uni0429
ENCODING 1065
SWIDTH 926 0
DWIDTH 8 0
BBX 9 7 0 -1
BITMAP
5F08B0C800
5F08B0C800
5F08B0C800
5F08B0C800
5F08B0C800
5FFFFFFF30
0000001F20
ENDCHAR
STARTCHAR uni042A
ENCODING 1066
SWIDTH 730 0
DWIDTH 7 0
BBX 7 6 0 0
BITMAP
CFF40000
01F40000
01FFE700
01F44F20
01F44F20
01FFE700
ENDCHAR
STARTCHAR uni042B
ENCODING 1067
SWIDTH 853 0
DWIDTH 8 0
BBX 7 6 0 0
BITMAP
5F0005F0
5F0005F0
5FFD45F0
5F09C5F0
5F19C5F0
5FFD45F0
ENDCHAR
STARTCHAR uni042C
ENCODING 1068
SWIDTH 600 0
DWIDTH 5 0
BBX 5 6 0 0
BITMAP
5F0000
5F0000
5FFD60
5F06E0
5F07E0
5FFD50
ENDCHAR
STARTCHAR uni042D
ENCODING 1069
SWIDTH 582 0
DWIDTH 5 0
BBX 5 6 0 0
BITMAP
5DE900
232C70
08FFB0
0009B0
332E70
6DE910
ENDCHAR
STARTCHAR uni042E
ENCODING 1070
SWIDTH 950 0
DWIDTH 9 0
BBX 9 6 0 0
BITMAP
5F03CEC300
5F0CB1AC00
5FFF504F10
5F0D504F10
5F09B1AC00
5F01AEC200
ENDCHAR
STARTCHAR uni042F
ENCODING 1071
SWIDTH 617 0
DWIDTH 6 0
BBX 5 6 0 0
BITMAP
1BFFD0
6D17D0
6E17D0
1BFFD0
0C87D0
8D17D0
ENDCHAR
STARTCHAR uni0430
ENCODING 1072
SWIDTH 527 0
DWIDTH 5 0
BBX 5 4 0 0
BITMAP
3CEA00
2DEF30
8C5F30
4ECE30
ENDCHAR
STARTCHAR uni0431
ENCODING 1073
SWIDTH 561 0
DWIDTH 5 0
BBX 5 7 0 0
BITMAP
000110
06DF50
4E4000
8EED30
9C1C90
6C1D80
1AEB10
ENDCHAR
STARTCHAR uni0432
ENCODING 1074
SWIDTH 528 0
DWIDTH 5 0
BBX 5 4 0 0
BITMAP
6FFD20
6FFD10
6D1E60
6FFC20
ENDCHAR
STARTCHAR uni0433
ENCODING 1075
SWIDTH 432 0
DWIDTH 4 0
BBX 4 4 0 0
BITMAP
6FFA
6E00
6E00
6E00
ENDCHAR
STARTCHAR uni0434
ENCODING 1076
SWIDTH 584 0
DWIDTH 5 0
BBX 6 5 0 -1
BITMAP
0EFF70
1F1D70
5D0D70
EFFFF2
C602F1
ENDCHAR
STARTCHAR uni0435
ENCODING 1077
SWIDTH 518 0
DWIDTH 5 0
BBX 5 4 0 0
BITMAP
1BEB10
8FFF40
9C1200
2BEC00
ENDCHAR
STARTCHAR uni0436
ENCODING 1078
SWIDTH 761 0
DWIDTH 7 0
BBX 7 4 0 0
BITMAP
9C4D3D70
0BFFF900
2F5F5E10
AB3F0D80
ENDCHAR
STARTCHAR uni0437
ENCODING 1079
SWIDTH 476 0
DWIDTH 4 0
BBX 4 4 0 0
BITMAP
6EE8
1CF8
218E
6EE7
ENDCHAR
STARTCHAR uni0438
ENCODING 1080
SWIDTH 583 0
DWIDTH 5 0
BBX 5 4 0 0
BITMAP
6D1DA0
6D9EA0
6EC9A0
6F39A0
ENDCHAR
STARTCHAR uni0439
ENCODING 1081
SWIDTH 583 0
DWIDTH 5 0
BBX 5 7 0 0
BITMAP
0C5E20
06EA00
000000
6D1DA0
6D9EA0
6EC9A0
6F39A0
ENDCHAR
STARTCHAR uni043A
ENCODING 1082
SWIDTH 546 0
DWIDTH 5 0
BBX 5 4 0 0
BITMAP
6C4D60
6FF800
6E6E10
6E0D80
ENDCHAR
STARTCHAR uni043B
ENCODING 1083
SWIDTH 573 0
DWIDTH 5 0
BBX 5 4 0 0
BITMAP
0CFF90
0E4B90
1F1B90
CA0A80
ENDCHAR
STARTCHAR uni043C
ENCODING 1084
SWIDTH 660 0
DWIDTH 6 0
BBX 6 4 0 0
BITMAP
6F45F5
6DABD5
6BDCC5
6B55C5
ENDCHAR
STARTCHAR uni043D
ENCODING 1085
SWIDTH 582 0
DWIDTH 5 0
BBX 5 4 0 0
BITMAP
6E0AA0
6FFFA0
6E0AA0
6E0AA0
ENDCHAR
STARTCHAR uni043E
ENCODING 1086
SWIDTH 555 0
DWIDTH 5 0
BBX 5 4 0 0
BITMAP
1BEB10
8D1D80
9D1D80
1BEB10
ENDCHAR
STARTCHAR uni043F
ENCODING 1087
SWIDTH 574 0
DWIDTH 5 0
BBX 5 4 0 0
BITMAP
6FFF90
6E0B90
6E0B90
6E0B90
ENDCHAR
STARTCHAR uni0440
ENCODING 1088
SWIDTH 573 0
DWIDTH 5 0
BBX 5 6 0 -2
BITMAP
6DDE40
6E2BB0
6E1BA0
6EDD30
6E0000
6E0000
ENDCHAR
STARTCHAR uni0441
ENCODING 1089
SWIDTH 467 0
DWIDTH 4 0
BBX 4 4 0 0
BITMAP
1BEA
8D11
9D12
2BEA
ENDCHAR
STARTCHAR uni0442
ENCODING 1090
SWIDTH 492 0
DWIDTH 4 0
BBX 5 4 0 0
BITMAP
CFFF30
07D000
07D000
07D000
ENDCHAR
STARTCHAR uni0443
ENCODING 1091
SWIDTH 521 0
DWIDTH 5 0
BBX 5 6 0 -2
BITMAP
A90D60
4E2F10
0DAA00
07F500
05E000
6E5000
ENDCHAR
STARTCHAR uni0444
ENCODING 1092
SWIDTH 779 0
DWIDTH 7 0
BBX 7 8 0 -2
BITMAP
002F2000
002F2000
2CEFED30
8C3F3C90
9C3F3C80
2DEFEC20
002F2000
002F2000
ENDCHAR
STARTCHAR uni0445
ENCODING 1093
SWIDTH 514 0
DWIDTH 5 0
BBX 5 4 0 0
BITMAP
7D3E20
0CE700
0DE700
8B4E30
ENDCHAR
STARTCHAR uni0446
ENCODING 1094
SWIDTH 595 0
DWIDTH 5 0
BBX 6 5 0 -1
BITMAP
6E0C80
6E0C80
6E0C80
6FFFF4
0000F3
ENDCHAR
STARTCHAR uni0447
ENCODING 1095
SWIDTH 550 0
DWIDTH 5 0
BBX 5 4 0 0
BITMAP
8B0E50
8D1E50
3DFF50
000E50
ENDCHAR
STARTCHAR uni0448
ENCODING 1096
SWIDTH 803 0
DWIDTH 7 0
BBX 7 4 0 0
BITMAP
6D0F4AA0
6D0F4AA0
6D0F4AA0
6FFFFFA0
ENDCHAR
STARTCHAR uni0449
ENCODING 1097
SWIDTH 829 0
DWIDTH 7 0
BBX 8 5 0 -1
BITMAP
6D0F4AA0
6D0F4AA0
6D0F4AA0
6FFFFFF5
000000E4
ENDCHAR
STARTCHAR uni044A
ENCODING 1098
SWIDTH 623 0
DWIDTH 6 0
BBX 6 4 0 0
BITMAP
CFD000
06FFB1
06D2F3
06FFB1
ENDCHAR
STARTCHAR uni044B
ENCODING 1099
SWIDTH 739 0
DWIDTH 7 0
BBX 7 4 0 0
BITMAP
6E004F10
6FFA4F10
6E5F5F10
6FFA4F10
ENDCHAR
STARTCHAR uni044C
ENCODING 1100
SWIDTH 516 0
DWIDTH 5 0
BBX 5 4 0 0
BITMAP
6E0000
6FFB10
6E2F40
6FFB10
ENDCHAR
STARTCHAR uni044D
ENCODING 1101
SWIDTH 467 0
DWIDTH 4 0
BBX 4 4 0 0
BITMAP
7ED3
1EFC
119C
8ED4
ENDCHAR
STARTCHAR uni044E
ENCODING 1102
SWIDTH 776 0
DWIDTH 7 0
BBX 7 4 0 0
BITMAP
6E2CFC20
6FFE1D80
6E4E1D80
6E09EC20
ENDCHAR
STARTCHAR uni044F
ENCODING 1103
SWIDTH 544 0
DWIDTH 5 0
BBX 5 4 0 0
BITMAP
2CFF50
6E1F50
1DFF50
6E2F50
ENDCHAR
STARTCHAR uni0450
ENCODING 1104
SWIDTH 518 0
DWIDTH 5 0
BBX 5 7 0 0
BITMAP
1B3000
05A000
000000
1BEB10
8FFF40
9C1200
2BEC00
ENDCHAR
STARTCHAR uni0451
ENCODING 1105
SWIDTH 518 0
DWIDTH 5 0
BBX 5 6 0 0
BITMAP
1D2C00
000000
1BEB10
8FFF40
9C1200
2BEC00
ENDCHAR
STARTCHAR uni0452
ENCODING 1106
SWIDTH 572 0
DWIDTH 5 0
BBX 5 8 0 -2
BITMAP
6E0000
FFF600
6E0000
6EDE40
6E1BB0
6E09C0
000C90
00DC20
ENDCHAR
STARTCHAR uni0453
ENCODING 1107
SWIDTH 432 0
DWIDTH 4 0
BBX 4 7 0 0
BITMAP
0078
02C2
0000
6FFA
6E00
6E00
6E00
ENDCHAR
STARTCHAR uni0454
ENCODING 1108
SWIDTH 467 0
DWIDTH 4 0
BBX 4 4 0 0
BITMAP
1BEA
9FF3
9C12
2CEA
ENDCHAR
STARTCHAR uni0455
ENCODING 1109
SWIDTH 443 0
DWIDTH 4 0
BBX 4 4 0 0
BITMAP
4DE6
7D72
36C9
7EE5
ENDCHAR
STARTCHAR uni0456
ENCODING 1110
SWIDTH 276 0
DWIDTH 2 0
BBX 2 7 0 0
BITMAP
14
5C
00
6E
6E
6E
6E
ENDCHAR
STARTCHAR uni0457
ENCODING 1111
SWIDTH 276 0
DWIDTH 2 0
BBX 4 6 -1 0
BITMAP
3A4A
0000
06E0
06E0
06E0
06E0
ENDCHAR
STARTCHAR uni0458
ENCODING 1112
SWIDTH 278 0
DWIDTH 3 0
BBX 3 9 -1 -2
BITMAP
0140
05D0
0000
06E0
06E0
06E0
06E0
07D0
5E70
ENDCHAR
STARTCHAR uni0459
ENCODING 1113
SWIDTH 780 0
DWIDTH 7 0
BBX 7 4 0 0
BITMAP
0CFF6000
0D5DFD40
2F2D7BA0
CA0DFD40
ENDCHAR
STARTCHAR uni045A
ENCODING 1114
SWIDTH 788 0
DWIDTH 7 0
BBX 7 4 0 0
BITMAP
6E0C8000
6FFFFE50
6E0C8AB0
6E0CFE50
ENDCHAR
STARTCHAR uni045B
ENCODING 1115
SWIDTH 571 0
DWIDTH 5 0
BBX 5 6 0 0
BITMAP
6E0000
FFF600
6E1100
6EDF60
6E0B90
6E0B90
ENDCHAR
STARTCHAR uni045C
ENCODING 1116
SWIDTH 546 0
DWIDTH 5 0
BBX 5 7 0 0
BITMAP
002B20
009600
000000
6C4D60
6FF800
6E6E10
6E0D80
ENDCHAR
STARTCHAR uni045D
ENCODING 1117
SWIDTH 583 0
DWIDTH 5 0
BBX 5 7 0 0
BITMAP
0A5000
03C100
000000
6D1DA0
6D9EA0
6EC9A0
6F39A0
ENDCHAR
STARTCHAR uni045E
ENCODING 1118
SWIDTH 521 0
DWIDTH 5 0
BBX 5 9 0 -2
BITMAP
1E4D00
09E600
000000
A90D60
4E2F10
0DAA00
07F500
05E000
6E5000
ENDCHAR
STARTCHAR uni045F
ENCODING 1119
SWIDTH 578 0
DWIDTH 5 0
BBX 5 5 0 -1
BITMAP
6E0B90
6E0B90
6E0B90
6FFF90
00F300
ENDCHAR
STARTCHAR uni0462
ENCODING 1122
SWIDTH 624 0
DWIDTH 6 0
BBX 6 6 0 0
BITMAP
098000
CFFF80
0BFE90
0B93F3
0B93F2
0BFE80
ENDCHAR
STARTCHAR uni0463
ENCODING 1123
SWIDTH 600 0
DWIDTH 5 0
BBX 5 6 0 0
BITMAP
078000
CFFF40
09B000
09FE90
09B5F0
09FE90
ENDCHAR
STARTCHAR uni0472
ENCODING 1138
SWIDTH 684 0
DWIDTH 6 0
BBX 6 6 0 0
BITMAP
07EE90
4E32D6
8FFFFA
8D00AA
4F43E6
07EE90
ENDCHAR
STARTCHAR uni0473
ENCODING 1139
SWIDTH 555 0
DWIDTH 5 0
BBX 5 4 0 0
BITMAP
1BEB10
9FFF80
9C2C80
2BEB20
ENDCHAR
STARTCHAR uni0474
ENCODING 1140
SWIDTH 574 0
DWIDTH 5 0
BBX 6 6 0 0
BITMAP
E704E5
9B0A80
5E0E40
1F6E00
0BDB00
07F700
ENDCHAR
STARTCHAR uni0475
ENCODING 1141
SWIDTH 533 0
DWIDTH 5 0
BBX 5 4 0 0
BITMAP
B90AD0
5D3E10
0EAA00
09F500
ENDCHAR
STARTCHAR uni0490
ENCODING 1168
SWIDTH 521 0
DWIDTH 5 0
BBX 5 8 0 0
BITMAP
000B70
000C70
5FFF60
5F0000
5F0000
5F0000
5F0000
5F0000
ENDCHAR
STARTCHAR uni0491
ENCODING 1169
SWIDTH 433 0
DWIDTH 4 0
BBX 4 6 0 0
BITMAP
0036
007B
6FFA
6E00
6E00
6E00
ENDCHAR
STARTCHAR uni0492
ENCODING 1170
SWIDTH 546 0
DWIDTH 5 0
BBX 5 6 0 0
BITMAP
1FFF90
1F4000
CFF500
1F4000
1F4000
1F4000
ENDCHAR
STARTCHAR uni0493
ENCODING 1171
SWIDTH 457 0
DWIDTH 4 0
BBX 4 4 0 0
BITMAP
3FFD
BFF3
3F20
3F20
ENDCHAR
STARTCHAR uni0496
ENCODING 1174
SWIDTH 905 0
DWIDTH 8 0
BBX 8 7 0 -1
BITMAP
CB0B82C9
0C7B8A90
06FFFF30
0C7B8A80
4F1B84E1
BA0B80CF
0000004E
ENDCHAR
STARTCHAR uni0497
ENCODING 1175
SWIDTH 803 0
DWIDTH 7 0
BBX 8 5 0 -1
BITMAP
9C4F3D70
0BFFF900
2F5F5D00
AB3F0DF2
000002F1
ENDCHAR
STARTCHAR uni0498
ENCODING 1176
SWIDTH 564 0
DWIDTH 5 0
BBX 5 7 0 -1
BITMAP
3CFC20
041E60
05FE20
000AA0
241BA0
5DFD30
01F300
ENDCHAR
STARTCHAR uni0499
ENCODING 1177
SWIDTH 476 0
DWIDTH 4 0
BBX 4 5 0 -1
BITMAP
6EE7
1CF8
218C
7FF9
08A0
ENDCHAR
STARTCHAR uni049A
ENCODING 1178
SWIDTH 667 0
DWIDTH 6 0
BBX 6 7 0 -1
BITMAP
5F04E5
5F2E50
5FFD00
5F2F30
5F08B0
5F01ED
00006C
ENDCHAR
STARTCHAR uni049B
ENCODING 1179
SWIDTH 588 0
DWIDTH 5 0
BBX 6 5 0 -1
BITMAP
6E4D60
6FF800
6E6D00
6E0DF3
0001F2
ENDCHAR
STARTCHAR uni04A0
ENCODING 1184
SWIDTH 749 0
DWIDTH 7 0
BBX 7 6 0 0
BITMAP
CFF32D80
02F3C700
02FFE100
02F3D800
02F34F20
01810650
ENDCHAR
STARTCHAR uni04A1
ENCODING 1185
SWIDTH 656 0
DWIDTH 6 0
BBX 6 4 0 0
BITMAP
CFD4E6
06FF80
06D6E1
06D0D8
ENDCHAR
STARTCHAR uni04A2
ENCODING 1186
SWIDTH 689 0
DWIDTH 6 0
BBX 7 7 0 -1
BITMAP
5F00E600
5F00E600
5FFFF600
5F00E600
5F00E600
5F00EF10
00003F00
ENDCHAR
STARTCHAR uni04A3
ENCODING 1187
SWIDTH 608 0
DWIDTH 5 0
BBX 6 5 0 -1
BITMAP
6E0AA0
6FFFA0
6E0AA0
6E0AF5
0000D4
ENDCHAR
STARTCHAR uni04AA
ENCODING 1194
SWIDTH 582 0
DWIDTH 5 0
BBX 5 7 0 -1
BITMAP
05DE80
3F5130
8D0000
8C0000
4F4140
07EFA0
007B00
ENDCHAR
STARTCHAR uni04AB
ENCODING 1195
SWIDTH 467 0
DWIDTH 4 0
BBX 4 5 0 -1
BITMAP
1BEA
8D11
9D12
2DFB
02F1
ENDCHAR
STARTCHAR uni04AE
ENCODING 1198
SWIDTH 525 0
DWIDTH 5 0
BBX 5 6 0 0
BITMAP
D80C90
6E3F20
0ECA00
07F300
04F000
04F000
ENDCHAR
STARTCHAR uni04AF
ENCODING 1199
SWIDTH 523 0
DWIDTH 5 0
BBX 5 6 0 -2
BITMAP
A90C60
4D2E10
0D8900
07F400
04F100
04F100
ENDCHAR
STARTCHAR uni04B0
ENCODING 1200
SWIDTH 525 0
DWIDTH 5 0
BBX 5 6 0 0
BITMAP
C80C80
5E3E10
0CC800
8FFF40
04F000
04F000
ENDCHAR
STARTCHAR uni04B1
ENCODING 1201
SWIDTH 523 0
DWIDTH 5 0
BBX 5 6 0 -2
BITMAP
A90C60
4D2E10
0D8900
5DFB20
04F100
04F100
ENDCHAR
STARTCHAR uni04B2
ENCODING 1202
SWIDTH 605 0
DWIDTH 5 0
BBX 6 7 0 -1
BITMAP
8D0BA0
1E7F20
08FA00
08FA00
2F6F20
AB0BF5
0000E4
ENDCHAR
STARTCHAR uni04B3
ENCODING 1203
SWIDTH 548 0
DWIDTH 5 0
BBX 5 5 0 -1
BITMAP
7D3E20
0CE700
0DE700
8B4FC0
0006B0
ENDCHAR
STARTCHAR uni04B6
ENCODING 1206
SWIDTH 645 0
DWIDTH 6 0
BBX 6 7 0 -1
BITMAP
7D05F0
7D05F0
5E26F0
0AEFF0
0005F0
0005FA
000099
ENDCHAR
STARTCHAR uni04B7
ENCODING 1207
SWIDTH 575 0
DWIDTH 5 0
BBX 6 6 0 -2
BITMAP
8B0E50
8D1E50
3DFF50
000EF1
0003F1
0003F0
ENDCHAR
STARTCHAR uni04BA
ENCODING 1210
SWIDTH 630 0
DWIDTH 6 0
BBX 6 6 0 0
BITMAP
5F0000
5F0000
5FFE60
5F16F0
5F03F2
5F03F2
ENDCHAR
STARTCHAR uni04BB
ENCODING 1211
SWIDTH 571 0
DWIDTH 5 0
BBX 5 6 0 0
BITMAP
6E0000
6E0000
6ECE40
6E2C90
6E0B90
6E0B90
ENDCHAR
STARTCHAR uni04C0
ENCODING 1216
SWIDTH 301 0
DWIDTH 3 0
BBX 2 6 0 0
BITMAP
5F
5F
5F
5F
5F
5F
ENDCHAR
STARTCHAR uni04C1
ENCODING 1217
SWIDTH 868 0
DWIDTH 8 0
BBX 8 8 0 0
BITMAP
0098B700
003ED200
CB0B82C9
0C7B8A90
06FFFF30
0C7B8A90
4F1B84F2
BA0B80C8
ENDCHAR
STARTCHAR uni04C2
ENCODING 1218
SWIDTH 761 0
DWIDTH 7 0
BBX 7 7 0 0
BITMAP
01F4E000
009E7000
00000000
9C4D3D70
0BFFF900
2F5F5E10
AB3F0D80
ENDCHAR
STARTCHAR uni04CF
ENCODING 1231
SWIDTH 286 0
DWIDTH 3 0
BBX 3 6 0 0
BITMAP
6E00
6E00
6E00
6E00
6E00
3E60
ENDCHAR
STARTCHAR uni04D0
ENCODING 1232
SWIDTH 573 0
DWIDTH 5 0
BBX 6 8 0 0
BITMAP
0E4F20
07E900
06F800
0ACD00
0E6F20
4F1E70
9FFFB0
D706F1
ENDCHAR
STARTCHAR uni04D1
ENCODING 1233
SWIDTH 527 0
DWIDTH 5 0
BBX 5 7 0 0
BITMAP
0F3E00
08E700
000000
3CEA00
2DEF30
8C5F30
4ECE30
ENDCHAR
STARTCHAR uni04D4
ENCODING 1236
SWIDTH 845 0
DWIDTH 8 0
BBX 8 6 0 0
BITMAP
009FFFF1
01ECC000
08E8FFB0
1E88C000
6FFFC000
D908FFF2
ENDCHAR
STARTCHAR uni04D5
ENCODING 1237
SWIDTH 786 0
DWIDTH 7 0
BBX 7 4 0 0
BITMAP
3CE9DD40
2DEFFFA0
8D4F6210
4ED8EE50
ENDCHAR
STARTCHAR uni04D6
ENCODING 1238
SWIDTH 548 0
DWIDTH 5 0
BBX 5 8 0 0
BITMAP
0E4F20
07EA00
5FFF50
5F0000
5FFF00
5F0000
5F0000
5FFF70
ENDCHAR
STARTCHAR uni04D7
ENCODING 1239
SWIDTH 518 0
DWIDTH 5 0
BBX 5 7 0 0
BITMAP
1F4E00
09E700
000000
1BEB10
8FFF40
9C1200
2BEC00
ENDCHAR
STARTCHAR uni04D8
ENCODING 1240
SWIDTH 675 0
DWIDTH 6 0
BBX 6 6 0 0
BITMAP
08EE80
0423F5
0000B9
8FFFF9
5E22D5
08EE80
ENDCHAR
STARTCHAR uni04D9
ENCODING 1241
SWIDTH 518 0
DWIDTH 5 0
BBX 5 4 0 0
BITMAP
3DE800
023F30
AFFF40
4DE800
ENDCHAR
STARTCHAR uni04E2
ENCODING 1250
SWIDTH 676 0
DWIDTH 6 0
BBX 6 7 0 0
BITMAP
04FF70
5F04F6
5F0CF6
5F4DD6
5EC6D6
5FD0E6
5F50E6
ENDCHAR
STARTCHAR uni04E3
ENCODING 1251
SWIDTH 583 0
DWIDTH 5 0
BBX 5 6 0 0
BITMAP
0AFF00
000000
6D1DA0
6D9EA0
6EC9A0
6F39A0
ENDCHAR
STARTCHAR uni04E6
ENCODING 1254
SWIDTH 684 0
DWIDTH 6 0
BBX 6 7 0 0
BITMAP
068680
07DE80
4F42E6
8C00AA
8C00AA
4F42E6
07DE80
ENDCHAR
STARTCHAR uni04E7
ENCODING 1255
SWIDTH 555 0
DWIDTH 5 0
BBX 5 6 0 0
BITMAP
0D2D00
000000
1BEB10
8D1D80
9D1D80
1BEB10
ENDCHAR
STARTCHAR uni04E8
ENCODING 1256
SWIDTH 684 0
DWIDTH 6 0
BBX 6 6 0 0
BITMAP
07EE90
4E32D6
8FFFFA
8D00AA
4F43E6
07EE90
ENDCHAR
STARTCHAR uni04E9
ENCODING 1257
SWIDTH 555 0
DWIDTH 5 0
BBX 5 4 0 0
BITMAP
1BEB10
9FFF80
9C2C80
2BEB20
ENDCHAR
STARTCHAR uni04EE
ENCODING 1262
SWIDTH 555 0
DWIDTH 5 0
BBX 5 7 0 0
BITMAP
0CFE00
B907D0
4E1C70
0C8F10
05FA00
02F400
3F9000
ENDCHAR
STARTCHAR uni04EF
ENCODING 1263
SWIDTH 521 0
DWIDTH 5 0
BBX 5 8 0 -2
BITMAP
0EFB00
000000
A90D60
4E2F10
0DAA00
07F500
05E000
6E5000
ENDCHAR
STARTCHAR uni04F2
ENCODING 1266
SWIDTH 555 0
DWIDTH 5 0
BBX 5 8 0 0
BITMAP
01B570
066A20
B907D0
4E1C70
0C8F10
05FA00
02F400
3F9000
ENDCHAR
STARTCHAR uni04F3
ENCODING 1267
SWIDTH 521 0
DWIDTH 5 0
BBX 5 9 0 -2
BITMAP
066940
000A00
000000
A90D60
4E2F10
0DAA00
07F500
05E000
6E5000
ENDCHAR
STARTCHAR a.sups
ENCODING 7491
SWIDTH 359 0
DWIDTH 3 0
BBX 3 3 0 3
BITMAP
AF90
C7D0
7DB0
ENDCHAR
STARTCHAR b.sups
ENCODING 7495
SWIDTH 385 0
DWIDTH 3 0
BBX 4 5 0 3
BITMAP
9500
9500
9ED1
96D3
9DC0
ENDCHAR
STARTCHAR d.sups
ENCODING 7496
SWIDTH 385 0
DWIDTH 3 0
BBX 4 5 0 3
BITMAP
00D1
00D1
6EE1
B5D1
6EC1
ENDCHAR
STARTCHAR e.sups
ENCODING 7497
SWIDTH 346 0
DWIDTH 3 0
BBX 3 3 0 3
BITMAP
5E80
BFE0
6E90
ENDCHAR
STARTCHAR g.sups
ENCODING 7501
SWIDTH 361 0
DWIDTH 3 0
BBX 4 4 0 2
BITMAP
7EE1
8F90
8FD1
9FB0
ENDCHAR
STARTCHAR k.sups
ENCODING 7503
SWIDTH 371 0
DWIDTH 3 0
BBX 4 5 0 3
BITMAP
9500
9500
9A90
9E70
95D1
ENDCHAR
STARTCHAR m.sups
ENCODING 7504
SWIDTH 577 0
DWIDTH 5 0
BBX 5 3 0 3
BITMAP
9CDD90
96D4D0
95D2D0
ENDCHAR
STARTCHAR o.sups
ENCODING 7506
SWIDTH 373 0
DWIDTH 3 0
BBX 4 3 0 3
BITMAP
5EA0
B5E1
6EA0
ENDCHAR
STARTCHAR p.sups
ENCODING 7510
SWIDTH 385 0
DWIDTH 3 0
BBX 4 4 0 2
BITMAP
9DD1
96D3
9EC0
9500
ENDCHAR
STARTCHAR t.sups
ENCODING 7511
SWIDTH 259 0
DWIDTH 2 0
BBX 3 4 0 3
BITMAP
6700
DF20
7700
4E20
ENDCHAR
STARTCHAR u.sups
ENCODING 7512
SWIDTH 383 0
DWIDTH 3 0
BBX 4 3 0 3
BITMAP
A4D1
A5D1
6ED1
ENDCHAR
STARTCHAR v.sups
ENCODING 7515
SWIDTH 355 0
DWIDTH 3 0
BBX 3 3 0 3
BITMAP
B2D0
68A0
2E50
ENDCHAR
STARTCHAR c.sups
ENCODING 7580
SWIDTH 313 0
DWIDTH 3 0
BBX 3 3 0 3
BITMAP
5E60
B510
6E70
ENDCHAR
STARTCHAR f.sups
ENCODING 7584
SWIDTH 232 0
DWIDTH 2 0
BBX 3 5 0 3
BITMAP
2E30
6800
DF00
7700
7700
ENDCHAR
STARTCHAR z.sups
ENCODING 7611
SWIDTH 312 0
DWIDTH 3 0
BBX 3 3 0 3
BITMAP
9F90
4C20
CFA0
ENDCHAR
STARTCHAR uni1E06
ENCODING 7686
SWIDTH 605 0
DWIDTH 5 0
BBX 6 8 0 -2
BITMAP
5FFE60
5F0AC0
5FFF70
5F05E1
5F05F1
5FFE70
000000
08FF20
ENDCHAR
STARTCHAR uni1E07
ENCODING 7687
SWIDTH 573 0
DWIDTH 5 0
BBX 5 8 0 -2
BITMAP
6E0000
6E0000
6EDE40
6E2BB0
6E2BA0
6DDD30
000000
0AFF00
ENDCHAR
STARTCHAR uni1E0C
ENCODING 7692
SWIDTH 635 0
DWIDTH 6 0
BBX 6 8 0 -2
BITMAP
5FFC30
5F18E1
5F02F3
5F02F3
5F19E1
5FFC30
000000
00B500
ENDCHAR
STARTCHAR uni1E0D
ENCODING 7693
SWIDTH 573 0
DWIDTH 5 0
BBX 5 8 0 -2
BITMAP
000B90
000B90
2CEE90
8D1C90
9C1D90
2CEC90
000000
00B500
ENDCHAR
STARTCHAR uni1E0E
ENCODING 7694
SWIDTH 635 0
DWIDTH 6 0
BBX 6 8 0 -2
BITMAP
5FFC30
5F18E1
5F02F3
5F02F3
5F19E1
5FFC30
000000
08FF20
ENDCHAR
STARTCHAR uni1E0F
ENCODING 7695
SWIDTH 573 0
DWIDTH 5 0
BBX 5 8 0 -2
BITMAP
000B90
000B90
2CEE90
8D1C90
9C1D90
2CEC90
000000
08FF20
ENDCHAR
STARTCHAR uni1E16
ENCODING 7702
SWIDTH 548 0
DWIDTH 5 0
BBX 5 10 0 0
BITMAP
005800
00B300
000000
0CFE00
5FFF50
5F0000
5FFF00
5F0000
5F0000
5FFF70
ENDCHAR
STARTCHAR uni1E17
ENCODING 7703
SWIDTH 518 0
DWIDTH 5 0
BBX 5 8 0 0
BITMAP
019300
000000
0DFC00
000000
1BEB10
8FFF40
9C1200
2BEC00
ENDCHAR
STARTCHAR uni1E20
ENCODING 7712
SWIDTH 638 0
DWIDTH 6 0
BBX 6 7 0 0
BITMAP
01FFA0
05DEA0
3F5130
8D0000
8C0EF3
4F51E3
06DEB1
ENDCHAR
STARTCHAR uni1E21
ENCODING 7713
SWIDTH 534 0
DWIDTH 5 0
BBX 5 8 0 -2
BITMAP
0CFD00
000000
3DFF90
8C5F00
3FE900
5FFE50
981B90
5EEB20
ENDCHAR
STARTCHAR uni1E24
ENCODING 7716
SWIDTH 674 0
DWIDTH 6 0
BBX 6 8 0 -2
BITMAP
5F00E6
5F00E6
5FFFF6
5F00E6
5F00E6
5F00E6
000000
007800
ENDCHAR
STARTCHAR uni1E25
ENCODING 7717
SWIDTH 571 0
DWIDTH 5 0
BBX 5 8 0 -2
BITMAP
6E0000
6E0000
6ECE40
6E2C90
6E0B90
6E0B90
000000
00D300
ENDCHAR
STARTCHAR uni1E2A
ENCODING 7722
SWIDTH 674 0
DWIDTH 6 0
BBX 6 8 0 -2
BITMAP
5F00E6
5F00E6
5FFFF6
5F00E6
5F00E6
5F10F6
067770
01DD20
ENDCHAR
STARTCHAR uni1E2B
ENCODING 7723
SWIDTH 571 0
DWIDTH 5 0
BBX 5 8 0 -2
BITMAP
6E0000
6E0000
6ECE40
6E2C90
6E0B90
6E0C90
0C2C10
06E900
ENDCHAR
STARTCHAR uni1E32
ENCODING 7730
SWIDTH 614 0
DWIDTH 6 0
BBX 6 8 0 -2
BITMAP
5F08D1
5F4E30
5FEA00
5FCF20
5F1BB0
5F03F4
000000
008800
ENDCHAR
STARTCHAR uni1E33
ENCODING 7731
SWIDTH 548 0
DWIDTH 5 0
BBX 5 8 0 -2
BITMAP
6D0000
6D0000
6D3E50
6EE600
6FAC00
6D0D80
000000
00C300
ENDCHAR
STARTCHAR uni1E34
ENCODING 7732
SWIDTH 614 0
DWIDTH 6 0
BBX 6 8 0 -2
BITMAP
5F08D1
5F4E30
5FEA00
5FCF20
5F1BB0
5F03F4
000000
05FF50
ENDCHAR
STARTCHAR uni1E35
ENCODING 7733
SWIDTH 548 0
DWIDTH 5 0
BBX 5 8 0 -2
BITMAP
6D0000
6D0000
6D3E50
6EE600
6FAC00
6D0D80
000000
0AFF00
ENDCHAR
STARTCHAR uni1E36
ENCODING 7734
SWIDTH 518 0
DWIDTH 5 0
BBX 5 8 0 -2
BITMAP
5F0000
5F0000
5F0000
5F0000
5F0000
5FFF50
000000
00D300
ENDCHAR
STARTCHAR uni1E37
ENCODING 7735
SWIDTH 286 0
DWIDTH 3 0
BBX 3 8 0 -2
BITMAP
6E00
6E00
6E00
6E00
6E00
3E60
0000
0C40
ENDCHAR
STARTCHAR uni1E38
ENCODING 7736
SWIDTH 518 0
DWIDTH 5 0
BBX 5 9 0 -2
BITMAP
FFB000
5F0000
5F0000
5F0000
5F0000
5F0000
5FFF50
000000
00D300
ENDCHAR
STARTCHAR uni1E39
ENCODING 7737
SWIDTH 286 0
DWIDTH 3 0
BBX 4 10 -1 -2
BITMAP
1FF8
0000
06E0
06E0
06E0
06E0
06E0
03E6
0000
00C4
ENDCHAR
STARTCHAR uni1E3A
ENCODING 7738
SWIDTH 518 0
DWIDTH 5 0
BBX 5 8 0 -2
BITMAP
5F0000
5F0000
5F0000
5F0000
5F0000
5FFF50
000000
0BFE00
ENDCHAR
STARTCHAR uni1E3B
ENCODING 7739
SWIDTH 286 0
DWIDTH 3 0
BBX 3 8 0 -2
BITMAP
6E00
6E00
6E00
6E00
6E00
3E60
0000
AFF0
ENDCHAR
STARTCHAR uni1E3E
ENCODING 7742
SWIDTH 762 0
DWIDTH 7 0
BBX 7 8 0 0
BITMAP
00059000
001C3000
5F507F30
5FA0CF30
5CE3DE30
5DAC8F30
5D5F3F30
5D061F30
ENDCHAR
STARTCHAR uni1E3F
ENCODING 7743
SWIDTH 857 0
DWIDTH 8 0
BBX 8 7 0 0
BITMAP
0000A500
0005A100
00000000
6DDE9EB0
6E2DA4F2
6E0C82F3
6E0C82F3
ENDCHAR
STARTCHAR uni1E40
ENCODING 7744
SWIDTH 762 0
DWIDTH 7 0
BBX 7 7 0 0
BITMAP
003D1000
5F507F30
5FA0CF30
5CE3DE30
5DAC8F30
5D5F3F30
5D061F30
ENDCHAR
STARTCHAR uni1E41
ENCODING 7745
SWIDTH 857 0
DWIDTH 8 0
BBX 8 6 0 0
BITMAP
00097000
00000000
6DDE9EB0
6E2DA4F2
6E0C82F3
6E0C82F3
ENDCHAR
STARTCHAR uni1E42
ENCODING 7746
SWIDTH 762 0
DWIDTH 7 0
BBX 7 8 0 -2
BITMAP
5F507F30
5FA0CF30
5CE3DE30
5DAC8F30
5D5F3F30
5D061F30
00000000
002D1000
ENDCHAR
STARTCHAR uni1E43
ENCODING 7747
SWIDTH 857 0
DWIDTH 8 0
BBX 8 6 0 -2
BITMAP
6DDE9EB0
6E2DA4F2
6E0C82F3
6E0C82F3
00000000
00097000
ENDCHAR
STARTCHAR uni1E44
ENCODING 7748
SWIDTH 665 0
DWIDTH 6 0
BBX 6 7 0 0
BITMAP
008800
5F50F4
5FC0F4
5DC5E4
5E5CD4
5E0CF4
5E05F4
ENDCHAR
STARTCHAR uni1E45
ENCODING 7749
SWIDTH 572 0
DWIDTH 5 0
BBX 5 6 0 0
BITMAP
00B500
000000
6DCE40
6E2C90
6E0B90
6E0B90
ENDCHAR
STARTCHAR uni1E46
ENCODING 7750
SWIDTH 665 0
DWIDTH 6 0
BBX 6 8 0 -2
BITMAP
5F50F4
5FC0F4
5DC5E4
5E5CD4
5E0CF4
5E05F4
000000
007900
ENDCHAR
STARTCHAR uni1E47
ENCODING 7751
SWIDTH 572 0
DWIDTH 5 0
BBX 5 6 0 -2
BITMAP
6DCE40
6E2C90
6E0B90
6E0B90
000000
00D300
ENDCHAR
STARTCHAR uni1E48
ENCODING 7752
SWIDTH 665 0
DWIDTH 6 0
BBX 6 8 0 -2
BITMAP
5F50F4
5FC0F4
5DC5E4
5E5CD4
5E0CF4
5E05F4
000000
04FF60
ENDCHAR
STARTCHAR uni1E49
ENCODING 7753
SWIDTH 572 0
DWIDTH 5 0
BBX 5 6 0 -2
BITMAP
6DCE40
6E2C90
6E0B90
6E0B90
000000
0BFE00
ENDCHAR
STARTCHAR uni1E52
ENCODING 7762
SWIDTH 684 0
DWIDTH 6 0
BBX 6 10 0 0
BITMAP
001A10
006800
000000
04FF70
07DE80
4F42E6
8C00AA
8C00AA
4F42E6
07DE80
ENDCHAR
STARTCHAR uni1E53
ENCODING 7763
SWIDTH 555 0
DWIDTH 5 0
BBX 5 8 0 0
BITMAP
008400
000000
0CFC00
000000
1BEB10
8D1D80
9D1D80
1BEB10
ENDCHAR
STARTCHAR uni1E58
ENCODING 7768
SWIDTH 613 0
DWIDTH 6 0
BBX 6 7 0 0
BITMAP
00C500
5FFE60
5F07E0
5F07E0
5FFF60
5F1E70
5F06E2
ENDCHAR
STARTCHAR uni1E59
ENCODING 7769
SWIDTH 398 0
DWIDTH 4 0
BBX 4 6 0 0
BITMAP
05B0
0000
6CC7
6F30
6E00
6E00
ENDCHAR
STARTCHAR uni1E5A
ENCODING 7770
SWIDTH 613 0
DWIDTH 6 0
BBX 6 8 0 -2
BITMAP
5FFE60
5F07E0
5F07E0
5FFF60
5F1E70
5F06E2
000000
009700
ENDCHAR
STARTCHAR uni1E5B
ENCODING 7771
SWIDTH 398 0
DWIDTH 4 0
BBX 4 6 0 -2
BITMAP
6CC7
6F30
6E00
6E00
0000
5B00
ENDCHAR
STARTCHAR uni1E5C
ENCODING 7772
SWIDTH 613 0
DWIDTH 6 0
BBX 6 9 0 -2
BITMAP
09FF20
5FFE60
5F07E0
5F07E0
5FFF60
5F1E70
5F06E2
000000
009700
ENDCHAR
STARTCHAR uni1E5D
ENCODING 7773
SWIDTH 398 0
DWIDTH 4 0
BBX 4 8 0 -2
BITMAP
2FF8
0000
6CC7
6F30
6E00
6E00
0000
5B00
ENDCHAR
STARTCHAR uni1E5E
ENCODING 7774
SWIDTH 613 0
DWIDTH 6 0
BBX 6 8 0 -2
BITMAP
5FFE60
5F07E0
5F07E0
5FFF60
5F1E70
5F06E2
000000
06FF40
ENDCHAR
STARTCHAR uni1E5F
ENCODING 7775
SWIDTH 398 0
DWIDTH 4 0
BBX 5 6 -1 -2
BITMAP
06CC70
06F300
06E000
06E000
000000
1FF800
ENDCHAR
STARTCHAR uni1E60
ENCODING 7776
SWIDTH 556 0
DWIDTH 5 0
BBX 5 7 0 0
BITMAP
00D300
1AEC30
6F1410
3FC500
03AF70
251C90
4CEC20
ENDCHAR
STARTCHAR uni1E61
ENCODING 7777
SWIDTH 443 0
DWIDTH 4 0
BBX 4 6 0 0
BITMAP
06A0
0000
4DE6
7D72
36C9
7EE5
ENDCHAR
STARTCHAR uni1E62
ENCODING 7778
SWIDTH 556 0
DWIDTH 5 0
BBX 5 8 0 -2
BITMAP
1AEC30
6F1410
3FC500
03AF70
251C90
4CEC20
000000
01D200
ENDCHAR
STARTCHAR uni1E63
ENCODING 7779
SWIDTH 443 0
DWIDTH 4 0
BBX 4 6 0 -2
BITMAP
4DE6
7D72
36C9
7EE5
0000
0790
ENDCHAR
STARTCHAR uni1E6C
ENCODING 7788
SWIDTH 556 0
DWIDTH 5 0
BBX 5 8 0 -2
BITMAP
CFFFC0
02F300
02F300
02F300
02F300
02F300
000000
01D100
ENDCHAR
STARTCHAR uni1E6D
ENCODING 7789
SWIDTH 383 0
DWIDTH 3 0
BBX 4 8 0 -2
BITMAP
1F10
2F10
CFF2
4F10
3F30
1CF3
0000
06A0
ENDCHAR
STARTCHAR uni1E6E
ENCODING 7790
SWIDTH 556 0
DWIDTH 5 0
BBX 5 8 0 -2
BITMAP
CFFFC0
02F300
02F300
02F300
02F300
02F300
000000
0CFC00
ENDCHAR
STARTCHAR uni1E6F
ENCODING 7791
SWIDTH 383 0
DWIDTH 3 0
BBX 4 8 0 -2
BITMAP
1F10
2F10
CFF2
4F10
3F30
1CF3
0000
3FF7
ENDCHAR
STARTCHAR Wgrave
ENCODING 7808
SWIDTH 813 0
DWIDTH 7 0
BBX 8 8 0 0
BITMAP
00960000
003C2000
C80E62F2
9A3F94E0
6D6CC6C0
4F96F990
1FE2CD60
0DE09F40
ENDCHAR
STARTCHAR wgrave
ENCODING 7809
SWIDTH 776 0
DWIDTH 7 0
BBX 7 7 0 0
BITMAP
01B30000
005B0000
00000000
AA3F39A0
5D7D7C60
1FB6CF20
0CE1ED00
ENDCHAR
STARTCHAR Wacute
ENCODING 7810
SWIDTH 813 0
DWIDTH 7 0
BBX 8 8 0 0
BITMAP
0003B100
000B6000
C80E62F2
9A3F94E0
6D6CC6C0
4F96F990
1FE2CD60
0DE09F40
ENDCHAR
STARTCHAR wacute
ENCODING 7811
SWIDTH 776 0
DWIDTH 7 0
BBX 7 7 0 0
BITMAP
0003B100
000B5000
00000000
AA3F39A0
5D7D7C60
1FB6CF20
0CE1ED00
ENDCHAR
STARTCHAR Wdieresis
ENCODING 7812
SWIDTH 813 0
DWIDTH 7 0
BBX 8 7 0 0
BITMAP
00B2B200
C80E62F2
9A3F94E0
6D6CC6C0
4F96F990
1FE2CD60
0DE09F40
ENDCHAR
STARTCHAR wdieresis
ENCODING 7813
SWIDTH 776 0
DWIDTH 7 0
BBX 7 6 0 0
BITMAP
00D2D000
00000000
AA3F39A0
5D7D7C60
1FB6CF20
0CE1ED00
ENDCHAR
STARTCHAR uni1E8E
ENCODING 7822
SWIDTH 525 0
DWIDTH 5 0
BBX 5 7 0 0
BITMAP
03D000
D80C90
6E3F20
0ECA00
07F300
04F000
04F000
ENDCHAR
STARTCHAR uni1E8F
ENCODING 7823
SWIDTH 521 0
DWIDTH 5 0
BBX 5 8 0 -2
BITMAP
03D000
000000
A90D60
4E2F10
0DAA00
07F500
05E000
6E5000
ENDCHAR
STARTCHAR uni1E92
ENCODING 7826
SWIDTH 541 0
DWIDTH 5 0
BBX 5 8 0 -2
BITMAP
7FFF80
006F30
02E900
0AD100
5F4000
AFFF90
000000
01D200
ENDCHAR
STARTCHAR uni1E93
ENCODING 7827
SWIDTH 460 0
DWIDTH 4 0
BBX 4 6 0 -2
BITMAP
7FFD
04F6
3E70
AFFE
0000
05B0
ENDCHAR
STARTCHAR uni1E94
ENCODING 7828
SWIDTH 541 0
DWIDTH 5 0
BBX 5 8 0 -2
BITMAP
7FFF80
006F30
02E900
0AD100
5F4000
AFFF90
000000
0CFD00
ENDCHAR
STARTCHAR uni1E95
ENCODING 7829
SWIDTH 460 0
DWIDTH 4 0
BBX 4 6 0 -2
BITMAP
7FFD
04F6
3E70
AFFE
0000
2FF8
ENDCHAR
STARTCHAR uni1E96
ENCODING 7830
SWIDTH 571 0
DWIDTH 5 0
BBX 5 8 0 -2
BITMAP
6E0000
6E0000
6ECE40
6E2C90
6E0B90
6E0B90
000000
0BFE00
ENDCHAR
STARTCHAR uni1E97
ENCODING 7831
SWIDTH 383 0
DWIDTH 3 0
BBX 4 7 0 0
BITMAP
D2D0
1F10
2F10
CFF2
4F10
3F30
1CF3
ENDCHAR
STARTCHAR uni1E9E
ENCODING 7838
SWIDTH 705 0
DWIDTH 6 0
BBX 6 6 0 0
BITMAP
06DE90
2F52F5
4F19C0
4F16EA
4F127E
4F4DE7
ENDCHAR
STARTCHAR uni1EA0
ENCODING 7840
SWIDTH 573 0
DWIDTH 5 0
BBX 6 8 0 -2
BITMAP
06F800
0ACD00
0E6F20
4F1E70
9FFFB0
D706F1
000000
01D200
ENDCHAR
STARTCHAR uni1EA1
ENCODING 7841
SWIDTH 527 0
DWIDTH 5 0
BBX 5 6 0 -2
BITMAP
3CEA00
2DEF30
8C5F30
4ECE30
000000
03C000
ENDCHAR
STARTCHAR uni1EA2
ENCODING 7842
SWIDTH 573 0
DWIDTH 5 0
BBX 6 8 0 0
BITMAP
03D200
00C400
06F800
0ACD00
0E6F20
4F1E70
9FFFB0
D706F1
ENDCHAR
STARTCHAR uni1EA3
ENCODING 7843
SWIDTH 527 0
DWIDTH 5 0
BBX 5 7 0 0
BITMAP
04C100
00D400
002000
3CEA00
2DEF30
8C5F30
4ECE30
ENDCHAR
STARTCHAR uni1EA4
ENCODING 7844
SWIDTH 573 0
DWIDTH 5 0
BBX 6 8 0 0
BITMAP
03F770
096A00
07FA00
0ACD00
0E6F20
4F1E70
9FFFB0
D706F1
ENDCHAR
STARTCHAR uni1EA5
ENCODING 7845
SWIDTH 527 0
DWIDTH 5 0
BBX 5 8 0 0
BITMAP
000190
04F760
0A6900
020300
3CEA00
2DEF30
8C5F30
4ECE30
ENDCHAR
STARTCHAR uni1EA6
ENCODING 7846
SWIDTH 573 0
DWIDTH 5 0
BBX 6 8 0 0
BITMAP
57F500
096A00
07FA00
0ACD00
0E6F20
4F1E70
9FFFB0
D706F1
ENDCHAR
STARTCHAR uni1EA7
ENCODING 7847
SWIDTH 527 0
DWIDTH 5 0
BBX 5 8 0 0
BITMAP
A00000
77F300
0A6900
020300
3CEA00
2DEF30
8C5F30
4ECE30
ENDCHAR
STARTCHAR uni1EA8
ENCODING 7848
SWIDTH 573 0
DWIDTH 5 0
BBX 6 10 0 0
BITMAP
000870
0002C0
03F970
096A00
07FA00
0ACD00
0E6F20
4F1E70
9FFFB0
D706F1
ENDCHAR
STARTCHAR uni1EA9
ENCODING 7849
SWIDTH 527 0
DWIDTH 5 0
BBX 5 9 0 0
BITMAP
000960
0003B0
04F860
0A6900
020300
3CEA00
2DEF30
8C5F30
4ECE30
ENDCHAR
STARTCHAR uni1EAA
ENCODING 7850
SWIDTH 573 0
DWIDTH 5 0
BBX 6 11 0 0
BITMAP
056900
0AA900
020000
03F500
096A00
07FA00
0ACD00
0E6F20
4F1E70
9FFFB0
D706F1
ENDCHAR
STARTCHAR uni1EAB
ENCODING 7851
SWIDTH 527 0
DWIDTH 5 0
BBX 5 9 0 0
BITMAP
055900
0AB700
030000
04F300
0A6900
3FED00
2DEF30
8C5F30
4ECE30
ENDCHAR
STARTCHAR uni1EAC
ENCODING 7852
SWIDTH 573 0
DWIDTH 5 0
BBX 6 9 0 -2
BITMAP
089900
06F800
0ACD00
0E6F20
4F1E70
9FFFB0
D706F1
000000
01D200
ENDCHAR
STARTCHAR uni1EAD
ENCODING 7853
SWIDTH 527 0
DWIDTH 5 0
BBX 5 9 0 -2
BITMAP
08F700
1B3B00
000000
3CEA00
2DEF30
8C5F30
4ECE30
000000
03C000
ENDCHAR
STARTCHAR uni1EAE
ENCODING 7854
SWIDTH 573 0
DWIDTH 5 0
BBX 6 10 0 0
BITMAP
006600
01A300
0B1C00
06E700
06F800
0ACD00
0E6F20
4F1E70
9FFFB0
D706F1
ENDCHAR
STARTCHAR uni1EAF
ENCODING 7855
SWIDTH 527 0
DWIDTH 5 0
BBX 5 9 0 0
BITMAP
007400
01A200
0C1C00
08E700
000000
3CEA00
2DEF30
8C5F30
4ECE30
ENDCHAR
STARTCHAR uni1EB0
ENCODING 7856
SWIDTH 573 0
DWIDTH 5 0
BBX 6 10 0 0
BITMAP
057000
02B100
0B1C00
06E700
06F800
0ACD00
0E6F20
4F1E70
9FFFB0
D706F1
ENDCHAR
STARTCHAR uni1EB1
ENCODING 7857
SWIDTH 527 0
DWIDTH 5 0
BBX 5 9 0 0
BITMAP
056000
02A100
0C1C00
08E700
000000
3CEA00
2DEF30
8C5F30
4ECE30
ENDCHAR
STARTCHAR uni1EB2
ENCODING 7858
SWIDTH 573 0
DWIDTH 5 0
BBX 6 11 0 0
BITMAP
01D100
00A400
01A200
0B1C00
06E700
06F800
0ACD00
0E6F20
4F1E70
9FFFB0
D706F1
ENDCHAR
STARTCHAR uni1EB3
ENCODING 7859
SWIDTH 527 0
DWIDTH 5 0
BBX 5 10 0 0
BITMAP
03C000
00B300
01B100
0C1C00
08E700
000000
3CEA00
2DEF30
8C5F30
4ECE30
ENDCHAR
STARTCHAR uni1EB4
ENCODING 7860
SWIDTH 573 0
DWIDTH 5 0
BBX 6 11 0 0
BITMAP
056900
0AA900
030100
0B2B00
05E700
06F800
0ACD00
0E6F20
4F1E70
9FFFB0
D706F1
ENDCHAR
STARTCHAR uni1EB5
ENCODING 7861
SWIDTH 527 0
DWIDTH 5 0
BBX 5 10 0 0
BITMAP
055A00
0BB800
030000
0B2B00
06E500
000000
3CEA00
2DEF30
8C5F30
4ECE30
ENDCHAR
STARTCHAR uni1EB6
ENCODING 7862
SWIDTH 573 0
DWIDTH 5 0
BBX 6 10 0 -2
BITMAP
0B1B00
07E800
06F800
0ACD00
0E6F20
4F1E70
9FFFB0
D706F1
000000
01D200
ENDCHAR
STARTCHAR uni1EB7
ENCODING 7863
SWIDTH 527 0
DWIDTH 5 0
BBX 5 10 0 -2
BITMAP
010100
0D2D00
08E700
000000
3CEA00
2DEF30
8C5F30
4ECE30
000000
03C000
ENDCHAR
STARTCHAR uni1EB8
ENCODING 7864
SWIDTH 548 0
DWIDTH 5 0
BBX 5 8 0 -2
BITMAP
5FFF50
5F0000
5FFF00
5F0000
5F0000
5FFF70
000000
00C300
ENDCHAR
STARTCHAR uni1EB9
ENCODING 7865
SWIDTH 518 0
DWIDTH 5 0
BBX 5 6 0 -2
BITMAP
1BEB10
8FFF40
9C1200
2BEC00
000000
02D100
ENDCHAR
STARTCHAR uni1EBA
ENCODING 7866
SWIDTH 548 0
DWIDTH 5 0
BBX 5 8 0 0
BITMAP
02D300
00B400
5FFF50
5F0000
5FFF00
5F0000
5F0000
5FFF70
ENDCHAR
STARTCHAR uni1EBB
ENCODING 7867
SWIDTH 518 0
DWIDTH 5 0
BBX 5 7 0 0
BITMAP
05C100
00D300
002000
1BEB10
8FFF40
9C1200
2BEC00
ENDCHAR
STARTCHAR uni1EBC
ENCODING 7868
SWIDTH 548 0
DWIDTH 5 0
BBX 5 9 0 0
BITMAP
000320
0CCC40
2B5700
5FFF50
5F0000
5FFF00
5F0000
5F0000
5FFF70
ENDCHAR
STARTCHAR uni1EBD
ENCODING 7869
SWIDTH 518 0
DWIDTH 5 0
BBX 5 8 0 0
BITMAP
000310
1DAD10
396600
000000
1BEB10
8FFF40
9C1200
2BEC00
ENDCHAR
STARTCHAR uni1EBE
ENCODING 7870
SWIDTH 548 0
DWIDTH 5 0
BBX 5 8 0 0
BITMAP
03F870
096B00
5FFF50
5F0000
5FFF00
5F0000
5F0000
5FFF70
ENDCHAR
STARTCHAR uni1EBF
ENCODING 7871
SWIDTH 518 0
DWIDTH 5 0
BBX 5 8 0 0
BITMAP
000190
04F750
0A6900
020300
1BEB10
8FFF40
9C1200
2BEC00
ENDCHAR
STARTCHAR uni1EC0
ENCODING 7872
SWIDTH 548 0
DWIDTH 5 0
BBX 5 8 0 0
BITMAP
57F500
096B00
5FFF50
5F0000
5FFF00
5F0000
5F0000
5FFF70
ENDCHAR
STARTCHAR uni1EC1
ENCODING 7873
SWIDTH 518 0
DWIDTH 5 0
BBX 5 8 0 0
BITMAP
A00000
77F200
0A6900
020300
1BEB10
8FFF40
9C1200
2BEC00
ENDCHAR
STARTCHAR uni1EC2
ENCODING 7874
SWIDTH 548 0
DWIDTH 5 0
BBX 5 10 0 0
BITMAP
000780
0002D0
03F980
096B00
5FFF50
5F0000
5FFF00
5F0000
5F0000
5FFF70
ENDCHAR
STARTCHAR uni1EC3
ENCODING 7875
SWIDTH 518 0
DWIDTH 5 0
BBX 5 9 0 0
BITMAP
000960
0004A0
04F850
0A6900
020300
1BEB10
8FFF40
9C1200
2BEC00
ENDCHAR
STARTCHAR uni1EC4
ENCODING 7876
SWIDTH 548 0
DWIDTH 5 0
BBX 5 11 0 0
BITMAP
046900
0AAA00
020000
03F500
096B00
5FFF50
5F0000
5FFF00
5F0000
5F0000
5FFF70
ENDCHAR
STARTCHAR uni1EC5
ENCODING 7877
SWIDTH 518 0
DWIDTH 5 0
BBX 5 9 0 0
BITMAP
055900
0AB700
030000
04F200
0A6900
1EED10
8FFF40
9C1200
2BEC00
ENDCHAR
STARTCHAR uni1EC6
ENCODING 7878
SWIDTH 548 0
DWIDTH 5 0
BBX 5 9 0 -2
BITMAP
089A00
5FFF50
5F0000
5FFF00
5F0000
5F0000
5FFF70
000000
00C300
ENDCHAR
STARTCHAR uni1EC7
ENCODING 7879
SWIDTH 518 0
DWIDTH 5 0
BBX 5 9 0 -2
BITMAP
09F700
1B3B00
000000
1BEB10
8FFF40
9C1200
2BEC00
000000
02D100
ENDCHAR
STARTCHAR uni1EC8
ENCODING 7880
SWIDTH 301 0
DWIDTH 3 0
BBX 3 8 0 0
BITMAP
6C10
1D10
5F00
5F00
5F00
5F00
5F00
5F00
ENDCHAR
STARTCHAR uni1EC9
ENCODING 7881
SWIDTH 276 0
DWIDTH 2 0
BBX 3 7 0 0
BITMAP
8A00
2E10
1100
6E00
6E00
6E00
6E00
ENDCHAR
STARTCHAR uni1ECA
ENCODING 7882
SWIDTH 301 0
DWIDTH 3 0
BBX 2 8 0 -2
BITMAP
5F
5F
5F
5F
5F
5F
00
3C
ENDCHAR
STARTCHAR uni1ECB
ENCODING 7883
SWIDTH 276 0
DWIDTH 2 0
BBX 2 9 0 -2
BITMAP
14
5C
00
6E
6E
6E
6E
00
5B
ENDCHAR
STARTCHAR uni1ECC
ENCODING 7884
SWIDTH 684 0
DWIDTH 6 0
BBX 6 8 0 -2
BITMAP
07DE80
4F42E6
8C00AA
8C00AA
4F42E6
07DE80
000000
007900
ENDCHAR
STARTCHAR uni1ECD
ENCODING 7885
SWIDTH 555 0
DWIDTH 5 0
BBX 5 6 0 -2
BITMAP
1BEB10
8D1D80
9D1D80
1BEB10
000000
01D100
ENDCHAR
STARTCHAR uni1ECE
ENCODING 7886
SWIDTH 684 0
DWIDTH 6 0
BBX 6 8 0 0
BITMAP
009900
004C00
07EE80
4F42E6
8C00AA
8C00AA
4F42E6
07DE80
ENDCHAR
STARTCHAR uni1ECF
ENCODING 7887
SWIDTH 555 0
DWIDTH 5 0
BBX 5 7 0 0
BITMAP
04D200
00C400
002000
1BEB10
8D1D80
9D1D80
1BEB10
ENDCHAR
STARTCHAR uni1ED0
ENCODING 7888
SWIDTH 684 0
DWIDTH 6 0
BBX 6 8 0 0
BITMAP
00AD82
02B940
07FF90
4F42E6
8C00AA
8C00AA
4F42E6
07DE80
ENDCHAR
STARTCHAR uni1ED1
ENCODING 7889
SWIDTH 555 0
DWIDTH 5 0
BBX 5 8 0 0
BITMAP
0001A0
03F760
096900
020300
1BEB10
8D1D80
9D1D80
1BEB10
ENDCHAR
STARTCHAR uni1ED2
ENCODING 7890
SWIDTH 684 0
DWIDTH 6 0
BBX 6 8 0 0
BITMAP
08AD00
02B940
07FF90
4F42E6
8C00AA
8C00AA
4F42E6
07DE80
ENDCHAR
STARTCHAR uni1ED3
ENCODING 7891
SWIDTH 555 0
DWIDTH 5 0
BBX 5 8 0 0
BITMAP
A00000
67F300
096900
020300
1BEB10
8D1D80
9D1D80
1BEB10
ENDCHAR
STARTCHAR uni1ED4
ENCODING 7892
SWIDTH 684 0
DWIDTH 6 0
BBX 6 10 0 0
BITMAP
0000D2
000095
00ADA2
02B940
07FF90
4F42E6
8C00AA
8C00AA
4F42E6
07DE80
ENDCHAR
STARTCHAR uni1ED5
ENCODING 7893
SWIDTH 555 0
DWIDTH 5 0
BBX 5 9 0 0
BITMAP
000870
0003B0
03F860
096900
020300
1BEB10
8D1D80
9D1D80
1BEB10
ENDCHAR
STARTCHAR uni1ED6
ENCODING 7894
SWIDTH 684 0
DWIDTH 6 0
BBX 6 11 0 0
BITMAP
008560
03AD30
012000
00AD00
02B940
07FF90
4F42E6
8C00AA
8C00AA
4F42E6
07DE80
ENDCHAR
STARTCHAR uni1ED7
ENCODING 7895
SWIDTH 555 0
DWIDTH 5 0
BBX 5 9 0 0
BITMAP
045900
0AA800
030000
03F300
096900
1EEE10
8D1D80
9D1D80
1BEB10
ENDCHAR
STARTCHAR uni1ED8
ENCODING 7896
SWIDTH 684 0
DWIDTH 6 0
BBX 6 9 0 -2
BITMAP
02BA40
07DE80
4F42E6
8C00AA
8C00AA
4F42E6
07DE80
000000
007900
ENDCHAR
STARTCHAR uni1ED9
ENCODING 7897
SWIDTH 555 0
DWIDTH 5 0
BBX 5 9 0 -2
BITMAP
08F800
0B3B00
000000
1BEB10
8D1D80
9D1D80
1BEB10
000000
01D100
ENDCHAR
STARTCHAR uni1EDA
ENCODING 7898
SWIDTH 684 0
DWIDTH 6 0
BBX 6 8 0 0
BITMAP
000954
005A4E
07DEE5
4F42E7
8D00AA
8D00AA
3F42E6
06DE80
ENDCHAR
STARTCHAR uni1EDB
ENCODING 7899
SWIDTH 555 0
DWIDTH 5 0
BBX 5 7 0 0
BITMAP
003C60
00B6F0
1AEE50
7D1D70
AB0A90
7D1D70
1AEA10
ENDCHAR
STARTCHAR uni1EDC
ENCODING 7900
SWIDTH 684 0
DWIDTH 6 0
BBX 6 8 0 0
BITMAP
03B104
01873E
07DEE5
4F42E7
8D00AA
8D00AA
3F42E6
06DE80
ENDCHAR
STARTCHAR uni1EDD
ENCODING 7901
SWIDTH 555 0
DWIDTH 5 0
BBX 5 7 0 0
BITMAP
1B3060
05B1F0
1AEE50
7D1D70
AB0A90
7D1D70
1AEA10
ENDCHAR
STARTCHAR uni1EDE
ENCODING 7902
SWIDTH 684 0
DWIDTH 6 0
BBX 6 8 0 0
BITMAP
009904
004C3E
07EEE5
4F42E7
8D00AA
8D00AA
3F42E6
06DE80
ENDCHAR
STARTCHAR uni1EDF
ENCODING 7903
SWIDTH 555 0
DWIDTH 5 0
BBX 5 7 0 0
BITMAP
04D260
00C5F0
1AFE50
7D1D70
AB0A90
7D1D70
1AEA10
ENDCHAR
STARTCHAR uni1EE0
ENCODING 7904
SWIDTH 684 0
DWIDTH 6 0
BBX 6 9 0 0
BITMAP
000140
07E994
0B385E
07DEE5
4F42E7
8D00AA
8D00AA
3F42E6
06DE80
ENDCHAR
STARTCHAR uni1EE1
ENCODING 7905
SWIDTH 555 0
DWIDTH 5 0
BBX 5 8 0 0
BITMAP
000400
3E9C60
7785F0
1AEE50
7D1D70
AB0A90
7D1D70
1AEA10
ENDCHAR
STARTCHAR uni1EE2
ENCODING 7906
SWIDTH 684 0
DWIDTH 6 0
BBX 6 10 0 -2
BITMAP
000004
00003E
07DEE5
4F42E7
8D00AA
8D00AA
3F42E6
06DE80
000000
007900
ENDCHAR
STARTCHAR uni1EE3
ENCODING 7907
SWIDTH 555 0
DWIDTH 5 0
BBX 5 9 0 -2
BITMAP
000060
0001F0
1AEE50
7D1D70
AB0A90
7D1D70
1AEA10
000000
01D100
ENDCHAR
STARTCHAR uni1EE4
ENCODING 7908
SWIDTH 665 0
DWIDTH 6 0
BBX 6 8 0 -2
BITMAP
5F00E5
5F00E5
5F00E5
5F00F4
2F44F2
07EE70
000000
008800
ENDCHAR
STARTCHAR uni1EE5
ENCODING 7909
SWIDTH 568 0
DWIDTH 5 0
BBX 5 6 0 -2
BITMAP
7D0C80
7D0C80
6E1D80
2EDC80
000000
00C400
ENDCHAR
STARTCHAR uni1EE6
ENCODING 7910
SWIDTH 665 0
DWIDTH 6 0
BBX 6 8 0 0
BITMAP
00B800
005A00
5F00E5
5F00E5
5F00E5
5F00F4
2F44F2
07EE70
ENDCHAR
STARTCHAR uni1EE7
ENCODING 7911
SWIDTH 568 0
DWIDTH 5 0
BBX 5 7 0 0
BITMAP
03D200
00B500
002000
7D0C80
7D0C80
6E1D80
2EDC80
ENDCHAR
STARTCHAR uni1EE8
ENCODING 7912
SWIDTH 683 0
DWIDTH 6 0
BBX 7 8 0 0
BITMAP
001A4430
00791A70
5F00ED20
5F00E500
5F00E500
5F00F400
2F44F200
07EE7000
ENDCHAR
STARTCHAR uni1EE9
ENCODING 7913
SWIDTH 568 0
DWIDTH 5 0
BBX 6 7 0 0
BITMAP
003B00
00B464
0000B6
7D0CD1
7D0C80
6E1D80
2EDC80
ENDCHAR
STARTCHAR uni1EEA
ENCODING 7914
SWIDTH 683 0
DWIDTH 6 0
BBX 7 8 0 0
BITMAP
04A10430
01960A70
5F00ED20
5F00E500
5F00E500
5F00F400
2F44F200
07EE7000
ENDCHAR
STARTCHAR uni1EEB
ENCODING 7915
SWIDTH 568 0
DWIDTH 5 0
BBX 6 7 0 0
BITMAP
1B3000
05B064
0000B6
7D0CD1
7D0C80
6E1D80
2EDC80
ENDCHAR
STARTCHAR uni1EEC
ENCODING 7916
SWIDTH 683 0
DWIDTH 6 0
BBX 7 8 0 0
BITMAP
00B80430
005A0A70
5F00ED20
5F00E500
5F00E500
5F00F400
2F44F200
07EE7000
ENDCHAR
STARTCHAR uni1EED
ENCODING 7917
SWIDTH 568 0
DWIDTH 5 0
BBX 6 7 0 0
BITMAP
04C100
00D464
0020B6
7D0CD1
7D0C80
6E1D80
2EDC80
ENDCHAR
STARTCHAR uni1EEE
ENCODING 7918
SWIDTH 683 0
DWIDTH 6 0
BBX 7 9 0 0
BITMAP
00014000
06E9A430
0B482A70
5F00ED20
5F00E500
5F00E500
5F00F400
2F44F200
07EE7000
ENDCHAR
STARTCHAR uni1EEF
ENCODING 7919
SWIDTH 568 0
DWIDTH 5 0
BBX 6 8 0 0
BITMAP
000310
0DAD10
3A6764
0000B6
7D0CD1
7D0C80
6E1D80
2EDC80
ENDCHAR
STARTCHAR uni1EF0
ENCODING 7920
SWIDTH 683 0
DWIDTH 6 0
BBX 7 10 0 -2
BITMAP
00000430
00000A70
5F00ED20
5F00E500
5F00E500
5F00F400
2F44F200
07EE7000
00000000
00880000
ENDCHAR
STARTCHAR uni1EF1
ENCODING 7921
SWIDTH 568 0
DWIDTH 5 0
BBX 6 8 0 -2
BITMAP
000064
0000B6
7D0CD1
7D0C80
6E1D80
2EDC80
000000
00D300
ENDCHAR
STARTCHAR Ygrave
ENCODING 7922
SWIDTH 525 0
DWIDTH 5 0
BBX 5 8 0 0
BITMAP
1B3000
05B000
D80C90
6E3F20
0ECA00
07F300
04F000
04F000
ENDCHAR
STARTCHAR ygrave
ENCODING 7923
SWIDTH 521 0
DWIDTH 5 0
BBX 5 9 0 -2
BITMAP
1B2000
06A000
000000
A90D60
4E2F10
0DAA00
07F500
05E000
6E5000
ENDCHAR
STARTCHAR uni1EF4
ENCODING 7924
SWIDTH 525 0
DWIDTH 5 0
BBX 5 8 0 -2
BITMAP
D80C90
6E3F20
0ECA00
07F300
04F000
04F000
000000
03D000
ENDCHAR
STARTCHAR uni1EF5
ENCODING 7925
SWIDTH 521 0
DWIDTH 5 0
BBX 5 6 0 -2
BITMAP
A90D60
4E2F10
0DAA00
07F500
05E000
6E5880
ENDCHAR
STARTCHAR uni1EF6
ENCODING 7926
SWIDTH 525 0
DWIDTH 5 0
BBX 5 8 0 0
BITMAP
06C100
01D200
D80C90
6E3F20
0ECA00
07F300
04F000
04F000
ENDCHAR
STARTCHAR uni1EF7
ENCODING 7927
SWIDTH 521 0
DWIDTH 5 0
BBX 5 9 0 -2
BITMAP
06C100
01D200
002000
A90D60
4E2F10
0DAA00
07F500
05E000
6E5000
ENDCHAR
STARTCHAR uni1EF8
ENCODING 7928
SWIDTH 525 0
DWIDTH 5 0
BBX 5 9 0 0
BITMAP
000410
2DAD10
586500
D80C90
6E3F20
0ECA00
07F300
04F000
04F000
ENDCHAR
STARTCHAR uni1EF9
ENCODING 7929
SWIDTH 521 0
DWIDTH 5 0
BBX 5 10 0 -2
BITMAP
000400
1DAD00
497600
000000
A90D60
4E2F10
0DAA00
07F500
05E000
6E5000
ENDCHAR
STARTCHAR uni1F00
ENCODING 7936
SWIDTH 595 0
DWIDTH 5 0
BBX 6 7 0 0
BITMAP
02D300
00A600
002000
2CEAD0
9C1D90
9C1D70
3DEAF3
ENDCHAR
STARTCHAR uni1F01
ENCODING 7937
SWIDTH 595 0
DWIDTH 5 0
BBX 6 7 0 0
BITMAP
01B600
02D100
002000
2CEAD0
9C1D90
9C1D70
3DEAF3
ENDCHAR
STARTCHAR uni1F02
ENCODING 7938
SWIDTH 595 0
DWIDTH 5 0
BBX 6 8 0 0
BITMAP
000100
1D6C00
0A4B00
010000
2CEAD0
9C1D90
9C1D70
3DEAF3
ENDCHAR
STARTCHAR uni1F03
ENCODING 7939
SWIDTH 595 0
DWIDTH 5 0
BBX 6 8 0 0
BITMAP
000100
0B9C00
1D1C00
010000
2CEAD0
9C1D90
9C1D70
3DEAF3
ENDCHAR
STARTCHAR uni1F04
ENCODING 7940
SWIDTH 595 0
DWIDTH 5 0
BBX 6 8 0 0
BITMAP
000100
1D3E00
0A7900
010000
2CEAD0
9C1D90
9C1D70
3DEAF3
ENDCHAR
STARTCHAR uni1F05
ENCODING 7941
SWIDTH 595 0
DWIDTH 5 0
BBX 6 8 0 0
BITMAP
000100
0A8E00
0D4900
000000
2CEAD0
9C1D90
9C1D70
3DEAF3
ENDCHAR
STARTCHAR uni1F06
ENCODING 7942
SWIDTH 595 0
DWIDTH 5 0
BBX 6 8 0 0
BITMAP
07AA00
0A6B00
00D300
007200
2CEAD0
9C1D90
9C1D70
3DEAF3
ENDCHAR
STARTCHAR uni1F07
ENCODING 7943
SWIDTH 595 0
DWIDTH 5 0
BBX 6 8 0 0
BITMAP
07AA00
0A6B00
00C400
009000
2CEAD0
9C1D90
9C1D70
3DEAF3
ENDCHAR
STARTCHAR uni1F08
ENCODING 7944
SWIDTH 655 0
DWIDTH 6 0
BBX 6 6 0 0
BITMAP
D4AF40
88EC90
34E6D0
08B3F3
0DFFF7
2F30AC
ENDCHAR
STARTCHAR uni1F09
ENCODING 7945
SWIDTH 639 0
DWIDTH 6 0
BBX 7 6 -1 0
BITMAP
0B7CF200
1E3FC600
037D8B00
00A95F10
01EFFF50
05F10CA0
ENDCHAR
STARTCHAR uni1F0A
ENCODING 7946
SWIDTH 822 0
DWIDTH 7 0
BBX 8 6 0 0
BITMAP
E6C2FB00
93D7CF10
000B7E60
001F4AA0
005FFFE0
00AB02F4
ENDCHAR
STARTCHAR uni1F0B
ENCODING 7947
SWIDTH 821 0
DWIDTH 7 0
BBX 9 6 -1 0
BITMAP
0B7C2FB000
1D1D7CF100
0300B7E600
0001F4AA00
0005FFFE00
000AB02F40
ENDCHAR
STARTCHAR uni1F0C
ENCODING 7948
SWIDTH 812 0
DWIDTH 7 0
BBX 8 6 0 0
BITMAP
E5D3FA00
04A8CE00
000C6E40
002F3C90
007FFFE0
00BA03F3
ENDCHAR
STARTCHAR uni1F0D
ENCODING 7949
SWIDTH 811 0
DWIDTH 7 0
BBX 9 6 -1 0
BITMAP
0B7D4FA000
1D4A8CE000
0300D6F400
0002F3C900
0007FFFD00
000B903F30
ENDCHAR
STARTCHAR uni1F0E
ENCODING 7950
SWIDTH 679 0
DWIDTH 6 0
BBX 8 6 -1 0
BITMAP
1EE8F700
097BCC00
037F6F10
005E0E60
00AFFFB0
00E606F1
ENDCHAR
STARTCHAR uni1F0F
ENCODING 7951
SWIDTH 679 0
DWIDTH 6 0
BBX 8 6 -1 0
BITMAP
1EE8F700
079BCC00
064F6F10
005E0E60
00AFFFB0
00E606F1
ENDCHAR
STARTCHAR uni1F10
ENCODING 7952
SWIDTH 471 0
DWIDTH 4 0
BBX 4 7 0 0
BITMAP
06C1
01D2
0010
4DFA
3FF3
9C12
4DFB
ENDCHAR
STARTCHAR uni1F11
ENCODING 7953
SWIDTH 471 0
DWIDTH 4 0
BBX 4 7 0 0
BITMAP
03D2
06A0
0020
4DFA
3FF3
9C12
4DFB
ENDCHAR
STARTCHAR uni1F12
ENCODING 7954
SWIDTH 471 0
DWIDTH 4 0
BBX 4 8 0 0
BITMAP
0001
5B87
1D39
0100
4DFA
3FF3
9C12
4DFB
ENDCHAR
STARTCHAR uni1F13
ENCODING 7955
SWIDTH 471 0
DWIDTH 4 0
BBX 4 8 0 0
BITMAP
0001
2D97
4A39
0100
4DFA
3FF3
9C12
4DFB
ENDCHAR
STARTCHAR uni1F14
ENCODING 7956
SWIDTH 471 0
DWIDTH 4 0
BBX 4 7 0 0
BITMAP
5B6A
1D75
0100
4DFA
3FF3
9C12
4DFB
ENDCHAR
STARTCHAR uni1F15
ENCODING 7957
SWIDTH 471 0
DWIDTH 4 0
BBX 4 7 0 0
BITMAP
2D89
3B74
0100
4DFA
3FF3
9C12
4DFB
ENDCHAR
STARTCHAR uni1F18
ENCODING 7960
SWIDTH 711 0
DWIDTH 6 0
BBX 6 6 0 0
BITMAP
D4DFFC
97D700
30DFF7
00D700
00D700
00DFFE
ENDCHAR
STARTCHAR uni1F19
ENCODING 7961
SWIDTH 711 0
DWIDTH 6 0
BBX 7 6 -1 0
BITMAP
0B7DFFC0
1E1D7000
031DFF70
000D7000
000D7000
000DFFE0
ENDCHAR
STARTCHAR uni1F1A
ENCODING 7962
SWIDTH 874 0
DWIDTH 8 0
BBX 8 6 0 0
BITMAP
E6C6FFF4
93D6E000
0006FFE0
0006E000
0006E000
0006FFF6
ENDCHAR
STARTCHAR uni1F1B
ENCODING 7963
SWIDTH 873 0
DWIDTH 8 0
BBX 9 6 -1 0
BITMAP
0B7C6FFF40
1D1D6E0000
03006FFE00
00006E0000
00006E0000
00006FFF60
ENDCHAR
STARTCHAR uni1F1C
ENCODING 7964
SWIDTH 864 0
DWIDTH 8 0
BBX 8 6 0 0
BITMAP
E5D7FFF3
04A7D000
0007FFD0
0007D000
0007D000
0007FFF4
ENDCHAR
STARTCHAR uni1F1D
ENCODING 7965
SWIDTH 863 0
DWIDTH 8 0
BBX 9 6 -1 0
BITMAP
0B7D7FFF30
1D4A7D0000
03007FFD00
00007D0000
00007D0000
00007FFF40
ENDCHAR
STARTCHAR uni1F20
ENCODING 7968
SWIDTH 562 0
DWIDTH 5 0
BBX 5 8 0 -1
BITMAP
00E400
009800
002000
7CBE40
6F3C80
6E0B80
6E0C80
000C80
ENDCHAR
STARTCHAR uni1F21
ENCODING 7969
SWIDTH 562 0
DWIDTH 5 0
BBX 5 8 0 -1
BITMAP
00A800
01E200
001000
7CBE40
6F3C80
6E0B80
6E0C80
000C80
ENDCHAR
STARTCHAR uni1F22
ENCODING 7970
SWIDTH 562 0
DWIDTH 5 0
BBX 5 9 0 -1
BITMAP
000100
0D5E00
085B00
010000
7CBE40
6F3C80
6E0B80
6E0C80
000C80
ENDCHAR
STARTCHAR uni1F23
ENCODING 7971
SWIDTH 562 0
DWIDTH 5 0
BBX 5 9 0 -1
BITMAP
000100
0A9D00
0C1B00
000000
7CBE40
6F3C80
6E0B80
6E0C80
000C80
ENDCHAR
STARTCHAR uni1F24
ENCODING 7972
SWIDTH 562 0
DWIDTH 5 0
BBX 5 9 0 -1
BITMAP
000100
0D4E10
087A00
010000
7CBE40
6F3C80
6E0B80
6E0C80
000C80
ENDCHAR
STARTCHAR uni1F25
ENCODING 7973
SWIDTH 562 0
DWIDTH 5 0
BBX 5 9 0 -1
BITMAP
000100
098E10
0C4A00
000000
7CBE40
6F3C80
6E0B80
6E0C80
000C80
ENDCHAR
STARTCHAR uni1F26
ENCODING 7974
SWIDTH 562 0
DWIDTH 5 0
BBX 5 9 0 -1
BITMAP
05B910
096C00
00D400
006300
7CBE40
6F3C80
6E0B80
6E0C80
000C80
ENDCHAR
STARTCHAR uni1F27
ENCODING 7975
SWIDTH 562 0
DWIDTH 5 0
BBX 5 9 0 -1
BITMAP
05B910
096C00
00A600
008100
7CBE40
6F3C80
6E0B80
6E0C80
000C80
ENDCHAR
STARTCHAR uni1F28
ENCODING 7976
SWIDTH 836 0
DWIDTH 8 0
BBX 7 6 0 0
BITMAP
D4D707D0
97D707D0
30DFFFD0
00D707D0
00D707D0
00D707D0
ENDCHAR
STARTCHAR uni1F29
ENCODING 7977
SWIDTH 836 0
DWIDTH 8 0
BBX 8 6 -1 0
BITMAP
0B7D707D
1E1D707D
031DFFFD
000D707D
000D707D
000D707D
ENDCHAR
STARTCHAR uni1F2A
ENCODING 7978
SWIDTH 999 0
DWIDTH 9 0
BBX 9 6 0 0
BITMAP
E6C6E00F50
93D6E00F50
0006FFFF50
0006E00F50
0006E00F50
0006E00F50
ENDCHAR
STARTCHAR uni1F2B
ENCODING 7979
SWIDTH 998 0
DWIDTH 9 0
BBX 10 6 -1 0
BITMAP
0B7C6E00F4
1D1D6E00F4
03006FFFF4
00006E00F4
00006E00F4
00006E00F4
ENDCHAR
STARTCHAR uni1F2C
ENCODING 7980
SWIDTH 990 0
DWIDTH 9 0
BBX 9 6 0 0
BITMAP
E5D7D02F30
04A7D02F30
0007FFFF30
0007D02F30
0007D02F30
0007D02F30
ENDCHAR
STARTCHAR uni1F2D
ENCODING 7981
SWIDTH 988 0
DWIDTH 9 0
BBX 10 6 -1 0
BITMAP
0B7D7D02F3
1D4A7D02F3
03007FFFF3
00007D02F3
00007D02F3
00007D02F3
ENDCHAR
STARTCHAR uni1F2E
ENCODING 7982
SWIDTH 896 0
DWIDTH 8 0
BBX 9 6 -1 0
BITMAP
1EE6F00E60
0975F00E60
0365FFFF60
0005F00E60
0005F00E60
0005F00E60
ENDCHAR
STARTCHAR uni1F2F
ENCODING 7983
SWIDTH 896 0
DWIDTH 8 0
BBX 9 6 -1 0
BITMAP
1EE6F00E60
0795F00E60
0645FFFF60
0005F00E60
0005F00E60
0005F00E60
ENDCHAR
STARTCHAR uni1F30
ENCODING 7984
SWIDTH 301 0
DWIDTH 3 0
BBX 3 7 0 0
BITMAP
8A00
2E10
1100
6E00
6D00
6D00
3E80
ENDCHAR
STARTCHAR uni1F31
ENCODING 7985
SWIDTH 301 0
DWIDTH 3 0
BBX 3 7 0 0
BITMAP
4E00
8800
0200
6E00
6D00
6D00
3E80
ENDCHAR
STARTCHAR uni1F32
ENCODING 7986
SWIDTH 301 0
DWIDTH 3 0
BBX 4 7 -1 0
BITMAP
7A96
2C47
0000
06E0
06D0
06D0
03E8
ENDCHAR
STARTCHAR uni1F33
ENCODING 7987
SWIDTH 301 0
DWIDTH 3 0
BBX 4 7 -1 0
BITMAP
4DA6
6857
0100
06E0
06D0
06D0
03E8
ENDCHAR
STARTCHAR uni1F34
ENCODING 7988
SWIDTH 301 0
DWIDTH 3 0
BBX 4 8 -1 0
BITMAP
0010
7A78
2C93
0000
06E0
06D0
06D0
03E8
ENDCHAR
STARTCHAR uni1F35
ENCODING 7989
SWIDTH 301 0
DWIDTH 3 0
BBX 4 8 -1 0
BITMAP
0010
3D88
4993
0100
06E0
06D0
06D0
03E8
ENDCHAR
STARTCHAR uni1F36
ENCODING 7990
SWIDTH 301 0
DWIDTH 3 0
BBX 4 8 -1 0
BITMAP
0C68
29B5
06A0
0180
06E0
06D0
06D0
03E8
ENDCHAR
STARTCHAR uni1F37
ENCODING 7991
SWIDTH 301 0
DWIDTH 3 0
BBX 4 8 -1 0
BITMAP
0C68
29B5
04C0
0460
06E0
06D0
06D0
03E8
ENDCHAR
STARTCHAR uni1F38
ENCODING 7992
SWIDTH 464 0
DWIDTH 4 0
BBX 4 6 0 0
BITMAP
D4D7
97D7
30D7
00D7
00D7
00D7
ENDCHAR
STARTCHAR uni1F39
ENCODING 7993
SWIDTH 464 0
DWIDTH 4 0
BBX 5 6 -1 0
BITMAP
0B7D70
1E1D70
031D70
000D70
000D70
000D70
ENDCHAR
STARTCHAR uni1F3A
ENCODING 7994
SWIDTH 627 0
DWIDTH 6 0
BBX 5 6 0 0
BITMAP
E6C6E0
93D6E0
0006E0
0006E0
0006E0
0006E0
ENDCHAR
STARTCHAR uni1F3B
ENCODING 7995
SWIDTH 626 0
DWIDTH 6 0
BBX 6 6 -1 0
BITMAP
0B7C6E
1D1D6E
03006E
00006E
00006E
00006E
ENDCHAR
STARTCHAR uni1F3C
ENCODING 7996
SWIDTH 617 0
DWIDTH 6 0
BBX 5 6 0 0
BITMAP
E5D7D0
04A7D0
0007D0
0007D0
0007D0
0007D0
ENDCHAR
STARTCHAR uni1F3D
ENCODING 7997
SWIDTH 616 0
DWIDTH 6 0
BBX 6 6 -1 0
BITMAP
0B7D7D
1D4A7D
03007D
00007D
00007D
00007D
ENDCHAR
STARTCHAR uni1F3E
ENCODING 7998
SWIDTH 524 0
DWIDTH 5 0
BBX 5 6 -1 0
BITMAP
1EE6F0
0975F0
0365F0
0005F0
0005F0
0005F0
ENDCHAR
STARTCHAR uni1F3F
ENCODING 7999
SWIDTH 524 0
DWIDTH 5 0
BBX 5 6 -1 0
BITMAP
1EE6F0
0795F0
0645F0
0005F0
0005F0
0005F0
ENDCHAR
STARTCHAR uni1F40
ENCODING 8000
SWIDTH 553 0
DWIDTH 5 0
BBX 5 7 0 0
BITMAP
04D200
00C400
002000
1BEB10
8D1D80
9D1D80
1BEB10
ENDCHAR
STARTCHAR uni1F41
ENCODING 8001
SWIDTH 553 0
DWIDTH 5 0
BBX 5 7 0 0
BITMAP
02C400
04C000
002000
1BEB10
8D1D80
9D1D80
1BEB10
ENDCHAR
STARTCHAR uni1F42
ENCODING 8002
SWIDTH 553 0
DWIDTH 5 0
BBX 5 8 0 0
BITMAP
000100
3C6A00
0B3B00
010000
1BEB10
8D1D80
9D1D80
1BEB10
ENDCHAR
STARTCHAR uni1F43
ENCODING 8003
SWIDTH 553 0
DWIDTH 5 0
BBX 5 8 0 0
BITMAP
000100
1C9A00
2C1B00
010000
1BEB10
8D1D80
9D1D80
1BEB10
ENDCHAR
STARTCHAR uni1F44
ENCODING 8004
SWIDTH 553 0
DWIDTH 5 0
BBX 5 8 0 0
BITMAP
000100
3C4C00
0B7700
010000
1BEB10
8D1D80
9D1D80
1BEB10
ENDCHAR
STARTCHAR uni1F45
ENCODING 8005
SWIDTH 553 0
DWIDTH 5 0
BBX 5 8 0 0
BITMAP
000100
0C8C00
1C5700
010000
1BEB10
8D1D80
9D1D80
1BEB10
ENDCHAR
STARTCHAR uni1F48
ENCODING 8008
SWIDTH 827 0
DWIDTH 7 0
BBX 7 6 0 0
BITMAP
D44CEB20
98E81BA0
34F106E0
04F206E0
01E81CA0
004CEB10
ENDCHAR
STARTCHAR uni1F49
ENCODING 8009
SWIDTH 808 0
DWIDTH 7 0
BBX 8 6 -1 0
BITMAP
0B76DE91
1E4F52D8
037E008C
006E008B
002F52D7
0005DE91
ENDCHAR
STARTCHAR uni1F4A
ENCODING 8010
SWIDTH 984 0
DWIDTH 9 0
BBX 9 6 0 0
BITMAP
E6C09ED600
93D7E24F30
000B900D70
000BA00D70
0007E24F30
00009ED600
ENDCHAR
STARTCHAR uni1F4B
ENCODING 8011
SWIDTH 996 0
DWIDTH 9 0
BBX 10 6 -1 0
BITMAP
0B7C09ED60
1D1D7E24F3
0300B900D7
0000BA00D7
00007E24F3
000009ED60
ENDCHAR
STARTCHAR uni1F4C
ENCODING 8012
SWIDTH 974 0
DWIDTH 9 0
BBX 9 6 0 0
BITMAP
E5D2AEC400
04AAC17E10
000E601F40
000E601F40
000AC17E10
0001AEC400
ENDCHAR
STARTCHAR uni1F4D
ENCODING 8013
SWIDTH 973 0
DWIDTH 9 0
BBX 10 6 -1 0
BITMAP
0B7D1AEC40
1D4AAC17E1
0300E601F4
0000E601F4
0000AC17E1
00001AEC40
ENDCHAR
STARTCHAR uni1F50
ENCODING 8016
SWIDTH 532 0
DWIDTH 5 0
BBX 5 7 0 0
BITMAP
06C100
01D200
002000
8B2F30
8B0E50
8C2F50
2CEA00
ENDCHAR
STARTCHAR uni1F51
ENCODING 8017
SWIDTH 532 0
DWIDTH 5 0
BBX 5 7 0 0
BITMAP
03D200
06A000
002000
8B2F30
8B0E50
8C2F50
2CEA00
ENDCHAR
STARTCHAR uni1F52
ENCODING 8018
SWIDTH 532 0
DWIDTH 5 0
BBX 5 8 0 0
BITMAP
000100
5B8800
0D3900
010000
8B2F30
8B0E50
8C2F50
2CEA00
ENDCHAR
STARTCHAR uni1F53
ENCODING 8019
SWIDTH 532 0
DWIDTH 5 0
BBX 5 8 0 0
BITMAP
000100
2D9800
4A3900
010000
8B2F30
8B0E50
8C2F50
2CEA00
ENDCHAR
STARTCHAR uni1F54
ENCODING 8020
SWIDTH 532 0
DWIDTH 5 0
BBX 5 7 0 0
BITMAP
5B5A00
0D7500
010000
8B2F30
8B0E50
8C2F50
2CEA00
ENDCHAR
STARTCHAR uni1F55
ENCODING 8021
SWIDTH 532 0
DWIDTH 5 0
BBX 5 7 0 0
BITMAP
2D8A00
3B7500
010000
8B2F30
8B0E50
8C2F50
2CEA00
ENDCHAR
STARTCHAR uni1F56
ENCODING 8022
SWIDTH 532 0
DWIDTH 5 0
BBX 5 8 0 0
BITMAP
0B6A00
0AA700
04C000
009000
8B2F30
8B0E50
8C2F50
2CEA00
ENDCHAR
STARTCHAR uni1F57
ENCODING 8023
SWIDTH 532 0
DWIDTH 5 0
BBX 5 8 0 0
BITMAP
0B6A00
0AA700
03D000
027000
8B2F30
8B0E50
8C2F50
2CEA00
ENDCHAR
STARTCHAR uni1F59
ENCODING 8025
SWIDTH 731 0
DWIDTH 7 0
BBX 8 6 -1 0
BITMAP
0B8E60E6
1E18C5E1
0311FC80
00009F10
00007D00
00007D00
ENDCHAR
STARTCHAR uni1F5B
ENCODING 8027
SWIDTH 910 0
DWIDTH 8 0
BBX 10 6 -1 0
BITMAP
0B7C6E15E1
1D1D0D6B90
030007CF20
000001EA00
000000C800
000000C800
ENDCHAR
STARTCHAR uni1F5D
ENCODING 8029
SWIDTH 900 0
DWIDTH 8 0
BBX 9 6 -1 0
BITMAP
0B7D7D06E0
1D4A1E4C70
030008CE10
000002F900
000000E600
000000E600
ENDCHAR
STARTCHAR uni1F5F
ENCODING 8031
SWIDTH 794 0
DWIDTH 7 0
BBX 9 6 -1 0
BITMAP
1EE8E05E10
0791E5B800
06408CF100
00001F9000
00000D7000
00000D7000
ENDCHAR
STARTCHAR uni1F60
ENCODING 8032
SWIDTH 746 0
DWIDTH 7 0
BBX 7 7 0 0
BITMAP
006C1000
001D2000
00020000
4E104D10
9A4F1F40
8B6F2F40
2DE8EB00
ENDCHAR
STARTCHAR uni1F61
ENCODING 8033
SWIDTH 746 0
DWIDTH 7 0
BBX 7 7 0 0
BITMAP
003D2000
006A0000
00020000
4E104D10
9A4F1F40
8B6F2F40
2DE8EB00
ENDCHAR
STARTCHAR uni1F62
ENCODING 8034
SWIDTH 746 0
DWIDTH 7 0
BBX 7 8 0 0
BITMAP
00001000
05B88000
00D39000
00100000
4E104D10
9A4F1F40
8B6F2F40
2DE8EB00
ENDCHAR
STARTCHAR uni1F63
ENCODING 8035
SWIDTH 746 0
DWIDTH 7 0
BBX 7 8 0 0
BITMAP
00001000
02D98000
04A39000
00100000
4E104D10
9A4F1F40
8B6F2F40
2DE8EB00
ENDCHAR
STARTCHAR uni1F64
ENCODING 8036
SWIDTH 746 0
DWIDTH 7 0
BBX 7 7 0 0
BITMAP
05B5A000
00D75000
00100000
4E104D10
9A4F1F40
8B6F2F40
2DE8EB00
ENDCHAR
STARTCHAR uni1F65
ENCODING 8037
SWIDTH 746 0
DWIDTH 7 0
BBX 7 7 0 0
BITMAP
02D8A000
03B75000
00100000
4E104D10
9A4F1F40
8B6F2F40
2DE8EB00
ENDCHAR
STARTCHAR uni1F66
ENCODING 8038
SWIDTH 746 0
DWIDTH 7 0
BBX 7 8 0 0
BITMAP
00B6A000
00AA7000
004C0000
00090000
4E104D10
9A4F1F40
8B6F2F40
2DE8EB00
ENDCHAR
STARTCHAR uni1F67
ENCODING 8039
SWIDTH 746 0
DWIDTH 7 0
BBX 7 8 0 0
BITMAP
00B6A000
00AA7000
003D0000
00270000
4E104D10
9A4F1F40
8B6F2F40
2DE8EB00
ENDCHAR
STARTCHAR uni1F68
ENCODING 8040
SWIDTH 853 0
DWIDTH 8 0
BBX 8 6 0 0
BITMAP
D43CEB20
98D91AC0
32F304F1
01F505F1
00AB0B90
05FF3FF4
ENDCHAR
STARTCHAR uni1F69
ENCODING 8041
SWIDTH 835 0
DWIDTH 8 0
BBX 9 6 -1 0
BITMAP
0B74DEA100
1E2E71CA00
035F106E00
004F208D00
000C81D700
008FE4FF20
ENDCHAR
STARTCHAR uni1F6A
ENCODING 8042
SWIDTH 1018 0
DWIDTH 9 0
BBX 9 6 0 0
BITMAP
E6C08EE700
93D6E33F50
0009B00B90
0009C00D80
0003F34E20
000DF8AFC0
ENDCHAR
STARTCHAR uni1F6B
ENCODING 8043
SWIDTH 1017 0
DWIDTH 9 0
BBX 10 6 -1 0
BITMAP
0B7C08EE70
1D1D6E33F5
03009B00B9
00009C00D8
00003F34E2
0000DF8AFC
ENDCHAR
STARTCHAR uni1F6C
ENCODING 8044
SWIDTH 1008 0
DWIDTH 9 0
BBX 9 6 0 0
BITMAP
E5D09ED600
04A7E24F30
000B900D70
000AB00E70
0004E35E10
000EF7BFA0
ENDCHAR
STARTCHAR uni1F6D
ENCODING 8045
SWIDTH 1007 0
DWIDTH 9 0
BBX 10 6 -1 0
BITMAP
0B7D09ED60
1D4A7D24F3
0300B900D7
0000AB00E6
00004E26E1
0000EF7BFA
ENDCHAR
STARTCHAR uni1F6E
ENCODING 8046
SWIDTH 877 0
DWIDTH 8 0
BBX 9 6 -1 0
BITMAP
1EE3AED400
097AC17E10
036D700F50
000D802F40
0007D18C00
002FF4EF80
ENDCHAR
STARTCHAR uni1F6F
ENCODING 8047
SWIDTH 877 0
DWIDTH 8 0
BBX 9 6 -1 0
BITMAP
1EE3AED400
079AC17E10
064D700F50
000D802F40
0007D18C00
002FF4EF80
ENDCHAR
STARTCHAR uni1F70
ENCODING 8048
SWIDTH 595 0
DWIDTH 5 0
BBX 6 7 0 0
BITMAP
0A5000
03C100
000000
2CEAD0
9C1D90
9C1D70
3DEAF3
ENDCHAR
STARTCHAR uni1F71
ENCODING 8049
SWIDTH 595 0
DWIDTH 5 0
BBX 6 7 0 0
BITMAP
002B20
009600
000000
2CEAD0
9C1D90
9C1D70
3DEAF3
ENDCHAR
STARTCHAR uni1F72
ENCODING 8050
SWIDTH 471 0
DWIDTH 4 0
BBX 4 7 0 0
BITMAP
2B20
0790
0000
4DFA
3FF3
9C12
4DFB
ENDCHAR
STARTCHAR uni1F73
ENCODING 8051
SWIDTH 471 0
DWIDTH 4 0
BBX 4 7 0 0
BITMAP
005A
01C3
0000
4DFA
3FF3
9C12
4DFB
ENDCHAR
STARTCHAR uni1F74
ENCODING 8052
SWIDTH 562 0
DWIDTH 5 0
BBX 5 8 0 -1
BITMAP
096000
02C100
000000
7CBE40
6F3C80
6E0B80
6E0C80
000C80
ENDCHAR
STARTCHAR uni1F75
ENCODING 8053
SWIDTH 562 0
DWIDTH 5 0
BBX 5 8 0 -1
BITMAP
001B30
008800
000000
7CBE40
6F3C80
6E0B80
6E0C80
000C80
ENDCHAR
STARTCHAR uni1F76
ENCODING 8054
SWIDTH 301 0
DWIDTH 3 0
BBX 4 7 -1 0
BITMAP
3B10
0880
0000
06E0
06D0
06D0
03E8
ENDCHAR
STARTCHAR uni1F77
ENCODING 8055
SWIDTH 301 0
DWIDTH 3 0
BBX 3 7 0 0
BITMAP
0690
2C20
0000
6E00
6D00
6D00
3E80
ENDCHAR
STARTCHAR uni1F78
ENCODING 8056
SWIDTH 553 0
DWIDTH 5 0
BBX 5 7 0 0
BITMAP
0B3000
05B000
000000
1BEB10
8D1D80
9D1D80
1BEB10
ENDCHAR
STARTCHAR uni1F79
ENCODING 8057
SWIDTH 553 0
DWIDTH 5 0
BBX 5 7 0 0
BITMAP
003B10
00B500
000000
1BEB10
8D1D80
9D1D80
1BEB10
ENDCHAR
STARTCHAR uni1F7A
ENCODING 8058
SWIDTH 532 0
DWIDTH 5 0
BBX 5 7 0 0
BITMAP
2B2000
069000
000000
8B2F30
8B0E50
8C2F50
2CEA00
ENDCHAR
STARTCHAR uni1F7B
ENCODING 8059
SWIDTH 532 0
DWIDTH 5 0
BBX 5 7 0 0
BITMAP
005A00
01C300
000000
8B2F30
8B0E50
8C2F50
2CEA00
ENDCHAR
STARTCHAR uni1F7C
ENCODING 8060
SWIDTH 746 0
DWIDTH 7 0
BBX 7 7 0 0
BITMAP
02B20000
00690000
00000000
4E104D10
9A4F1F40
8B6F2F40
2DE8EB00
ENDCHAR
STARTCHAR uni1F7D
ENCODING 8061
SWIDTH 746 0
DWIDTH 7 0
BBX 7 7 0 0
BITMAP
0005A000
001C3000
00000000
4E104D10
9A4F1F40
8B6F2F40
2DE8EB00
ENDCHAR
STARTCHAR uni1F80
ENCODING 8064
SWIDTH 595 0
DWIDTH 5 0
BBX 6 9 0 -2
BITMAP
02D300
00A600
002000
2CEAD0
9C1D90
9C1D70
3DEAF3
000000
009700
ENDCHAR
STARTCHAR uni1F81
ENCODING 8065
SWIDTH 595 0
DWIDTH 5 0
BBX 6 9 0 -2
BITMAP
01B600
02D100
002000
2CEAD0
9C1D90
9C1D70
3DEAF3
000000
009700
ENDCHAR
STARTCHAR uni1F82
ENCODING 8066
SWIDTH 595 0
DWIDTH 5 0
BBX 6 10 0 -2
BITMAP
000100
1D6C00
0A4B00
010000
2CEAD0
9C1D90
9C1D70
3DEAF3
000000
009700
ENDCHAR
STARTCHAR uni1F83
ENCODING 8067
SWIDTH 595 0
DWIDTH 5 0
BBX 6 10 0 -2
BITMAP
000100
0B9C00
1D1C00
010000
2CEAD0
9C1D90
9C1D70
3DEAF3
000000
009700
ENDCHAR
STARTCHAR uni1F84
ENCODING 8068
SWIDTH 595 0
DWIDTH 5 0
BBX 6 10 0 -2
BITMAP
000100
1D3E00
0A7900
010000
2CEAD0
9C1D90
9C1D70
3DEAF3
000000
009700
ENDCHAR
STARTCHAR uni1F85
ENCODING 8069
SWIDTH 595 0
DWIDTH 5 0
BBX 6 10 0 -2
BITMAP
000100
0A8E00
0D4900
000000
2CEAD0
9C1D90
9C1D70
3DEAF3
000000
009700
ENDCHAR
STARTCHAR uni1F86
ENCODING 8070
SWIDTH 595 0
DWIDTH 5 0
BBX 6 10 0 -2
BITMAP
07AA00
0A6B00
00D300
007200
2CEAD0
9C1D90
9C1D70
3DEAF3
000000
009700
ENDCHAR
STARTCHAR uni1F87
ENCODING 8071
SWIDTH 595 0
DWIDTH 5 0
BBX 6 10 0 -2
BITMAP
07AA00
0A6B00
00C400
009000
2CEAD0
9C1D90
9C1D70
3DEAF3
000000
009700
ENDCHAR
STARTCHAR uni1F88
ENCODING 8072
SWIDTH 949 0
DWIDTH 9 0
BBX 9 6 0 0
BITMAP
D4AF400000
88EC900000
34E6D08C00
08B3F38B00
0DFFF78B00
2F30AC4E70
ENDCHAR
STARTCHAR uni1F89
ENCODING 8073
SWIDTH 933 0
DWIDTH 8 0
BBX 10 6 -1 0
BITMAP
0B7CF20000
1E3FC60000
037D8B0B90
00A95F1B90
01EFFF5A90
05F10CA6E4
ENDCHAR
STARTCHAR uni1F8A
ENCODING 8074
SWIDTH 1116 0
DWIDTH 10 0
BBX 10 6 0 0
BITMAP
E6C2FB0000
93D7CF1000
000B7E61F4
001F4AA1F3
005FFFE1F3
00AB02F4BE
ENDCHAR
STARTCHAR uni1F8B
ENCODING 8075
SWIDTH 1115 0
DWIDTH 10 0
BBX 11 6 -1 0
BITMAP
0B7C2FB00000
1D1D7CF10000
0300B7E61F40
0001F4AA1F30
0005FFFE1F30
000AB02F4BE0
ENDCHAR
STARTCHAR uni1F8C
ENCODING 8076
SWIDTH 1106 0
DWIDTH 10 0
BBX 10 6 0 0
BITMAP
E5D3FA0000
04A8CE0000
000C6E42F2
002F3C92F2
007FFFE2F2
00BA03F4CC
ENDCHAR
STARTCHAR uni1F8D
ENCODING 8077
SWIDTH 1105 0
DWIDTH 10 0
BBX 11 6 -1 0
BITMAP
0B7D4FA00000
1D4A8CE00000
0300D6F42F20
0002F3C92F20
0007FFFD2F20
000B903F3CC0
ENDCHAR
STARTCHAR uni1F8E
ENCODING 8078
SWIDTH 973 0
DWIDTH 9 0
BBX 10 6 -1 0
BITMAP
1EE8F70000
097BCC0000
037F6F15F0
005E0E65E0
00AFFFB5E0
00E606F2DA
ENDCHAR
STARTCHAR uni1F8F
ENCODING 8079
SWIDTH 973 0
DWIDTH 9 0
BBX 10 6 -1 0
BITMAP
1EE8F70000
079BCC0000
064F6F15F0
005E0E65E0
00AFFFB5E0
00E606F2DA
ENDCHAR
STARTCHAR uni1F90
ENCODING 8080
SWIDTH 562 0
DWIDTH 5 0
BBX 5 9 0 -2
BITMAP
00E400
009800
002000
7CBE40
6F3C80
6E0B80
6E0C80
000C80
2C2000
ENDCHAR
STARTCHAR uni1F91
ENCODING 8081
SWIDTH 562 0
DWIDTH 5 0
BBX 5 9 0 -2
BITMAP
00A800
01E200
001000
7CBE40
6F3C80
6E0B80
6E0C80
000C80
2C2000
ENDCHAR
STARTCHAR uni1F92
ENCODING 8082
SWIDTH 562 0
DWIDTH 5 0
BBX 5 10 0 -2
BITMAP
000100
0D5E00
085B00
010000
7CBE40
6F3C80
6E0B80
6E0C80
000C80
2C2000
ENDCHAR
STARTCHAR uni1F93
ENCODING 8083
SWIDTH 562 0
DWIDTH 5 0
BBX 5 10 0 -2
BITMAP
000100
0A9D00
0C1B00
000000
7CBE40
6F3C80
6E0B80
6E0C80
000C80
2C2000
ENDCHAR
STARTCHAR uni1F94
ENCODING 8084
SWIDTH 562 0
DWIDTH 5 0
BBX 5 10 0 -2
BITMAP
000100
0D4E10
087A00
010000
7CBE40
6F3C80
6E0B80
6E0C80
000C80
2C2000
ENDCHAR
STARTCHAR uni1F95
ENCODING 8085
SWIDTH 562 0
DWIDTH 5 0
BBX 5 10 0 -2
BITMAP
000100
098E10
0C4A00
000000
7CBE40
6F3C80
6E0B80
6E0C80
000C80
2C2000
ENDCHAR
STARTCHAR uni1F96
ENCODING 8086
SWIDTH 562 0
DWIDTH 5 0
BBX 5 10 0 -2
BITMAP
05B910
096C00
00D400
006300
7CBE40
6F3C80
6E0B80
6E0C80
000C80
2C2000
ENDCHAR
STARTCHAR uni1F97
ENCODING 8087
SWIDTH 562 0
DWIDTH 5 0
BBX 5 10 0 -2
BITMAP
05B910
096C00
00A600
008100
7CBE40
6F3C80
6E0B80
6E0C80
000C80
2C2000
ENDCHAR
STARTCHAR uni1F98
ENCODING 8088
SWIDTH 1131 0
DWIDTH 10 0
BBX 11 6 0 0
BITMAP
D4D707D00000
97D707D00000
30DFFFD0E600
00D707D0E500
00D707D0E500
00D707D09F10
ENDCHAR
STARTCHAR uni1F99
ENCODING 8089
SWIDTH 1131 0
DWIDTH 10 0
BBX 12 6 -1 0
BITMAP
0B7D707D0000
1E1D707D0000
031DFFFD0E60
000D707D0E50
000D707D0E50
000D707D09F1
ENDCHAR
STARTCHAR uni1F9A
ENCODING 8090
SWIDTH 1294 0
DWIDTH 12 0
BBX 12 6 0 0
BITMAP
E6C6E00F5000
93D6E00F5000
0006FFFF57D0
0006E00F57C0
0006E00F57C0
0006E00F53E8
ENDCHAR
STARTCHAR uni1F9B
ENCODING 8091
SWIDTH 1293 0
DWIDTH 12 0
BBX 13 6 -1 0
BITMAP
0B7C6E00F40000
1D1D6E00F40000
03006FFFF47D00
00006E00F47C00
00006E00F47C00
00006E00F43E80
ENDCHAR
STARTCHAR uni1F9C
ENCODING 8092
SWIDTH 1284 0
DWIDTH 12 0
BBX 12 6 0 0
BITMAP
E5D7D02F3000
04A7D02F3000
0007FFFF38C0
0007D02F38B0
0007D02F38B0
0007D02F34E7
ENDCHAR
STARTCHAR uni1F9D
ENCODING 8093
SWIDTH 1283 0
DWIDTH 12 0
BBX 13 6 -1 0
BITMAP
0B7D7D02F30000
1D4A7D02F30000
03007FFFF38B00
00007D02F38B00
00007D02F38B00
00007D02F34E60
ENDCHAR
STARTCHAR uni1F9E
ENCODING 8094
SWIDTH 1190 0
DWIDTH 11 0
BBX 12 6 -1 0
BITMAP
1EE6F00E6000
0975F00E6000
0365FFFF66E0
0005F00E66D0
0005F00E66D0
0005F00E62E9
ENDCHAR
STARTCHAR uni1F9F
ENCODING 8095
SWIDTH 1190 0
DWIDTH 11 0
BBX 12 6 -1 0
BITMAP
1EE6F00E6000
0795F00E6000
0645FFFF66E0
0005F00E66D0
0005F00E66D0
0005F00E62E9
ENDCHAR
STARTCHAR uni1FA0
ENCODING 8096
SWIDTH 746 0
DWIDTH 7 0
BBX 7 9 0 -2
BITMAP
006C1000
001D2000
00020000
4E104D10
9A4F1F40
8B6F2F40
2DE8EB00
00000000
001D2000
ENDCHAR
STARTCHAR uni1FA1
ENCODING 8097
SWIDTH 746 0
DWIDTH 7 0
BBX 7 9 0 -2
BITMAP
003D2000
006A0000
00020000
4E104D10
9A4F1F40
8B6F2F40
2DE8EB00
00000000
001D2000
ENDCHAR
STARTCHAR uni1FA2
ENCODING 8098
SWIDTH 746 0
DWIDTH 7 0
BBX 7 10 0 -2
BITMAP
00001000
05B88000
00D39000
00100000
4E104D10
9A4F1F40
8B6F2F40
2DE8EB00
00000000
001D2000
ENDCHAR
STARTCHAR uni1FA3
ENCODING 8099
SWIDTH 746 0
DWIDTH 7 0
BBX 7 10 0 -2
BITMAP
00001000
02D98000
04A39000
00100000
4E104D10
9A4F1F40
8B6F2F40
2DE8EB00
00000000
001D2000
ENDCHAR
STARTCHAR uni1FA4
ENCODING 8100
SWIDTH 746 0
DWIDTH 7 0
BBX 7 9 0 -2
BITMAP
05B5A000
00D75000
00100000
4E104D10
9A4F1F40
8B6F2F40
2DE8EB00
00000000
001D2000
ENDCHAR
STARTCHAR uni1FA5
ENCODING 8101
SWIDTH 746 0
DWIDTH 7 0
BBX 7 9 0 -2
BITMAP
02D8A000
03B75000
00100000
4E104D10
9A4F1F40
8B6F2F40
2DE8EB00
00000000
001D2000
ENDCHAR
STARTCHAR uni1FA6
ENCODING 8102
SWIDTH 746 0
DWIDTH 7 0
BBX 7 10 0 -2
BITMAP
00B6A000
00AA7000
004C0000
00090000
4E104D10
9A4F1F40
8B6F2F40
2DE8EB00
00000000
001D2000
ENDCHAR
STARTCHAR uni1FA7
ENCODING 8103
SWIDTH 746 0
DWIDTH 7 0
BBX 7 10 0 -2
BITMAP
00B6A000
00AA7000
003D0000
00270000
4E104D10
9A4F1F40
8B6F2F40
2DE8EB00
00000000
001D2000
ENDCHAR
STARTCHAR uni1FA8
ENCODING 8104
SWIDTH 1147 0
DWIDTH 10 0
BBX 11 6 0 0
BITMAP
D43CEB200000
98D91AC00000
32F304F1C800
01F505F1C800
00AB0B90B800
05FF3FF47F30
ENDCHAR
STARTCHAR uni1FA9
ENCODING 8105
SWIDTH 1129 0
DWIDTH 10 0
BBX 12 6 -1 0
BITMAP
0B74DEA10000
1E2E71CA0000
035F106E0E60
004F208D0E50
000C81D70E50
008FE4FF29F1
ENDCHAR
STARTCHAR uni1FAA
ENCODING 8106
SWIDTH 1313 0
DWIDTH 12 0
BBX 12 6 0 0
BITMAP
E6C08EE70000
93D6E33F5000
0009B00B94F0
0009C00D84F0
0003F34E24F0
000DF8AFC1DA
ENDCHAR
STARTCHAR uni1FAB
ENCODING 8107
SWIDTH 1311 0
DWIDTH 12 0
BBX 13 6 -1 0
BITMAP
0B7C08EE700000
1D1D6E33F50000
03009B00B94F00
00009C00D84F00
00003F34E24F00
0000DF8AFC1DA0
ENDCHAR
STARTCHAR uni1FAC
ENCODING 8108
SWIDTH 1303 0
DWIDTH 12 0
BBX 12 6 0 0
BITMAP
E5D09ED60000
04A7E24F3000
000B900D76E0
000AB00E76D0
0004E35E16D0
000EF7BFA2E9
ENDCHAR
STARTCHAR uni1FAD
ENCODING 8109
SWIDTH 1302 0
DWIDTH 12 0
BBX 13 6 -1 0
BITMAP
0B7D09ED600000
1D4A7D24F30000
0300B900D76E00
0000AB00E66D00
00004E26E16D00
0000EF7BFA2E90
ENDCHAR
STARTCHAR uni1FAE
ENCODING 8110
SWIDTH 1172 0
DWIDTH 11 0
BBX 12 6 -1 0
BITMAP
1EE3AED40000
097AC17E1000
036D700F58B0
000D802F48B0
0007D18C08B0
002FF4EF84E6
ENDCHAR
STARTCHAR uni1FAF
ENCODING 8111
SWIDTH 1172 0
DWIDTH 11 0
BBX 12 6 -1 0
BITMAP
1EE3AED40000
079AC17E1000
064D700F58B0
000D802F48B0
0007D18C08B0
002FF4EF84E6
ENDCHAR
STARTCHAR uni1FB0
ENCODING 8112
SWIDTH 595 0
DWIDTH 5 0
BBX 6 8 0 0
BITMAP
010100
0C2C10
05E900
000000
2CEAD0
9C1D90
9C1D70
3DEAF3
ENDCHAR
STARTCHAR uni1FB1
ENCODING 8113
SWIDTH 595 0
DWIDTH 5 0
BBX 6 6 0 0
BITMAP
0AFF00
000000
2CEAD0
9C1D90
9C1D70
3DEAF3
ENDCHAR
STARTCHAR uni1FB2
ENCODING 8114
SWIDTH 595 0
DWIDTH 5 0
BBX 6 9 0 -2
BITMAP
0A5000
03C100
000000
2CEAD0
9C1D90
9C1D70
3DEAF3
000000
009700
ENDCHAR
STARTCHAR uni1FB3
ENCODING 8115
SWIDTH 595 0
DWIDTH 5 0
BBX 6 6 0 -2
BITMAP
2CEAD0
9C1D90
9C1D70
3DEAF3
000000
009700
ENDCHAR
STARTCHAR uni1FB4
ENCODING 8116
SWIDTH 595 0
DWIDTH 5 0
BBX 6 9 0 -2
BITMAP
002B20
009600
000000
2CEAD0
9C1D90
9C1D70
3DEAF3
000000
009700
ENDCHAR
STARTCHAR uni1FB6
ENCODING 8118
SWIDTH 595 0
DWIDTH 5 0
BBX 6 8 0 0
BITMAP
000210
0ACB40
0C4800
000000
2CEAD0
9C1D90
9C1D70
3DEAF3
ENDCHAR
STARTCHAR uni1FB7
ENCODING 8119
SWIDTH 595 0
DWIDTH 5 0
BBX 6 10 0 -2
BITMAP
000210
0ACB40
0C4800
000000
2CEAD0
9C1D90
9C1D70
3DEAF3
000000
009700
ENDCHAR
STARTCHAR uni1FB8
ENCODING 8120
SWIDTH 573 0
DWIDTH 5 0
BBX 6 8 0 0
BITMAP
0B1B00
07E800
06F800
0ACD00
0E6F20
4F1E70
9FFFB0
D706F1
ENDCHAR
STARTCHAR uni1FB9
ENCODING 8121
SWIDTH 573 0
DWIDTH 5 0
BBX 6 7 0 0
BITMAP
0CFE00
06F800
0ACD00
0E6F20
4F1E70
9FFFB0
D706F1
ENDCHAR
STARTCHAR uni1FBA
ENCODING 8122
SWIDTH 622 0
DWIDTH 6 0
BBX 6 6 0 0
BITMAP
E1EE00
B6DE40
08AB90
0D77D0
2FFFF3
7E00E8
ENDCHAR
STARTCHAR uni1FBB
ENCODING 8123
SWIDTH 622 0
DWIDTH 6 0
BBX 6 6 0 0
BITMAP
C3EE00
E4DE40
08AB90
0D77D0
2FFFF3
7E00E8
ENDCHAR
STARTCHAR uni1FBC
ENCODING 8124
SWIDTH 867 0
DWIDTH 8 0
BBX 8 6 0 0
BITMAP
06F80000
0ACD0000
0E6F24F0
4F1E74F0
9FFFB4F0
D706F2DA
ENDCHAR
STARTCHAR uni1FBD
ENCODING 8125
SWIDTH 555 0
DWIDTH 5 0
BBX 3 3 1 4
BITMAP
4D20
0C40
0200
ENDCHAR
STARTCHAR uni1FBE
ENCODING 8126
SWIDTH 301 0
DWIDTH 3 0
BBX 3 4 0 0
BITMAP
6E00
6D00
6D00
2E80
ENDCHAR
STARTCHAR uni1FBF
ENCODING 8127
SWIDTH 555 0
DWIDTH 5 0
BBX 3 3 1 4
BITMAP
4D20
0C40
0200
ENDCHAR
STARTCHAR uni1FC0
ENCODING 8128
SWIDTH 555 0
DWIDTH 5 0
BBX 5 3 0 5
BITMAP
000310
0CBD20
2A6700
ENDCHAR
STARTCHAR uni1FC1
ENCODING 8129
SWIDTH 555 0
DWIDTH 5 0
BBX 3 3 1 5
BITMAP
9890
9890
C0C0
ENDCHAR
STARTCHAR uni1FC2
ENCODING 8130
SWIDTH 562 0
DWIDTH 5 0
BBX 5 9 0 -2
BITMAP
096000
02C100
000000
7CBE40
6F3C80
6E0B80
6E0C80
000C80
2C2000
ENDCHAR
STARTCHAR uni1FC3
ENCODING 8131
SWIDTH 562 0
DWIDTH 5 0
BBX 5 6 0 -2
BITMAP
7CBE40
6F3C80
6E0B80
6E0C80
000C80
2C2000
ENDCHAR
STARTCHAR uni1FC4
ENCODING 8132
SWIDTH 562 0
DWIDTH 5 0
BBX 5 9 0 -2
BITMAP
001B30
008800
000000
7CBE40
6F3C80
6E0B80
6E0C80
000C80
2C2000
ENDCHAR
STARTCHAR uni1FC6
ENCODING 8134
SWIDTH 562 0
DWIDTH 5 0
BBX 5 9 0 -1
BITMAP
000220
09DA50
0C4910
000000
7CBE40
6F3C80
6E0B80
6E0C80
000C80
ENDCHAR
STARTCHAR uni1FC7
ENCODING 8135
SWIDTH 562 0
DWIDTH 5 0
BBX 5 10 0 -2
BITMAP
000220
09DA50
0C4910
000000
7CBE40
6F3C80
6E0B80
6E0C80
000C80
2C2000
ENDCHAR
STARTCHAR uni1FC8
ENCODING 8136
SWIDTH 667 0
DWIDTH 6 0
BBX 7 6 -1 0
BITMAP
1E4FFF70
0C5F1000
004FFF10
004F1000
004F1000
004FFF80
ENDCHAR
STARTCHAR uni1FC9
ENCODING 8137
SWIDTH 667 0
DWIDTH 6 0
BBX 7 6 -1 0
BITMAP
0D5FFF70
1D4F1000
004FFF10
004F1000
004F1000
004FFF80
ENDCHAR
STARTCHAR uni1FCA
ENCODING 8138
SWIDTH 792 0
DWIDTH 7 0
BBX 8 6 -1 0
BITMAP
1E4F10D7
0C5F10D7
004FFFF7
004F10D7
004F10D7
004F10D7
ENDCHAR
STARTCHAR uni1FCB
ENCODING 8139
SWIDTH 792 0
DWIDTH 7 0
BBX 8 6 -1 0
BITMAP
0D5F10D7
1D4F10D7
004FFFF7
004F10D7
004F10D7
004F10D7
ENDCHAR
STARTCHAR uni1FCC
ENCODING 8140
SWIDTH 968 0
DWIDTH 9 0
BBX 9 6 0 0
BITMAP
5F00E60000
5F00E60000
5FFFF66E00
5F00E66D00
5F00E66D00
5F00E62E90
ENDCHAR
STARTCHAR uni1FCD
ENCODING 8141
SWIDTH 555 0
DWIDTH 5 0
BBX 4 4 0 4
BITMAP
0001
3C6A
0C3B
0100
ENDCHAR
STARTCHAR uni1FCE
ENCODING 8142
SWIDTH 555 0
DWIDTH 5 0
BBX 4 4 0 4
BITMAP
0001
3C4C
0C77
0100
ENDCHAR
STARTCHAR uni1FCF
ENCODING 8143
SWIDTH 555 0
DWIDTH 5 0
BBX 3 4 1 4
BITMAP
98A0
A890
2D10
0810
ENDCHAR
STARTCHAR uni1FD0
ENCODING 8144
SWIDTH 301 0
DWIDTH 3 0
BBX 4 8 -1 0
BITMAP
0101
3A4A
0BE4
0000
06E0
06D0
06D0
03E8
ENDCHAR
STARTCHAR uni1FD1
ENCODING 8145
SWIDTH 301 0
DWIDTH 3 0
BBX 4 6 -1 0
BITMAP
1FF8
0000
06E0
06D0
06D0
03E8
ENDCHAR
STARTCHAR uni1FD2
ENCODING 8146
SWIDTH 301 0
DWIDTH 3 0
BBX 4 8 -1 0
BITMAP
0110
0670
578B
0000
06E0
06D0
06D0
03E8
ENDCHAR
STARTCHAR uni1FD3
ENCODING 8147
SWIDTH 301 0
DWIDTH 3 0
BBX 4 8 -1 0
BITMAP
0020
00D0
587B
0000
06E0
06D0
06D0
03E8
ENDCHAR
STARTCHAR uni1FD6
ENCODING 8150
SWIDTH 301 0
DWIDTH 3 0
BBX 4 8 -1 0
BITMAP
0004
2E9C
6784
0000
06E0
06D0
06D0
03E8
ENDCHAR
STARTCHAR uni1FD7
ENCODING 8151
SWIDTH 301 0
DWIDTH 3 0
BBX 4 8 -1 0
BITMAP
0D58
28B5
2A39
0000
06E0
06D0
06D0
03E8
ENDCHAR
STARTCHAR uni1FD8
ENCODING 8152
SWIDTH 301 0
DWIDTH 3 0
BBX 4 8 -1 0
BITMAP
1B2A
09E5
05F0
05F0
05F0
05F0
05F0
05F0
ENDCHAR
STARTCHAR uni1FD9
ENCODING 8153
SWIDTH 301 0
DWIDTH 3 0
BBX 3 7 0 0
BITMAP
FFB0
5F00
5F00
5F00
5F00
5F00
5F00
ENDCHAR
STARTCHAR uni1FDA
ENCODING 8154
SWIDTH 420 0
DWIDTH 4 0
BBX 5 6 -1 0
BITMAP
1E4F10
0C5F10
004F10
004F10
004F10
004F10
ENDCHAR
STARTCHAR uni1FDB
ENCODING 8155
SWIDTH 420 0
DWIDTH 4 0
BBX 5 6 -1 0
BITMAP
0D5F10
1D4F10
004F10
004F10
004F10
004F10
ENDCHAR
STARTCHAR uni1FDD
ENCODING 8157
SWIDTH 555 0
DWIDTH 5 0
BBX 4 4 0 4
BITMAP
0001
1C9A
2C1B
0100
ENDCHAR
STARTCHAR uni1FDE
ENCODING 8158
SWIDTH 555 0
DWIDTH 5 0
BBX 4 3 0 4
BITMAP
1C8C
1C57
0100
ENDCHAR
STARTCHAR uni1FDF
ENCODING 8159
SWIDTH 555 0
DWIDTH 5 0
BBX 3 4 1 4
BITMAP
98A0
A890
1D20
1800
ENDCHAR
STARTCHAR uni1FE0
ENCODING 8160
SWIDTH 532 0
DWIDTH 5 0
BBX 5 8 0 0
BITMAP
010100
1C2C00
09E500
000000
8B2F30
8B0E50
8C2F50
2CEA00
ENDCHAR
STARTCHAR uni1FE1
ENCODING 8161
SWIDTH 532 0
DWIDTH 5 0
BBX 5 6 0 0
BITMAP
0FFA00
000000
8B2F30
8B0E50
8C2F50
2CEA00
ENDCHAR
STARTCHAR uni1FE2
ENCODING 8162
SWIDTH 532 0
DWIDTH 5 0
BBX 5 8 0 0
BITMAP
001000
049000
388B00
000000
8B2F30
8B0E50
8C2F50
2CEA00
ENDCHAR
STARTCHAR uni1FE3
ENCODING 8163
SWIDTH 532 0
DWIDTH 5 0
BBX 5 8 0 0
BITMAP
001000
00D000
388B00
000000
8B2F30
8B0E50
8C2F50
2CEA00
ENDCHAR
STARTCHAR uni1FE4
ENCODING 8164
SWIDTH 569 0
DWIDTH 5 0
BBX 5 8 0 -1
BITMAP
01D400
00A700
002000
0AED30
5E2BA0
7D1BA0
7EED20
7D0000
ENDCHAR
STARTCHAR uni1FE5
ENCODING 8165
SWIDTH 569 0
DWIDTH 5 0
BBX 5 8 0 -1
BITMAP
00B700
02E100
001000
0AED30
5E2BA0
7D1BA0
7EED20
7D0000
ENDCHAR
STARTCHAR uni1FE6
ENCODING 8166
SWIDTH 532 0
DWIDTH 5 0
BBX 5 8 0 0
BITMAP
000400
1D9D00
487600
000000
8B2F30
8B0E50
8C2F50
2CEA00
ENDCHAR
STARTCHAR uni1FE7
ENCODING 8167
SWIDTH 532 0
DWIDTH 5 0
BBX 5 8 0 0
BITMAP
0B6900
09A700
1B1A00
000000
8B2F30
8B0E50
8C2F50
2CEA00
ENDCHAR
STARTCHAR uni1FE8
ENCODING 8168
SWIDTH 525 0
DWIDTH 5 0
BBX 5 8 0 0
BITMAP
1B2A00
09E500
D80C90
6E3F20
0ECA00
07F300
04F000
04F000
ENDCHAR
STARTCHAR uni1FE9
ENCODING 8169
SWIDTH 525 0
DWIDTH 5 0
BBX 5 7 0 0
BITMAP
0FFB00
D80C90
6E3F20
0ECA00
07F300
04F000
04F000
ENDCHAR
STARTCHAR uni1FEA
ENCODING 8170
SWIDTH 704 0
DWIDTH 6 0
BBX 8 6 -1 0
BITMAP
1E4F23F3
0C1C88B0
0005DE40
0000DC00
0000AA00
0000AA00
ENDCHAR
STARTCHAR uni1FEB
ENCODING 8171
SWIDTH 704 0
DWIDTH 6 0
BBX 8 6 -1 0
BITMAP
0D6F23F3
1D0C88B0
0005DE40
0000DC00
0000AA00
0000AA00
ENDCHAR
STARTCHAR uni1FEC
ENCODING 8172
SWIDTH 759 0
DWIDTH 7 0
BBX 8 6 -1 0
BITMAP
0B7DFEB1
1E1D71D6
031D71E6
000DFEA0
000D7000
000D7000
ENDCHAR
STARTCHAR uni1FED
ENCODING 8173
SWIDTH 555 0
DWIDTH 5 0
BBX 5 3 0 5
BITMAP
001000
02B000
199A10
ENDCHAR
STARTCHAR uni1FEE
ENCODING 8174
SWIDTH 555 0
DWIDTH 5 0
BBX 5 3 0 5
BITMAP
001000
00B200
199A10
ENDCHAR
STARTCHAR uni1FEF
ENCODING 8175
SWIDTH 555 0
DWIDTH 5 0
BBX 2 3 1 5
BITMAP
01
6C
1D
ENDCHAR
STARTCHAR uni1FF2
ENCODING 8178
SWIDTH 746 0
DWIDTH 7 0
BBX 7 9 0 -2
BITMAP
02B20000
00690000
00000000
4E104D10
9A4F1F40
8B6F2F40
2DE8EB00
00000000
001D2000
ENDCHAR
STARTCHAR uni1FF3
ENCODING 8179
SWIDTH 746 0
DWIDTH 7 0
BBX 7 6 0 -2
BITMAP
4E104D10
9A4F1F40
8B6F2F40
2DE8EB00
00000000
001D2000
ENDCHAR
STARTCHAR uni1FF4
ENCODING 8180
SWIDTH 746 0
DWIDTH 7 0
BBX 7 9 0 -2
BITMAP
0005A000
001C3000
00000000
4E104D10
9A4F1F40
8B6F2F40
2DE8EB00
00000000
001D2000
ENDCHAR
STARTCHAR uni1FF6
ENCODING 8182
SWIDTH 746 0
DWIDTH 7 0
BBX 7 8 0 0
BITMAP
00004000
01D9D000
04876000
00000000
4E104D10
9A4F1F40
8B6F2F40
2DE8EB00
ENDCHAR
STARTCHAR uni1FF7
ENCODING 8183
SWIDTH 746 0
DWIDTH 7 0
BBX 7 10 0 -2
BITMAP
00004000
01D9D000
04876000
00000000
4E104D10
9A4F1F40
8B6F2F40
2DE8EB00
00000000
001D2000
ENDCHAR
STARTCHAR uni1FF8
ENCODING 8184
SWIDTH 790 0
DWIDTH 7 0
BBX 8 6 -1 0
BITMAP
1E07EE80
0C6F33E5
009C00B9
008C00B9
004F33E5
0007EE80
ENDCHAR
STARTCHAR uni1FF9
ENCODING 8185
SWIDTH 777 0
DWIDTH 7 0
BBX 8 6 -1 0
BITMAP
0D29ED60
1D7E24F3
00AA00D7
00AA00D7
006E24F3
0008ED60
ENDCHAR
STARTCHAR uni1FFA
ENCODING 8186
SWIDTH 811 0
DWIDTH 7 0
BBX 8 6 -1 0
BITMAP
1E06DE90
0C5F42E7
007D009B
007E00BA
002E53E4
00BFB8FE
ENDCHAR
STARTCHAR uni1FFB
ENCODING 8187
SWIDTH 803 0
DWIDTH 7 0
BBX 8 6 -1 0
BITMAP
0E17EE80
2C5F33E6
009C00BA
008D00C9
002E44F3
00CF99FC
ENDCHAR
STARTCHAR uni1FFC
ENCODING 8188
SWIDTH 1005 0
DWIDTH 9 0
BBX 9 6 0 0
BITMAP
05DE910000
2F52D80000
6E008C1F40
5F109B1F30
1D72E51F30
9FC6FF0BE0
ENDCHAR
STARTCHAR uni1FFD
ENCODING 8189
SWIDTH 555 0
DWIDTH 5 0
BBX 2 3 2 5
BITMAP
10
C6
D1
ENDCHAR
STARTCHAR uni1FFE
ENCODING 8190
SWIDTH 555 0
DWIDTH 5 0
BBX 3 3 1 4
BITMAP
2C40
4C00
0200
ENDCHAR
STARTCHAR uni2007
ENCODING 8199
SWIDTH 528 0
DWIDTH 5 0
BBX 1 1 0 0
BITMAP
00
ENDCHAR
STARTCHAR figuredash
ENCODING 8210
SWIDTH 528 0
DWIDTH 5 0
BBX 5 1 0 2
BITMAP
9FFF50
ENDCHAR
STARTCHAR endash
ENCODING 8211
SWIDTH 480 0
DWIDTH 4 0
BBX 4 1 0 2
BITMAP
9FFE
ENDCHAR
STARTCHAR emdash
ENCODING 8212
SWIDTH 800 0
DWIDTH 7 0
BBX 7 1 0 2
BITMAP
9FFFFFC0
ENDCHAR
STARTCHAR uni2015
ENCODING 8213
SWIDTH 800 0
DWIDTH 7 0
BBX 7 1 0 2
BITMAP
9FFFFFC0
ENDCHAR
STARTCHAR uni2016
ENCODING 8214
SWIDTH 452 0
DWIDTH 4 0
BBX 4 9 0 -2
BITMAP
3A84
3A84
3A84
3A84
3A84
3A84
3A84
3A84
3A84
ENDCHAR
STARTCHAR quoteleft
ENCODING 8216
SWIDTH 300 0
DWIDTH 3 0
BBX 2 3 0 3
BITMAP
07
57
5C
ENDCHAR
STARTCHAR quoteright
ENCODING 8217
SWIDTH 300 0
DWIDTH 3 0
BBX 3 3 0 3
BITMAP
3D10
0B10
2500
ENDCHAR
STARTCHAR quotesinglbase
ENCODING 8218
SWIDTH 300 0
DWIDTH 3 0
BBX 3 3 0 -2
BITMAP
3D10
0B10
2500
ENDCHAR
STARTCHAR quotedblleft
ENCODING 8220
SWIDTH 536 0
DWIDTH 5 0
BBX 5 3 0 3
BITMAP
070610
573900
5C4D10
ENDCHAR
STARTCHAR quotedblright
ENCODING 8221
SWIDTH 536 0
DWIDTH 5 0
BBX 5 3 0 3
BITMAP
3D3D30
0B1930
251600
ENDCHAR
STARTCHAR quotedblbase
ENCODING 8222
SWIDTH 536 0
DWIDTH 5 0
BBX 5 3 0 -2
BITMAP
3D3D30
0B1930
251600
ENDCHAR
STARTCHAR dagger
ENCODING 8224
SWIDTH 510 0
DWIDTH 5 0
BBX 5 8 0 -2
BITMAP
03C000
58D710
59D810
03C000
03C000
03C000
03C000
002000
ENDCHAR
STARTCHAR daggerdbl
ENCODING 8225
SWIDTH 510 0
DWIDTH 5 0
BBX 5 8 0 -2
BITMAP
03C000
58D710
58D710
03C000
37D510
6AD920
03C000
002000
ENDCHAR
STARTCHAR bullet
ENCODING 8226
SWIDTH 345 0
DWIDTH 3 0
BBX 3 3 0 1
BITMAP
4E60
9FB0
4E60
ENDCHAR
STARTCHAR ellipsis
ENCODING 8230
SWIDTH 977 0
DWIDTH 9 0
BBX 9 2 0 0
BITMAP
2E22E23E10
2E22E23E10
ENDCHAR
STARTCHAR uni202F
ENCODING 8239
SWIDTH 125 0
DWIDTH 1 0
BBX 1 1 0 0
BITMAP
00
ENDCHAR
STARTCHAR perthousand
ENCODING 8240
SWIDTH 1249 0
DWIDTH 11 0
BBX 11 6 0 0
BITMAP
4E9038000000
A4D1A1000000
A4D59CC16E70
4E9B7996D3E0
00576996D3E0
00B01DD16E70
ENDCHAR
STARTCHAR uni2032
ENCODING 8242
SWIDTH 300 0
DWIDTH 3 0
BBX 3 3 0 3
BITMAP
2F20
3E00
4B00
ENDCHAR
STARTCHAR uni2033
ENCODING 8243
SWIDTH 537 0
DWIDTH 5 0
BBX 5 3 0 3
BITMAP
2F2F40
3E1F20
4B1D00
ENDCHAR
STARTCHAR uni2035
ENCODING 8245
SWIDTH 300 0
DWIDTH 3 0
BBX 2 3 0 3
BITMAP
7C
4D
1E
ENDCHAR
STARTCHAR guilsinglleft
ENCODING 8249
SWIDTH 292 0
DWIDTH 3 0
BBX 2 4 0 0
BITMAP
0A
77
77
0A
ENDCHAR
STARTCHAR guilsinglright
ENCODING 8250
SWIDTH 292 0
DWIDTH 3 0
BBX 3 4 0 0
BITMAP
5600
0C20
0C20
5600
ENDCHAR
STARTCHAR uni203C
ENCODING 8252
SWIDTH 614 0
DWIDTH 6 0
BBX 5 7 0 0
BITMAP
2E3990
1F2990
0F1880
0E0770
000000
2E2990
2E2990
ENDCHAR
STARTCHAR uni203D
ENCODING 8253
SWIDTH 480 0
DWIDTH 4 0
BBX 4 6 0 0
BITMAP
6DE6
4CBD
09E8
07A0
0000
0980
ENDCHAR
STARTCHAR uni203E
ENCODING 8254
SWIDTH 500 0
DWIDTH 5 0
BBX 5 1 0 5
BITMAP
DFFF60
ENDCHAR
STARTCHAR uni203F
ENCODING 8255
SWIDTH 0 0
DWIDTH 0 0
BBX 8 2 -4 -2
BITMAP
A520025A
28CEEC82
ENDCHAR
STARTCHAR fraction
ENCODING 8260
SWIDTH 96 0
DWIDTH 1 0
BBX 5 6 -2 0
BITMAP
000920
003900
00A200
038000
0A1000
470000
ENDCHAR
STARTCHAR uni2047
ENCODING 8263
SWIDTH 873 0
DWIDTH 8 0
BBX 8 6 0 0
BITMAP
4DE78ED3
12A922E5
07B00C70
00000000
09800D40
09800D40
ENDCHAR
STARTCHAR uni2048
ENCODING 8264
SWIDTH 750 0
DWIDTH 7 0
BBX 6 7 0 0
BITMAP
00006C
4DE76C
12A95B
07B04A
000000
09806C
09806C
ENDCHAR
STARTCHAR uni2049
ENCODING 8265
SWIDTH 750 0
DWIDTH 7 0
BBX 7 7 0 0
BITMAP
2E300000
1F29ED20
0F132E30
0E00D500
00000000
2E21E200
2E21E200
ENDCHAR
STARTCHAR zero.sups
ENCODING 8304
SWIDTH 376 0
DWIDTH 3 0
BBX 4 4 0 3
BITMAP
4E90
A4D1
A4D1
4E90
ENDCHAR
STARTCHAR i.sups
ENCODING 8305
SWIDTH 188 0
DWIDTH 2 0
BBX 2 5 0 3
BITMAP
83
00
95
95
95
ENDCHAR
STARTCHAR four.sups
ENCODING 8308
SWIDTH 376 0
DWIDTH 3 0
BBX 4 4 0 3
BITMAP
0BC0
68C0
AFF5
01C0
ENDCHAR
STARTCHAR five.sups
ENCODING 8309
SWIDTH 376 0
DWIDTH 3 0
BBX 3 4 0 3
BITMAP
4FD0
5800
8FC0
6FB0
ENDCHAR
STARTCHAR six.sups
ENCODING 8310
SWIDTH 376 0
DWIDTH 3 0
BBX 3 4 0 3
BITMAP
3DB0
9710
9EC0
3EB0
ENDCHAR
STARTCHAR seven.sups
ENCODING 8311
SWIDTH 376 0
DWIDTH 3 0
BBX 4 4 0 3
BITMAP
8FF1
04C0
0A50
0D20
ENDCHAR
STARTCHAR eight.sups
ENCODING 8312
SWIDTH 376 0
DWIDTH 3 0
BBX 3 4 0 3
BITMAP
4E90
78D0
4FA0
7EC0
ENDCHAR
STARTCHAR nine.sups
ENCODING 8313
SWIDTH 376 0
DWIDTH 3 0
BBX 3 4 0 3
BITMAP
5E80
A5E0
7EE0
6E70
ENDCHAR
STARTCHAR parenleft.sups
ENCODING 8317
SWIDTH 268 0
DWIDTH 2 0
BBX 2 5 0 2
BITMAP
0B
5A
68
5A
0B
ENDCHAR
STARTCHAR parenright.sups
ENCODING 8318
SWIDTH 268 0
DWIDTH 2 0
BBX 2 5 0 2
BITMAP
75
3B
2C
3B
75
ENDCHAR
STARTCHAR n.sups
ENCODING 8319
SWIDTH 384 0
DWIDTH 3 0
BBX 4 3 0 3
BITMAP
9CD0
96D2
95C2
ENDCHAR
STARTCHAR zero.subs
ENCODING 8320
SWIDTH 376 0
DWIDTH 3 0
BBX 4 4 0 -2
BITMAP
4E90
A4D1
A4D1
4E90
ENDCHAR
STARTCHAR one.subs
ENCODING 8321
SWIDTH 376 0
DWIDTH 3 0
BBX 3 4 0 -2
BITMAP
3D70
0870
0870
0870
ENDCHAR
STARTCHAR two.subs
ENCODING 8322
SWIDTH 376 0
DWIDTH 3 0
BBX 3 4 0 -2
BITMAP
6E80
23C0
2C50
9FF0
ENDCHAR
STARTCHAR three.subs
ENCODING 8323
SWIDTH 376 0
DWIDTH 3 0
BBX 3 4 0 -2
BITMAP
4E80
14D0
3CA0
5EB0
ENDCHAR
STARTCHAR four.subs
ENCODING 8324
SWIDTH 376 0
DWIDTH 3 0
BBX 4 4 0 -2
BITMAP
0BC0
68C0
AFF5
01C0
ENDCHAR
STARTCHAR five.subs
ENCODING 8325
SWIDTH 376 0
DWIDTH 3 0
BBX 3 4 0 -2
BITMAP
4FD0
5800
8FC0
6FB0
ENDCHAR
STARTCHAR six.subs
ENCODING 8326
SWIDTH 376 0
DWIDTH 3 0
BBX 3 4 0 -2
BITMAP
3DB0
9710
9EC0
3EB0
ENDCHAR
STARTCHAR seven.subs
ENCODING 8327
SWIDTH 376 0
DWIDTH 3 0
BBX 4 4 0 -2
BITMAP
8FF1
04C0
0A50
0D20
ENDCHAR
STARTCHAR eight.subs
ENCODING 8328
SWIDTH 376 0
DWIDTH 3 0
BBX 3 4 0 -2
BITMAP
4E90
78D0
4FA0
7EC0
ENDCHAR
STARTCHAR nine.subs
ENCODING 8329
SWIDTH 376 0
DWIDTH 3 0
BBX 3 4 0 -2
BITMAP
5E80
A5E0
7EE0
6E70
ENDCHAR
STARTCHAR parenleft.subs
ENCODING 8333
SWIDTH 268 0
DWIDTH 2 0
BBX 2 5 0 -3
BITMAP
0B
5A
68
5A
0B
ENDCHAR
STARTCHAR parenright.subs
ENCODING 8334
SWIDTH 268 0
DWIDTH 2 0
BBX 2 5 0 -3
BITMAP
75
3B
2C
3B
75
ENDCHAR
STARTCHAR uni0259.sups
ENCODING 8340
SWIDTH 346 0
DWIDTH 3 0
BBX 3 3 0 3
BITMAP
6E70
CFD0
6E70
ENDCHAR
STARTCHAR colonmonetary
ENCODING 8353
SWIDTH 528 0
DWIDTH 5 0
BBX 5 8 0 -1
BITMAP
005700
06EE50
3FA910
7D7700
7D8600
4FB820
08FD40
039100
ENDCHAR
STARTCHAR lira
ENCODING 8356
SWIDTH 528 0
DWIDTH 5 0
BBX 5 6 0 0
BITMAP
06ED30
0E6200
8FFA00
0B7000
8FFA00
8FFF70
ENDCHAR
STARTCHAR uni20A6
ENCODING 8358
SWIDTH 528 0
DWIDTH 5 0
BBX 5 6 0 0
BITMAP
5F1D10
5D6D10
EFFFB0
59CC10
EFFFB0
597F10
ENDCHAR
STARTCHAR peseta
ENCODING 8359
SWIDTH 528 0
DWIDTH 5 0
BBX 5 6 0 0
BITMAP
6FEA00
EFFFA0
6D5F10
6FE600
6D0000
6D0000
ENDCHAR
STARTCHAR uni20A9
ENCODING 8361
SWIDTH 528 0
DWIDTH 5 0
BBX 6 6 -1 0
BITMAP
082036
0C6F79
0A9D97
3FFFFE
07D9D4
05F6F2
ENDCHAR
STARTCHAR dong
ENCODING 8363
SWIDTH 528 0
DWIDTH 5 0
BBX 5 7 0 0
BITMAP
001700
06FF90
068F00
5E8F00
5D8F00
077800
4FFF40
ENDCHAR
STARTCHAR Euro
ENCODING 8364
SWIDTH 528 0
DWIDTH 5 0
BBX 5 6 0 0
BITMAP
04DE40
0E6200
9FBA00
5F0000
9FC910
08ED40
ENDCHAR
STARTCHAR uni20AE
ENCODING 8366
SWIDTH 528 0
DWIDTH 5 0
BBX 5 6 0 0
BITMAP
BFFF70
04FC00
1CF200
27FC00
2CF200
27F000
ENDCHAR
STARTCHAR uni20B1
ENCODING 8369
SWIDTH 528 0
DWIDTH 5 0
BBX 5 6 0 0
BITMAP
6FE700
AEAF60
AE9F60
6D9C00
6EA200
6D0000
ENDCHAR
STARTCHAR uni20B2
ENCODING 8370
SWIDTH 528 0
DWIDTH 5 0
BBX 5 7 0 -1
BITMAP
09FD30
5F3300
9B0000
9A5F70
6B0B70
092A40
00A300
ENDCHAR
STARTCHAR uni20B4
ENCODING 8372
SWIDTH 528 0
DWIDTH 5 0
BBX 5 6 0 0
BITMAP
2CE700
036E00
8ACF50
0BF400
9FBF60
2CFC20
ENDCHAR
STARTCHAR uni20B5
ENCODING 8373
SWIDTH 528 0
DWIDTH 5 0
BBX 5 8 0 -1
BITMAP
005400
07EE40
3F9600
7D6500
7D6500
3F9710
07EE40
006400
ENDCHAR
STARTCHAR uni20B8
ENCODING 8376
SWIDTH 528 0
DWIDTH 5 0
BBX 5 6 0 0
BITMAP
7AAA50
7BDA50
04F000
04F000
04F000
04F000
ENDCHAR
STARTCHAR uni20B9
ENCODING 8377
SWIDTH 528 0
DWIDTH 5 0
BBX 5 6 0 0
BITMAP
6FFA20
02E600
5FFF30
02E600
6FC100
03D600
ENDCHAR
STARTCHAR uni20BA
ENCODING 8378
SWIDTH 528 0
DWIDTH 5 0
BBX 5 6 0 0
BITMAP
3F2100
3FC400
BF4100
5FB840
AF4D40
3ED700
ENDCHAR
STARTCHAR uni20BD
ENCODING 8381
SWIDTH 528 0
DWIDTH 5 0
BBX 5 6 0 0
BITMAP
6FE900
6D3F20
CEC900
BE8500
7D2100
6D0000
ENDCHAR
STARTCHAR uni2113
ENCODING 8467
SWIDTH 470 0
DWIDTH 4 0
BBX 5 6 0 0
BITMAP
07EB00
0E6F10
0FAC00
1FC200
AF6300
08EC10
ENDCHAR
STARTCHAR uni2116
ENCODING 8470
SWIDTH 967 0
DWIDTH 9 0
BBX 9 6 0 0
BITMAP
4F62E5DD30
4EB4E6B980
4DD6D2DD30
4E7AD00000
4E2ED2FF40
8B0BD00000
ENDCHAR
STARTCHAR uni2117
ENCODING 8471
SWIDTH 750 0
DWIDTH 7 0
BBX 7 6 0 0
BITMAP
05CEB300
3BFFDC10
82D3E640
82DF8640
3BD24C10
05CEB200
ENDCHAR
STARTCHAR uni2120
ENCODING 8480
SWIDTH 682 0
DWIDTH 6 0
BBX 6 3 0 3
BITMAP
7E5E3E
7D5DBC
8E5ACC
ENDCHAR
STARTCHAR trademark
ENCODING 8482
SWIDTH 682 0
DWIDTH 6 0
BBX 6 4 0 3
BITMAP
FF7000
DA2C3E
3A2DBA
392A50
ENDCHAR
STARTCHAR uni2126
ENCODING 8486
SWIDTH 711 0
DWIDTH 6 0
BBX 6 6 0 0
BITMAP
05DE91
2F52D8
6E008C
5F109B
1D72E5
9FC6FF
ENDCHAR
STARTCHAR estimated
ENCODING 8494
SWIDTH 800 0
DWIDTH 7 0
BBX 7 6 0 0
BITMAP
03BEC300
2C312A20
79000580
7FFFFFB0
2A201200
03BED500
ENDCHAR
STARTCHAR uni2150
ENCODING 8528
SWIDTH 837 0
DWIDTH 8 0
BBX 8 6 0 0
BITMAP
6E309200
0C329000
0C3A8FF4
0C6802D1
00A10870
04700B40
ENDCHAR
STARTCHAR uni2151
ENCODING 8529
SWIDTH 837 0
DWIDTH 8 0
BBX 8 6 0 0
BITMAP
6E308400
0C31A000
0C395EA0
0C5977C2
00924FE2
03904E90
ENDCHAR
STARTCHAR uni2152
ENCODING 8530
SWIDTH 1155 0
DWIDTH 10 0
BBX 11 7 0 0
BITMAP
000001000000
6E3083000000
0C32A0000000
0C395D84E900
0649078A4D10
00A2078A4D10
03900444E900
ENDCHAR
STARTCHAR onethird
ENCODING 8531
SWIDTH 837 0
DWIDTH 8 0
BBX 8 6 0 0
BITMAP
6E309200
0C329000
0C3A4DA0
0C6803E0
00A12BC0
04703DD1
ENDCHAR
STARTCHAR twothirds
ENCODING 8532
SWIDTH 849 0
DWIDTH 8 0
BBX 8 6 0 0
BITMAP
5E903900
23C0A200
2C53ADC0
9FFB12E1
00471AD1
00B12DD2
ENDCHAR
STARTCHAR uni2155
ENCODING 8533
SWIDTH 837 0
DWIDTH 8 0
BBX 8 6 0 0
BITMAP
6E309200
0C329000
0C3A3FF1
0C682A00
00A15FD1
04703EC1
ENDCHAR
STARTCHAR uni2156
ENCODING 8534
SWIDTH 849 0
DWIDTH 8 0
BBX 8 6 0 0
BITMAP
5E903900
23C0A200
2C538FF2
9FFB2B00
00473FE2
00B12ED2
ENDCHAR
STARTCHAR uni2157
ENCODING 8535
SWIDTH 849 0
DWIDTH 8 0
BBX 8 6 0 0
BITMAP
4E804800
14D0B100
3CA57FF2
5ECB1B00
00563FE2
00B02ED2
ENDCHAR
STARTCHAR uni2158
ENCODING 8536
SWIDTH 892 0
DWIDTH 8 0
BBX 8 6 0 0
BITMAP
0BC00B00
68C06500
AFF5B9F8
01C75A20
001A0EF7
00840BE6
ENDCHAR
STARTCHAR uni2159
ENCODING 8537
SWIDTH 837 0
DWIDTH 8 0
BBX 8 6 0 0
BITMAP
6E308400
0C31A000
0C395DC0
0C598810
00928ED1
03903EC0
ENDCHAR
STARTCHAR uni215A
ENCODING 8538
SWIDTH 849 0
DWIDTH 8 0
BBX 8 6 0 0
BITMAP
4FD04800
5800B100
8FC58CD1
6FBB7A10
00567ED2
00B02DD1
ENDCHAR
STARTCHAR oneeighth
ENCODING 8539
SWIDTH 837 0
DWIDTH 8 0
BBX 8 6 0 0
BITMAP
6E308400
0C31A000
0C395DB0
0C5959D0
00922FC0
03905ED1
ENDCHAR
STARTCHAR threeeighths
ENCODING 8540
SWIDTH 849 0
DWIDTH 8 0
BBX 8 6 0 0
BITMAP
4E804800
14D0B100
3CA58DC0
5ECB4BC2
00561ED1
00B03ED2
ENDCHAR
STARTCHAR fiveeighths
ENCODING 8541
SWIDTH 849 0
DWIDTH 8 0
BBX 8 6 0 0
BITMAP
4FD04800
5800B100
8FC58DC0
6FBB4BC2
00561ED1
00B03ED2
ENDCHAR
STARTCHAR seveneighths
ENCODING 8542
SWIDTH 829 0
DWIDTH 7 0
BBX 7 6 0 0
BITMAP
BFE0A200
06938000
0D2A4EA0
1E4769D0
00B13FB0
05605EC0
ENDCHAR
STARTCHAR uni2189
ENCODING 8585
SWIDTH 849 0
DWIDTH 8 0
BBX 8 6 0 0
BITMAP
4E904800
A4D1B100
A4D69DC0
4E9B12E1
00561AD1
00B02DD2
ENDCHAR
STARTCHAR uni2190
ENCODING 8592
SWIDTH 617 0
DWIDTH 6 0
BBX 6 5 0 0
BITMAP
009200
1B8000
8FFFF3
1B8000
009200
ENDCHAR
STARTCHAR arrowup
ENCODING 8593
SWIDTH 617 0
DWIDTH 6 0
BBX 6 5 0 0
BITMAP
00A400
0AFE40
69B7C1
00B400
00B400
ENDCHAR
STARTCHAR uni2192
ENCODING 8594
SWIDTH 617 0
DWIDTH 6 0
BBX 6 5 0 0
BITMAP
007400
002D50
AFFFF2
002D50
007500
ENDCHAR
STARTCHAR arrowdown
ENCODING 8595
SWIDTH 617 0
DWIDTH 6 0
BBX 6 5 0 0
BITMAP
00B400
00B400
69B7C1
0AFE40
00A400
ENDCHAR
STARTCHAR partialdiff
ENCODING 8706
SWIDTH 577 0
DWIDTH 5 0
BBX 5 6 0 0
BITMAP
09EC20
031B90
1BECB0
7C1CA0
7C2D50
2CE800
ENDCHAR
STARTCHAR uni2206
ENCODING 8710
SWIDTH 640 0
DWIDTH 6 0
BBX 6 6 0 0
BITMAP
01FD00
06BF30
0C7B80
2F37D0
7D02F3
AFFFF7
ENDCHAR
STARTCHAR product
ENCODING 8719
SWIDTH 710 0
DWIDTH 6 0
BBX 6 7 0 -1
BITMAP
4FFFFA
4F10AA
4F10AA
4F10AA
4F10AA
4F10AA
3A0066
ENDCHAR
STARTCHAR summation
ENCODING 8721
SWIDTH 534 0
DWIDTH 5 0
BBX 5 7 0 -1
BITMAP
AFFF80
3F3000
09C000
01F400
09C000
4F3000
BFFFB0
ENDCHAR
STARTCHAR minus
ENCODING 8722
SWIDTH 528 0
DWIDTH 5 0
BBX 5 1 0 2
BITMAP
AFFF70
ENDCHAR
STARTCHAR uni2215
ENCODING 8725
SWIDTH 96 0
DWIDTH 1 0
BBX 5 6 -2 0
BITMAP
000920
003900
00A200
038000
0A1000
470000
ENDCHAR
STARTCHAR uni2219
ENCODING 8729
SWIDTH 529 0
DWIDTH 5 0
BBX 3 2 1 2
BITMAP
3E10
3E10
ENDCHAR
STARTCHAR radical
ENCODING 8730
SWIDTH 588 0
DWIDTH 5 0
BBX 6 8 0 -1
BITMAP
000073
0000C1
0001C0
030480
7E2840
087B10
02BB00
00B800
ENDCHAR
STARTCHAR infinity
ENCODING 8734
SWIDTH 814 0
DWIDTH 7 0
BBX 7 4 0 1
BITMAP
2DD4CE60
977F63E0
976F73D0
3DC7EE50
ENDCHAR
STARTCHAR integral
ENCODING 8747
SWIDTH 390 0
DWIDTH 4 0
BBX 4 8 0 -1
BITMAP
07E3
0E50
0E40
0D50
0B70
0A80
0B80
8D30
ENDCHAR
STARTCHAR approxequal
ENCODING 8776
SWIDTH 528 0
DWIDTH 5 0
BBX 5 4 0 1
BITMAP
4E7640
73AD10
4E7640
73AD10
ENDCHAR
STARTCHAR notequal
ENCODING 8800
SWIDTH 528 0
DWIDTH 5 0
BBX 5 7 0 -1
BITMAP
000100
000B10
AFFF70
02B000
AFFF70
3A0000
100000
ENDCHAR
STARTCHAR lessequal
ENCODING 8804
SWIDTH 528 0
DWIDTH 5 0
BBX 5 5 0 0
BITMAP
027B70
9E9510
5BEB40
001540
AFFF70
ENDCHAR
STARTCHAR greaterequal
ENCODING 8805
SWIDTH 528 0
DWIDTH 5 0
BBX 5 5 0 0
BITMAP
AA6100
16AF60
6CEA30
540000
AFFF70
ENDCHAR
STARTCHAR uni231C
ENCODING 8988
SWIDTH 344 0
DWIDTH 3 0
BBX 3 7 0 -1
BITMAP
3FA0
3C00
3C00
3C00
3C00
3C00
2600
ENDCHAR
STARTCHAR uni231D
ENCODING 8989
SWIDTH 344 0
DWIDTH 3 0
BBX 3 7 0 -1
BITMAP
9F50
0A50
0A50
0A50
0A50
0A50
0520
ENDCHAR
STARTCHAR uni231E
ENCODING 8990
SWIDTH 344 0
DWIDTH 3 0
BBX 3 7 0 -1
BITMAP
2600
3C00
3C00
3C00
3C00
3C00
3FA0
ENDCHAR
STARTCHAR uni231F
ENCODING 8991
SWIDTH 344 0
DWIDTH 3 0
BBX 3 7 0 -1
BITMAP
0520
0A50
0A50
0A50
0A50
0A50
9F50
ENDCHAR
STARTCHAR uni25A0
ENCODING 9632
SWIDTH 877 0
DWIDTH 8 0
BBX 8 7 0 -1
BITMAP
9FFFFFF7
9FFFFFF7
9FFFFFF7
9FFFFFF7
9FFFFFF7
9FFFFFF7
9FFFFFF7
ENDCHAR
STARTCHAR triagup
ENCODING 9650
SWIDTH 877 0
DWIDTH 8 0
BBX 8 7 0 0
BITMAP
00053000
000CB000
005FF300
00CFFB00
05FFFF30
0CFFFFB0
5FFFFFF3
ENDCHAR
STARTCHAR uni25B3
ENCODING 9651
SWIDTH 877 0
DWIDTH 8 0
BBX 8 7 0 -1
BITMAP
00075000
000CC000
00679500
00C12C00
06800A40
0D2003B0
5FFFFFF4
ENDCHAR
STARTCHAR uni25B6
ENCODING 9654
SWIDTH 877 0
DWIDTH 8 0
BBX 8 7 0 -1
BITMAP
87100000
9FE81000
9FFFE810
9FFFFFE4
9FFFF920
9FE82000
88100000
ENDCHAR
STARTCHAR uni25B7
ENCODING 9655
SWIDTH 877 0
DWIDTH 8 0
BBX 8 7 0 -1
BITMAP
87100000
95661000
94005610
94006DE4
957EF920
9FE82000
88100000
ENDCHAR
STARTCHAR triagdn
ENCODING 9660
SWIDTH 877 0
DWIDTH 8 0
BBX 8 7 0 -1
BITMAP
5FFFFFF3
0CFFFFB0
05FFFF30
00CFFB00
005FF300
000CB000
00053000
ENDCHAR
STARTCHAR uni25BD
ENCODING 9661
SWIDTH 877 0
DWIDTH 8 0
BBX 8 7 0 0
BITMAP
5FFFFFF4
0C2003B0
06800A40
00C12C00
00679500
000CC000
00075000
ENDCHAR
STARTCHAR uni25C0
ENCODING 9664
SWIDTH 877 0
DWIDTH 8 0
BBX 8 7 0 -1
BITMAP
00000186
00029EF7
029FFFF7
5FFFFFF7
03AFFFF7
00029FF7
00000297
ENDCHAR
STARTCHAR uni25C1
ENCODING 9665
SWIDTH 877 0
DWIDTH 8 0
BBX 8 7 0 -1
BITMAP
00000186
00027667
02650067
5FC50067
03AFD767
00029FF7
00000297
ENDCHAR
STARTCHAR uni25C6
ENCODING 9670
SWIDTH 877 0
DWIDTH 8 0
BBX 8 7 0 -1
BITMAP
00097000
00AFF800
0AFFFF90
8FFFFFF6
0AFFFF90
00AFF800
00097000
ENDCHAR
STARTCHAR uni25C9
ENCODING 9673
SWIDTH 877 0
DWIDTH 8 0
BBX 8 8 0 -1
BITMAP
01AEE910
0D7228C0
786FE5A5
A4EFFD58
A4EFFD58
786FE5A5
0D7228C0
01AEE910
ENDCHAR
STARTCHAR lozenge
ENCODING 9674
SWIDTH 548 0
DWIDTH 5 0
BBX 5 6 0 0
BITMAP
05F400
0C8B00
4C0D30
4C0D30
0C8B00
05F400
ENDCHAR
STARTCHAR uni25CC
ENCODING 9676
SWIDTH 577 0
DWIDTH 5 0
BBX 5 5 0 0
BITMAP
008000
080800
D401F0
530170
088800
ENDCHAR
STARTCHAR uni2610
ENCODING 9744
SWIDTH 807 0
DWIDTH 7 0
BBX 7 6 0 0
BITMAP
3EFFFF90
53000390
53000390
53000390
53000390
5FFFFF60
ENDCHAR
STARTCHAR uni2611
ENCODING 9745
SWIDTH 807 0
DWIDTH 7 0
BBX 8 8 0 0
BITMAP
00000010
000003E1
3EFFFF90
53005D90
54A1D590
539B9390
53282390
5FFFFF60
ENDCHAR
STARTCHAR uni266A
ENCODING 9834
SWIDTH 544 0
DWIDTH 5 0
BBX 5 6 0 0
BITMAP
006200
00BE30
00B4B0
00B190
00B010
8EB000
ENDCHAR
STARTCHAR uni2713
ENCODING 10003
SWIDTH 647 0
DWIDTH 6 0
BBX 6 6 0 0
BITMAP
000068
0003D2
100C40
B45A00
3CB300
0BC000
ENDCHAR
STARTCHAR uni2752
ENCODING 10066
SWIDTH 877 0
DWIDTH 8 0
BBX 8 8 0 -1
BITMAP
5FFFFFF7
90000067
90000067
90000067
90000067
90000067
90000067
9FFFFFF3
ENDCHAR
STARTCHAR uni27E6
ENCODING 10214
SWIDTH 437 0
DWIDTH 4 0
BBX 4 9 0 -2
BITMAP
3FF8
38A0
38A0
38A0
38A0
38A0
38A0
38A0
3FF8
ENDCHAR
STARTCHAR uni27E7
ENCODING 10215
SWIDTH 437 0
DWIDTH 4 0
BBX 4 9 0 -2
BITMAP
9FF2
0A92
0A92
0A92
0A92
0A92
0A92
0A92
9FF2
ENDCHAR
STARTCHAR uni2E22
ENCODING 11810
SWIDTH 344 0
DWIDTH 3 0
BBX 3 5 0 2
BITMAP
3FA0
3C00
3C00
3C00
1200
ENDCHAR
STARTCHAR uni2E23
ENCODING 11811
SWIDTH 344 0
DWIDTH 3 0
BBX 3 5 0 2
BITMAP
9F50
0A50
0A50
0A50
0210
ENDCHAR
STARTCHAR uni2E24
ENCODING 11812
SWIDTH 344 0
DWIDTH 3 0
BBX 3 5 0 -2
BITMAP
1200
3C00
3C00
3C00
3FA0
ENDCHAR
STARTCHAR uni2E25
ENCODING 11813
SWIDTH 344 0
DWIDTH 3 0
BBX 3 5 0 -2
BITMAP
0210
0A50
0A50
0A50
9F50
ENDCHAR
STARTCHAR uni2E3A
ENCODING 11834
SWIDTH 1500 0
DWIDTH 14 0
BBX 14 1 0 2
BITMAP
9FFFFFFFFFFFF2
ENDCHAR
STARTCHAR uni2E3B
ENCODING 11835
SWIDTH 2200 0
DWIDTH 20 0
BBX 20 1 0 2
BITMAP
9FFFFFFFFFFFFFFFFFF6
ENDCHAR
STARTCHAR f_f
ENCODING 64256
SWIDTH 657 0
DWIDTH 6 0
BBX 7 6 0 0
BITMAP
0AF5CE10
2F45F200
CFFFFC00
3F25F000
3F25F000
3F25F000
ENDCHAR
STARTCHAR fi
ENCODING 64257
SWIDTH 635 0
DWIDTH 6 0
BBX 6 7 0 0
BITMAP
000040
0AE6E2
2F4000
BFE3F2
3F23F2
3F23F2
3F23F2
ENDCHAR
STARTCHAR fl
ENCODING 64258
SWIDTH 627 0
DWIDTH 6 0
BBX 6 6 0 0
BITMAP
0AE9F0
2F46F0
BFE5F0
3F25F0
3F25F0
3F22E6
ENDCHAR
STARTCHAR f_f_i
ENCODING 64259
SWIDTH 933 0
DWIDTH 8 0
BBX 8 7 0 0
BITMAP
00000023
0AF5CE8B
2F45F200
CFFFFC8C
3F25F08C
3F25F08C
3F25F08C
ENDCHAR
STARTCHAR f_f_l
ENCODING 64260
SWIDTH 943 0
DWIDTH 8 0
BBX 9 6 0 0
BITMAP
0AF5CE9C00
2F45F28C00
CFFFFC8C00
3F25F08C00
3F25F08D00
3F25F04E40
ENDCHAR
STARTCHAR uniFEFF
ENCODING 65279
SWIDTH 0 0
DWIDTH 0 0
BBX 1 1 0 0
BITMAP
00
ENDCHAR
STARTCHAR u1F16A
ENCODING 127338
SWIDTH 682 0
DWIDTH 6 0
BBX 7 3 0 3
BITMAP
C8E5BD00
BCB7C200
A064BD10
ENDCHAR
STARTCHAR u1F16B
ENCODING 127339
SWIDTH 719 0
DWIDTH 6 0
BBX 7 3 0 3
BITMAP
C8E6FD20
BCB6B960
C076FD20
ENDCHAR
STARTCHAR .notdef
ENCODING -1
SWIDTH 690 0
DWIDTH 6 0
BBX 6 6 0 0
BITMAP
4FFFF7
4DB8D7
49BD77
49CD77
4EA7E7
4FFFF7
ENDCHAR
STARTCHAR uni00470303
ENCODING -1
SWIDTH 638 0
DWIDTH 6 0
BBX 6 9 0 0
BITMAP
000040
02E9D0
067750
05DEA0
3F5130
8D0000
8C0EF3
4F51E3
06DEB1
ENDCHAR
STARTCHAR uni00670303
ENCODING -1
SWIDTH 534 0
DWIDTH 5 0
BBX 5 10 0 -2
BITMAP
000310
0CBC20
2B5700
000000
3DFF90
8C5F00
3FE900
5FFE50
981B90
5EEB20
ENDCHAR
STARTCHAR iogonek.d
ENCODING -1
SWIDTH 276 0
DWIDTH 2 0
BBX 3 6 0 -2
BITMAP
6E00
6E00
6E00
6E00
6700
7E10
ENDCHAR
STARTCHAR f_t
ENCODING -1
SWIDTH 688 0
DWIDTH 6 0
BBX 6 6 0 0
BITMAP
0AE8C0
2F46C0
CFFFFE
3F27C0
3F27D1
3F23DD
ENDCHAR
STARTCHAR f_f_t
ENCODING -1
SWIDTH 1004 0
DWIDTH 9 0
BBX 9 7 0 -1
BITMAP
0AF5CF2200
2F45F18A00
CFFFFFFFB0
3F25F0AA00
3F25F09B00
3F25F05EB0
1612600000
ENDCHAR
STARTCHAR I.a
ENCODING -1
SWIDTH 396 0
DWIDTH 4 0
BBX 4 6 0 0
BITMAP
8FF1
0D70
0D70
0D70
0D70
8FF1
ENDCHAR
STARTCHAR Igrave.a
ENCODING -1
SWIDTH 396 0
DWIDTH 4 0
BBX 4 8 0 0
BITMAP
7800
2B30
8FF1
0D70
0D70
0D70
0D70
8FF1
ENDCHAR
STARTCHAR Iacute.a
ENCODING -1
SWIDTH 396 0
DWIDTH 4 0
BBX 4 8 0 0
BITMAP
02B2
0970
8FF1
0D70
0D70
0D70
0D70
8FF1
ENDCHAR
STARTCHAR Icircumflex.a
ENCODING -1
SWIDTH 396 0
DWIDTH 4 0
BBX 4 7 0 0
BITMAP
59B1
8FF1
0D70
0D70
0D70
0D70
8FF1
ENDCHAR
STARTCHAR Itilde.a
ENCODING -1
SWIDTH 396 0
DWIDTH 4 0
BBX 4 9 0 0
BITMAP
0023
9DA7
D381
8FF1
0D70
0D70
0D70
0D70
8FF1
ENDCHAR
STARTCHAR Idieresis.a
ENCODING -1
SWIDTH 396 0
DWIDTH 4 0
BBX 4 7 0 0
BITMAP
A4A4
8FF1
0D70
0D70
0D70
0D70
8FF1
ENDCHAR
STARTCHAR Imacron.a
ENCODING -1
SWIDTH 396 0
DWIDTH 4 0
BBX 4 7 0 0
BITMAP
9FF2
8FF1
0D70
0D70
0D70
0D70
8FF1
ENDCHAR
STARTCHAR Idotaccent.a
ENCODING -1
SWIDTH 396 0
DWIDTH 4 0
BBX 4 7 0 0
BITMAP
0B50
8FF1
0D70
0D70
0D70
0D70
8FF1
ENDCHAR
STARTCHAR uni01CF.a
ENCODING -1
SWIDTH 396 0
DWIDTH 4 0
BBX 4 7 0 0
BITMAP
69B1
8FF1
0D70
0D70
0D70
0D70
8FF1
ENDCHAR
STARTCHAR uni1EC8.a
ENCODING -1
SWIDTH 396 0
DWIDTH 4 0
BBX 4 8 0 0
BITMAP
0D50
0870
8FF1
0D70
0D70
0D70
0D70
8FF1
ENDCHAR
STARTCHAR uni1ECA.a
ENCODING -1
SWIDTH 396 0
DWIDTH 4 0
BBX 4 8 0 -2
BITMAP
8FF1
0D70
0D70
0D70
0D70
8FF1
0000
0B50
ENDCHAR
STARTCHAR Iogonek.a
ENCODING -1
SWIDTH 396 0
DWIDTH 4 0
BBX 4 8 0 -2
BITMAP
8FF1
0D70
0D70
0D70
0D70
8FF1
1C10
1D80
ENDCHAR
STARTCHAR uni012C.a
ENCODING -1
SWIDTH 396 0
DWIDTH 4 0
BBX 4 8 0 0
BITMAP
84A2
4EB0
8FF1
0D70
0D70
0D70
0D70
8FF1
ENDCHAR
STARTCHAR uni014A.a
ENCODING -1
SWIDTH 665 0
DWIDTH 6 0
BBX 6 8 0 -2
BITMAP
5F50F4
5FC0F4
5DC5E4
5E5CD4
5E0CF4
5E05F4
0002F4
000EB0
ENDCHAR
STARTCHAR a.a
ENCODING -1
SWIDTH 573 0
DWIDTH 5 0
BBX 5 4 0 0
BITMAP
2CEC90
8D1D90
9C1D90
2CEC90
ENDCHAR
STARTCHAR agrave.a
ENCODING -1
SWIDTH 573 0
DWIDTH 5 0
BBX 5 7 0 0
BITMAP
0A5000
03C100
000000
2CEC90
8D1D90
9C1D90
2CEC90
ENDCHAR
STARTCHAR aacute.a
ENCODING -1
SWIDTH 573 0
DWIDTH 5 0
BBX 5 7 0 0
BITMAP
002B20
009700
000000
2CEC90
8D1D90
9C1D90
2CEC90
ENDCHAR
STARTCHAR acircumflex.a
ENCODING -1
SWIDTH 573 0
DWIDTH 5 0
BBX 5 7 0 0
BITMAP
05FA00
0A4A20
000000
2CEC90
8D1D90
9C1D90
2CEC90
ENDCHAR
STARTCHAR atilde.a
ENCODING -1
SWIDTH 573 0
DWIDTH 5 0
BBX 5 8 0 0
BITMAP
000220
0ACB40
0C4800
000000
2CEC90
8D1D90
9C1D90
2CEC90
ENDCHAR
STARTCHAR adieresis.a
ENCODING -1
SWIDTH 573 0
DWIDTH 5 0
BBX 5 6 0 0
BITMAP
0B3B20
000000
2CEC90
8D1D90
9C1D90
2CEC90
ENDCHAR
STARTCHAR amacron.a
ENCODING -1
SWIDTH 573 0
DWIDTH 5 0
BBX 5 6 0 0
BITMAP
0AFF00
000000
2CEC90
8D1D90
9C1D90
2CEC90
ENDCHAR
STARTCHAR abreve.a
ENCODING -1
SWIDTH 573 0
DWIDTH 5 0
BBX 5 8 0 0
BITMAP
010100
0B2C20
05EA00
000000
2CEC90
8D1D90
9C1D90
2CEC90
ENDCHAR
STARTCHAR aring.a
ENCODING -1
SWIDTH 573 0
DWIDTH 5 0
BBX 5 7 0 0
BITMAP
04E900
04EA00
000000
2CEC90
8D1D90
9C1D90
2CEC90
ENDCHAR
STARTCHAR uni01CE.a
ENCODING -1
SWIDTH 573 0
DWIDTH 5 0
BBX 5 7 0 0
BITMAP
0A4A20
05FA00
000000
2CEC90
8D1D90
9C1D90
2CEC90
ENDCHAR
STARTCHAR uni1EA1.a
ENCODING -1
SWIDTH 573 0
DWIDTH 5 0
BBX 5 6 0 -2
BITMAP
2CEC90
8D1D90
9C1D90
2CEC90
000000
00C400
ENDCHAR
STARTCHAR uni1EA3.a
ENCODING -1
SWIDTH 573 0
DWIDTH 5 0
BBX 5 7 0 0
BITMAP
01D400
00A700
002000
2CEC90
8D1D90
9C1D90
2CEC90
ENDCHAR
STARTCHAR uni1EA5.a
ENCODING -1
SWIDTH 573 0
DWIDTH 5 0
BBX 6 8 0 0
BITMAP
0000A1
01E780
076B00
020200
2CEC90
8D1D90
9C1D90
2CEC90
ENDCHAR
STARTCHAR uni1EA7.a
ENCODING -1
SWIDTH 573 0
DWIDTH 5 0
BBX 5 8 0 0
BITMAP
820000
47E600
076B00
020200
2CEC90
8D1D90
9C1D90
2CEC90
ENDCHAR
STARTCHAR uni1EA9.a
ENCODING -1
SWIDTH 573 0
DWIDTH 5 0
BBX 5 9 0 0
BITMAP
000690
0001D0
01E890
076B00
020200
2CEC90
8D1D90
9C1D90
2CEC90
ENDCHAR
STARTCHAR uni1EAB.a
ENCODING -1
SWIDTH 573 0
DWIDTH 5 0
BBX 5 9 0 0
BITMAP
037900
089B00
030000
01E600
076B00
2EEF90
8D1D90
9C1D90
2CEC90
ENDCHAR
STARTCHAR uni1EAD.a
ENCODING -1
SWIDTH 573 0
DWIDTH 5 0
BBX 5 9 0 -2
BITMAP
05FA00
0A4A20
000000
2CEC90
8D1D90
9C1D90
2CEC90
000000
00C400
ENDCHAR
STARTCHAR uni1EAF.a
ENCODING -1
SWIDTH 573 0
DWIDTH 5 0
BBX 5 9 0 0
BITMAP
004800
018400
0B2B20
05EA00
000000
2CEC90
8D1D90
9C1D90
2CEC90
ENDCHAR
STARTCHAR uni1EB1.a
ENCODING -1
SWIDTH 573 0
DWIDTH 5 0
BBX 5 9 0 0
BITMAP
038000
01B100
0B2B20
05EA00
000000
2CEC90
8D1D90
9C1D90
2CEC90
ENDCHAR
STARTCHAR uni1EB3.a
ENCODING -1
SWIDTH 573 0
DWIDTH 5 0
BBX 5 10 0 0
BITMAP
00D200
008600
019300
0B2B20
05EA00
000000
2CEC90
8D1D90
9C1D90
2CEC90
ENDCHAR
STARTCHAR uni1EB5.a
ENCODING -1
SWIDTH 573 0
DWIDTH 5 0
BBX 5 10 0 0
BITMAP
037A10
099B00
030000
093C00
03E800
000000
2CEC90
8D1D90
9C1D90
2CEC90
ENDCHAR
STARTCHAR uni1EB7.a
ENCODING -1
SWIDTH 573 0
DWIDTH 5 0
BBX 5 10 0 -2
BITMAP
010100
0B2C20
05EA00
000000
2CEC90
8D1D90
9C1D90
2CEC90
000000
00C400
ENDCHAR
STARTCHAR aogonek.a
ENCODING -1
SWIDTH 573 0
DWIDTH 5 0
BBX 5 6 0 -2
BITMAP
2CEC90
8D1D90
9C1D90
2CEC90
000C10
001D80
ENDCHAR
STARTCHAR g.a
ENCODING -1
SWIDTH 583 0
DWIDTH 5 0
BBX 5 6 0 -2
BITMAP
1BEC90
8D1C90
8D1C90
2CEE90
031D80
2DFC20
ENDCHAR
STARTCHAR uni01F5.a
ENCODING -1
SWIDTH 583 0
DWIDTH 5 0
BBX 5 9 0 -2
BITMAP
001B20
009700
000000
1BEC90
8D1C90
8D1C90
2CEE90
031D80
2DFC20
ENDCHAR
STARTCHAR gcircumflex.a
ENCODING -1
SWIDTH 583 0
DWIDTH 5 0
BBX 5 9 0 -2
BITMAP
05FB00
0A4A20
000000
1BEC90
8D1C90
8D1C90
2CEE90
031D80
2DFC20
ENDCHAR
STARTCHAR gbreve.a
ENCODING -1
SWIDTH 583 0
DWIDTH 5 0
BBX 5 10 0 -2
BITMAP
010100
0B3B20
05EA00
000000
1BEC90
8D1C90
8D1C90
2CEE90
031D80
2DFC20
ENDCHAR
STARTCHAR gdotaccent.a
ENCODING -1
SWIDTH 583 0
DWIDTH 5 0
BBX 5 8 0 -2
BITMAP
00C400
000000
1BEC90
8D1C90
8D1C90
2CEE90
031D80
2DFC20
ENDCHAR
STARTCHAR uni0123.a
ENCODING -1
SWIDTH 583 0
DWIDTH 5 0
BBX 5 10 0 -2
BITMAP
009A00
02E100
00C400
000000
1BEC90
8D1C90
8D1C90
2CEE90
031D80
2DFC20
ENDCHAR
STARTCHAR gcaron.a
ENCODING -1
SWIDTH 583 0
DWIDTH 5 0
BBX 5 9 0 -2
BITMAP
0A4A20
05FB00
000000
1BEC90
8D1C90
8D1C90
2CEE90
031D80
2DFC20
ENDCHAR
STARTCHAR uni1E21.a
ENCODING -1
SWIDTH 583 0
DWIDTH 5 0
BBX 5 8 0 -2
BITMAP
09FF00
000000
1BEC90
8D1C90
8D1C90
2CEE90
031D80
2DFC20
ENDCHAR
STARTCHAR uni00670303.a
ENCODING -1
SWIDTH 583 0
DWIDTH 5 0
BBX 5 10 0 -2
BITMAP
000220
09CB50
0C4800
000000
1BEC90
8D1C90
8D1C90
2CEE90
031D80
2DFC20
ENDCHAR
STARTCHAR l.a
ENCODING -1
SWIDTH 276 0
DWIDTH 2 0
BBX 2 6 0 0
BITMAP
6E
6E
6E
6E
6E
6E
ENDCHAR
STARTCHAR lacute.a
ENCODING -1
SWIDTH 276 0
DWIDTH 2 0
BBX 3 9 0 0
BITMAP
0770
3B20
0000
6E00
6E00
6E00
6E00
6E00
6E00
ENDCHAR
STARTCHAR lcaron.a
ENCODING -1
SWIDTH 318 0
DWIDTH 3 0
BBX 4 6 0 0
BITMAP
6EB1
6E00
6E00
6E00
6E00
6E00
ENDCHAR
STARTCHAR ldot.a
ENCODING -1
SWIDTH 453 0
DWIDTH 4 0
BBX 4 6 0 0
BITMAP
6E00
6E00
6E5D
6E5D
6E00
6E00
ENDCHAR
STARTCHAR uni013C.a
ENCODING -1
SWIDTH 276 0
DWIDTH 2 0
BBX 3 9 0 -3
BITMAP
6E00
6E00
6E00
6E00
6E00
6E00
4B00
1E10
A900
ENDCHAR
STARTCHAR uni1E37.a
ENCODING -1
SWIDTH 276 0
DWIDTH 2 0
BBX 2 8 0 -2
BITMAP
6E
6E
6E
6E
6E
6E
00
5B
ENDCHAR
STARTCHAR uni1E39.a
ENCODING -1
SWIDTH 276 0
DWIDTH 2 0
BBX 4 10 -1 -2
BITMAP
1FF8
0000
06E0
06E0
06E0
06E0
06E0
06E0
0000
05B0
ENDCHAR
STARTCHAR uni1E3B.a
ENCODING -1
SWIDTH 276 0
DWIDTH 2 0
BBX 4 8 -1 -2
BITMAP
06E0
06E0
06E0
06E0
06E0
06E0
0000
1FF8
ENDCHAR
STARTCHAR lslash.a
ENCODING -1
SWIDTH 299 0
DWIDTH 3 0
BBX 4 6 -1 0
BITMAP
05F0
05F8
1DF2
06F0
05F0
05F0
ENDCHAR
STARTCHAR fl.a
ENCODING -1
SWIDTH 635 0
DWIDTH 6 0
BBX 6 6 0 0
BITMAP
0AE6F2
2F43F2
BFE3F2
3F23F2
3F23F2
3F23F2
ENDCHAR
STARTCHAR anoteleia.cap
ENCODING -1
SWIDTH 300 0
DWIDTH 3 0
BBX 3 2 0 4
BITMAP
4D10
4D10
ENDCHAR
STARTCHAR tonos.cap
ENCODING -1
SWIDTH 119 0
DWIDTH 1 0
BBX 3 2 -1 4
BITMAP
0D20
1D00
ENDCHAR
STARTCHAR uni1FBD.cap
ENCODING -1
SWIDTH 164 0
DWIDTH 1 0
BBX 2 3 0 3
BITMAP
D4
97
30
ENDCHAR
STARTCHAR uni1FFE.cap
ENCODING -1
SWIDTH 161 0
DWIDTH 1 0
BBX 3 3 -1 3
BITMAP
0B70
1E10
0310
ENDCHAR
STARTCHAR uni1FEF.cap
ENCODING -1
SWIDTH 119 0
DWIDTH 1 0
BBX 3 2 -1 4
BITMAP
1E00
0C10
ENDCHAR
STARTCHAR uni1FCD.cap
ENCODING -1
SWIDTH 326 0
DWIDTH 3 0
BBX 3 2 0 4
BITMAP
E6C0
93D0
ENDCHAR
STARTCHAR uni1FDD.cap
ENCODING -1
SWIDTH 325 0
DWIDTH 3 0
BBX 4 3 -1 3
BITMAP
0B7C
1D1D
0300
ENDCHAR
STARTCHAR uni1FCE.cap
ENCODING -1
SWIDTH 326 0
DWIDTH 3 0
BBX 3 2 0 4
BITMAP
E5D0
04A0
ENDCHAR
STARTCHAR uni1FDE.cap
ENCODING -1
SWIDTH 317 0
DWIDTH 3 0
BBX 4 3 -1 3
BITMAP
0B7D
1D4A
0300
ENDCHAR
STARTCHAR uni1FCF.cap
ENCODING -1
SWIDTH 223 0
DWIDTH 2 0
BBX 4 3 -1 3
BITMAP
1EE1
0970
0360
ENDCHAR
STARTCHAR uni1FDF.cap
ENCODING -1
SWIDTH 223 0
DWIDTH 2 0
BBX 4 3 -1 3
BITMAP
1EE1
0790
0640
ENDCHAR
STARTCHAR uni0407.a
ENCODING -1
SWIDTH 301 0
DWIDTH 3 0
BBX 3 7 0 0
BITMAP
A770
5F00
5F00
5F00
5F00
5F00
5F00
ENDCHAR
STARTCHAR uni0457.a
ENCODING -1
SWIDTH 299 0
DWIDTH 3 0
BBX 3 6 0 0
BITMAP
B770
0000
5F00
5F00
5F00
5F00
ENDCHAR
STARTCHAR uni0431.srb
ENCODING -1
SWIDTH 546 0
DWIDTH 5 0
BBX 5 7 0 0
BITMAP
000110
1BEF60
1E9100
0AFD10
7C2D70
9B1C70
2CEB10
ENDCHAR
STARTCHAR zero.0
ENCODING -1
SWIDTH 528 0
DWIDTH 5 0
BBX 5 6 0 0
BITMAP
1BE800
6C2E30
994C50
9A8C50
6C2E20
1BE800
ENDCHAR
STARTCHAR zero.0s
ENCODING -1
SWIDTH 528 0
DWIDTH 5 0
BBX 5 6 0 0
BITMAP
1BE800
6E2E30
9D7C50
98AE50
6C3F20
1BE800
ENDCHAR
STARTCHAR zero.pnum
ENCODING -1
SWIDTH 580 0
DWIDTH 5 0
BBX 5 6 0 0
BITMAP
09EB10
4F2C70
7C09A0
7C09A0
4F2C70
08EB10
ENDCHAR
STARTCHAR one.pnum
ENCODING -1
SWIDTH 410 0
DWIDTH 4 0
BBX 3 6 0 0
BITMAP
2BB0
AFB0
09B0
09B0
09B0
09B0
ENDCHAR
STARTCHAR two.pnum
ENCODING -1
SWIDTH 526 0
DWIDTH 5 0
BBX 5 6 0 0
BITMAP
4DE700
235F00
006E00
03E800
3EC000
9FFF40
ENDCHAR
STARTCHAR three.pnum
ENCODING -1
SWIDTH 528 0
DWIDTH 5 0
BBX 5 6 0 0
BITMAP
4DE900
136F10
08F800
004F30
324F30
6DE800
ENDCHAR
STARTCHAR four.pnum
ENCODING -1
SWIDTH 560 0
DWIDTH 5 0
BBX 5 6 0 0
BITMAP
00CF00
05DF00
0D8F00
6C3F00
AFFFA0
003F00
ENDCHAR
STARTCHAR five.pnum
ENCODING -1
SWIDTH 528 0
DWIDTH 5 0
BBX 5 6 0 0
BITMAP
3FFF10
4E0000
5FEA00
024F40
323F30
6DE800
ENDCHAR
STARTCHAR six.pnum
ENCODING -1
SWIDTH 562 0
DWIDTH 5 0
BBX 5 6 0 0
BITMAP
06ED30
2E2300
6EDD20
6D2B80
3E2C70
08EB10
ENDCHAR
STARTCHAR seven.pnum
ENCODING -1
SWIDTH 516 0
DWIDTH 5 0
BBX 5 6 0 0
BITMAP
9FFF40
007D10
00E500
04E000
08C000
09B000
ENDCHAR
STARTCHAR eight.pnum
ENCODING -1
SWIDTH 549 0
DWIDTH 5 0
BBX 5 6 0 0
BITMAP
1BEA00
4E1E30
1DCC00
3C8E30
7B1D60
2CFB10
ENDCHAR
STARTCHAR nine.pnum
ENCODING -1
SWIDTH 562 0
DWIDTH 5 0
BBX 5 6 0 0
BITMAP
1BE800
7C2E40
7C1D70
2DED60
032E30
3DE700
ENDCHAR
STARTCHAR zero.0p
ENCODING -1
SWIDTH 580 0
DWIDTH 5 0
BBX 5 6 0 0
BITMAP
09EB10
4E1C70
7C48A0
7C8AA0
4E1C70
08EB10
ENDCHAR
STARTCHAR zero.0ps
ENCODING -1
SWIDTH 580 0
DWIDTH 5 0
BBX 5 6 0 0
BITMAP
09EB10
4F2B70
7DA7A0
7A7DA0
4E1D70
08EB10
ENDCHAR
STARTCHAR zero.tnum
ENCODING -1
SWIDTH 528 0
DWIDTH 5 0
BBX 5 5 0 0
BITMAP
1BE900
8C2E40
A90D60
8C2E40
1BE900
ENDCHAR
STARTCHAR one.tnum
ENCODING -1
SWIDTH 528 0
DWIDTH 5 0
BBX 5 5 0 0
BITMAP
06F300
3FF300
02F300
02F300
6FFF40
ENDCHAR
STARTCHAR two.tnum
ENCODING -1
SWIDTH 528 0
DWIDTH 5 0
BBX 5 5 0 0
BITMAP
4DE700
336F00
00BC00
2CD200
AFFF50
ENDCHAR
STARTCHAR three.tnum
ENCODING -1
SWIDTH 528 0
DWIDTH 5 0
BBX 5 6 0 -1
BITMAP
4DE900
136F10
08F800
004F30
324F30
6DE800
ENDCHAR
STARTCHAR four.tnum
ENCODING -1
SWIDTH 528 0
DWIDTH 5 0
BBX 5 6 0 -1
BITMAP
02ED00
0BCD00
6C6D00
CFFF80
005D00
002600
ENDCHAR
STARTCHAR five.tnum
ENCODING -1
SWIDTH 528 0
DWIDTH 5 0
BBX 5 6 0 -1
BITMAP
3FFF10
4E0000
5FE900
034F40
323F30
6DE800
ENDCHAR
STARTCHAR six.tnum
ENCODING -1
SWIDTH 528 0
DWIDTH 5 0
BBX 5 6 0 0
BITMAP
08EC20
5D1300
8DEC10
9C1D50
6D2D50
0AEA00
ENDCHAR
STARTCHAR seven.tnum
ENCODING -1
SWIDTH 528 0
DWIDTH 5 0
BBX 5 6 0 -1
BITMAP
9FFF60
005D10
00D500
03F000
06D000
069000
ENDCHAR
STARTCHAR eight.tnum
ENCODING -1
SWIDTH 528 0
DWIDTH 5 0
BBX 5 6 0 0
BITMAP
1CE900
5D1F10
2ECB00
4C9E20
9A1E50
2CEA10
ENDCHAR
STARTCHAR nine.tnum
ENCODING -1
SWIDTH 528 0
DWIDTH 5 0
BBX 5 6 0 -1
BITMAP
3DE700
A93F20
A92E60
4ECE50
113F20
5ED600
ENDCHAR
STARTCHAR zero.onum
ENCODING -1
SWIDTH 545 0
DWIDTH 5 0
BBX 5 5 0 0
BITMAP
1AEA00
6D1E50
8A0C70
6D1E50
1BEA00
ENDCHAR
STARTCHAR one.onum
ENCODING -1
SWIDTH 410 0
DWIDTH 4 0
BBX 3 5 0 0
BITMAP
2BB0
AFB0
09B0
09B0
09B0
ENDCHAR
STARTCHAR two.onum
ENCODING -1
SWIDTH 518 0
DWIDTH 5 0
BBX 5 5 0 0
BITMAP
5DE600
337E00
00BB00
2CD200
9FFF30
ENDCHAR
STARTCHAR three.onum
ENCODING -1
SWIDTH 528 0
DWIDTH 5 0
BBX 5 6 0 -1
BITMAP
4DE900
136F10
08F800
004F30
324F30
6DE800
ENDCHAR
STARTCHAR four.onum
ENCODING -1
SWIDTH 545 0
DWIDTH 5 0
BBX 5 6 0 -1
BITMAP
01EE00
0ACE00
5D5E00
BFFF90
004E00
002600
ENDCHAR
STARTCHAR five.onum
ENCODING -1
SWIDTH 528 0
DWIDTH 5 0
BBX 5 6 0 -1
BITMAP
3FFF10
4E0000
5FE900
034F40
323F30
6DE800
ENDCHAR
STARTCHAR six.onum
ENCODING -1
SWIDTH 545 0
DWIDTH 5 0
BBX 5 6 0 0
BITMAP
07ED20
3E2300
7DEC10
7D1C70
5E2D60
09EB10
ENDCHAR
STARTCHAR seven.onum
ENCODING -1
SWIDTH 516 0
DWIDTH 5 0
BBX 5 6 0 -1
BITMAP
9FFF40
007B00
01E300
05D000
09B000
088000
ENDCHAR
STARTCHAR eight.onum
ENCODING -1
SWIDTH 547 0
DWIDTH 5 0
BBX 5 6 0 0
BITMAP
1BEA00
4E1E20
1DCC00
3C9E30
7B1D60
2CEB10
ENDCHAR
STARTCHAR nine.onum
ENCODING -1
SWIDTH 545 0
DWIDTH 5 0
BBX 5 6 0 -1
BITMAP
2CE800
9B2E30
9A2D70
3DDE60
023E30
4EE700
ENDCHAR
STARTCHAR at.case
ENCODING -1
SWIDTH 830 0
DWIDTH 7 0
BBX 7 6 0 0
BITMAP
02AEEA10
1D9FCBA0
78B5D2D0
86D5F2D0
4CCDBE50
06DFA000
ENDCHAR
STARTCHAR i.trk
ENCODING -1
SWIDTH 276 0
DWIDTH 2 0
BBX 2 7 0 0
BITMAP
14
5C
00
6E
6E
6E
6E
ENDCHAR
STARTCHAR A.sc
ENCODING -1
SWIDTH 503 0
DWIDTH 5 0
BBX 5 5 0 0
BITMAP
0AF300
0EB800
4D6C00
9FFF20
D60E70
ENDCHAR
STARTCHAR B.sc
ENCODING -1
SWIDTH 546 0
DWIDTH 5 0
BBX 5 5 0 0
BITMAP
5FFC20
5F1E50
5FFE20
5F1C80
5FFD30
ENDCHAR
STARTCHAR C.sc
ENCODING -1
SWIDTH 520 0
DWIDTH 5 0
BBX 5 5 0 0
BITMAP
08ED20
5E2200
8C0000
6E2300
09ED30
ENDCHAR
STARTCHAR D.sc
ENCODING -1
SWIDTH 580 0
DWIDTH 5 0
BBX 5 5 0 0
BITMAP
5FEB10
5F1C90
5F09C0
5F1C90
5FEB10
ENDCHAR
STARTCHAR E.sc
ENCODING -1
SWIDTH 499 0
DWIDTH 4 0
BBX 4 5 0 0
BITMAP
5FFE
5F00
5FFA
5F00
5FFF
ENDCHAR
STARTCHAR F.sc
ENCODING -1
SWIDTH 476 0
DWIDTH 4 0
BBX 4 5 0 0
BITMAP
5FFE
5F00
5FFA
5F00
5F00
ENDCHAR
STARTCHAR G.sc
ENCODING -1
SWIDTH 576 0
DWIDTH 5 0
BBX 5 5 0 0
BITMAP
08ED40
5E2200
8C0000
6E6FA0
09EE70
ENDCHAR
STARTCHAR H.sc
ENCODING -1
SWIDTH 621 0
DWIDTH 6 0
BBX 5 5 0 0
BITMAP
5F06E0
5F06E0
5FFFE0
5F06E0
5F06E0
ENDCHAR
STARTCHAR I.sc
ENCODING -1
SWIDTH 301 0
DWIDTH 3 0
BBX 2 5 0 0
BITMAP
5F
5F
5F
5F
5F
ENDCHAR
STARTCHAR J.sc
ENCODING -1
SWIDTH 470 0
DWIDTH 4 0
BBX 4 5 0 0
BITMAP
00C8
00C8
00C8
22C8
7ED2
ENDCHAR
STARTCHAR K.sc
ENCODING -1
SWIDTH 555 0
DWIDTH 5 0
BBX 5 5 0 0
BITMAP
5F2E60
5FBA00
5FF800
5F6F20
5F0AB0
ENDCHAR
STARTCHAR L.sc
ENCODING -1
SWIDTH 471 0
DWIDTH 4 0
BBX 4 5 0 0
BITMAP
5F00
5F00
5F00
5F00
5FFE
ENDCHAR
STARTCHAR M.sc
ENCODING -1
SWIDTH 685 0
DWIDTH 6 0
BBX 6 5 0 0
BITMAP
5F31F7
5F96F7
5CDCC7
5D9BB7
5D24B7
ENDCHAR
STARTCHAR N.sc
ENCODING -1
SWIDTH 606 0
DWIDTH 5 0
BBX 5 5 0 0
BITMAP
5F47C0
5FC7C0
5DDAC0
5D5FC0
5E0CC0
ENDCHAR
STARTCHAR O.sc
ENCODING -1
SWIDTH 616 0
DWIDTH 6 0
BBX 6 5 0 0
BITMAP
09ED40
6E28E0
8C04F1
6E28E0
09ED40
ENDCHAR
STARTCHAR P.sc
ENCODING -1
SWIDTH 551 0
DWIDTH 5 0
BBX 5 5 0 0
BITMAP
5FFC20
5F1B80
5F0C80
5FFC20
5F0000
ENDCHAR
STARTCHAR Q.sc
ENCODING -1
SWIDTH 614 0
DWIDTH 6 0
BBX 6 7 0 -2
BITMAP
09ED40
6E28E0
9C04F1
6E28E0
1AFE50
00AB10
002CF3
ENDCHAR
STARTCHAR R.sc
ENCODING -1
SWIDTH 561 0
DWIDTH 5 0
BBX 5 5 0 0
BITMAP
5FFD30
5F1C80
5FFE20
5F3F20
5F0B90
ENDCHAR
STARTCHAR S.sc
ENCODING -1
SWIDTH 504 0
DWIDTH 5 0
BBX 5 5 0 0
BITMAP
1CEB00
6F3300
1BFA00
245F30
5DEA00
ENDCHAR
STARTCHAR T.sc
ENCODING -1
SWIDTH 491 0
DWIDTH 4 0
BBX 5 5 0 0
BITMAP
CFFF30
07D000
07D000
07D000
07D000
ENDCHAR
STARTCHAR U.sc
ENCODING -1
SWIDTH 607 0
DWIDTH 5 0
BBX 5 5 0 0
BITMAP
5F07C0
5F07C0
5F07C0
3F29A0
09ED30
ENDCHAR
STARTCHAR V.sc
ENCODING -1
SWIDTH 491 0
DWIDTH 4 0
BBX 5 5 0 0
BITMAP
E70E50
9A3F10
5E7B00
1FC700
0BF200
ENDCHAR
STARTCHAR W.sc
ENCODING -1
SWIDTH 717 0
DWIDTH 6 0
BBX 7 5 0 0
BITMAP
C76E0E40
9A9F4F10
6BCB9E00
4ED7DB00
1FB4F800
ENDCHAR
STARTCHAR X.sc
ENCODING -1
SWIDTH 509 0
DWIDTH 5 0
BBX 5 5 0 0
BITMAP
8D3F20
1EC900
0AF400
2FCA00
AB3F30
ENDCHAR
STARTCHAR Y.sc
ENCODING -1
SWIDTH 467 0
DWIDTH 4 0
BBX 5 5 0 0
BITMAP
D84E10
6DA900
0EF200
09C000
08C000
ENDCHAR
STARTCHAR Z.sc
ENCODING -1
SWIDTH 481 0
DWIDTH 4 0
BBX 4 5 0 0
BITMAP
7FFF
01DA
0AD1
5F40
AFFF
ENDCHAR
STARTCHAR Agrave.sc
ENCODING -1
SWIDTH 503 0
DWIDTH 5 0
BBX 5 7 0 0
BITMAP
1B2000
079000
0AF300
0EB800
4D6C00
9FFF20
D60E70
ENDCHAR
STARTCHAR Aacute.sc
ENCODING -1
SWIDTH 503 0
DWIDTH 5 0
BBX 5 7 0 0
BITMAP
007700
03B200
0AF300
0EB800
4D6C00
9FFF20
D60E70
ENDCHAR
STARTCHAR Acircumflex.sc
ENCODING -1
SWIDTH 503 0
DWIDTH 5 0
BBX 5 6 0 0
BITMAP
1B9600
0AF300
0EB800
4D6C00
9FFF20
D60E70
ENDCHAR
STARTCHAR Atilde.sc
ENCODING -1
SWIDTH 503 0
DWIDTH 5 0
BBX 5 8 0 0
BITMAP
000400
3E9D00
767400
0AF300
0EB800
4D6C00
9FFF20
D60E70
ENDCHAR
STARTCHAR Adieresis.sc
ENCODING -1
SWIDTH 503 0
DWIDTH 5 0
BBX 5 6 0 0
BITMAP
3A3A00
0AF300
0EB800
4D6C00
9FFF20
D60E70
ENDCHAR
STARTCHAR Amacron.sc
ENCODING -1
SWIDTH 503 0
DWIDTH 5 0
BBX 5 6 0 0
BITMAP
2FF900
0AF300
0EB800
4D6C00
9FFF20
D60E70
ENDCHAR
STARTCHAR Abreve.sc
ENCODING -1
SWIDTH 503 0
DWIDTH 5 0
BBX 5 7 0 0
BITMAP
2A3900
0BE400
0AF300
0EB800
4D6C00
9FFF20
D60E70
ENDCHAR
STARTCHAR Aring.sc
ENCODING -1
SWIDTH 503 0
DWIDTH 5 0
BBX 5 7 0 0
BITMAP
09E200
09E200
0AF300
0EB800
4D6C00
9FFF20
D60E70
ENDCHAR
STARTCHAR uni01CD.sc
ENCODING -1
SWIDTH 503 0
DWIDTH 5 0
BBX 5 6 0 0
BITMAP
1B9600
0AF300
0EB800
4D6C00
9FFF20
D60E70
ENDCHAR
STARTCHAR uni1EA0.sc
ENCODING -1
SWIDTH 503 0
DWIDTH 5 0
BBX 5 7 0 -2
BITMAP
0AF300
0EB800
4D6C00
9FFF20
D60E70
000000
05B000
ENDCHAR
STARTCHAR uni1EA2.sc
ENCODING -1
SWIDTH 503 0
DWIDTH 5 0
BBX 5 7 0 0
BITMAP
07B000
02D000
0AF300
0EB800
4D6C00
9FFF20
D60E70
ENDCHAR
STARTCHAR uni1EA4.sc
ENCODING -1
SWIDTH 503 0
DWIDTH 5 0
BBX 5 7 0 0
BITMAP
08E730
0C7600
0CF500
0EB800
4D6C00
9FFF20
D60E70
ENDCHAR
STARTCHAR uni1EA6.sc
ENCODING -1
SWIDTH 503 0
DWIDTH 5 0
BBX 5 7 0 0
BITMAP
89E100
0C7600
0CF500
0EB800
4D6C00
9FFF20
D60E70
ENDCHAR
STARTCHAR uni1EA8.sc
ENCODING -1
SWIDTH 503 0
DWIDTH 5 0
BBX 5 9 0 0
BITMAP
000C30
000770
08E930
0C7600
0CF500
0EB800
4D6C00
9FFF20
D60E70
ENDCHAR
STARTCHAR uni1EAA.sc
ENCODING -1
SWIDTH 503 0
DWIDTH 5 0
BBX 5 10 0 0
BITMAP
084800
1BD500
020000
08E100
0C7600
0CF500
0EB800
4D6C00
9FFF20
D60E70
ENDCHAR
STARTCHAR uni1EAC.sc
ENCODING -1
SWIDTH 503 0
DWIDTH 5 0
BBX 5 8 0 -2
BITMAP
1B9600
0AF300
0EB800
4D6C00
9FFF20
D60E70
000000
05B000
ENDCHAR
STARTCHAR uni1EAE.sc
ENCODING -1
SWIDTH 503 0
DWIDTH 5 0
BBX 5 9 0 0
BITMAP
00A300
02A100
2A3900
0AE300
0AF300
0EB800
4D6C00
9FFF20
D60E70
ENDCHAR
STARTCHAR uni1EB0.sc
ENCODING -1
SWIDTH 503 0
DWIDTH 5 0
BBX 5 9 0 0
BITMAP
093000
057100
2A3900
0AE300
0AF300
0EB800
4D6C00
9FFF20
D60E70
ENDCHAR
STARTCHAR uni1EB2.sc
ENCODING -1
SWIDTH 503 0
DWIDTH 5 0
BBX 5 10 0 0
BITMAP
069000
01D000
02A100
2A3900
0AE300
0AF300
0EB800
4D6C00
9FFF20
D60E70
ENDCHAR
STARTCHAR uni1EB4.sc
ENCODING -1
SWIDTH 503 0
DWIDTH 5 0
BBX 5 10 0 0
BITMAP
084800
1BD500
030100
1A3800
0AE300
0AF300
0EB800
4D6C00
9FFF20
D60E70
ENDCHAR
STARTCHAR uni1EB6.sc
ENCODING -1
SWIDTH 503 0
DWIDTH 5 0
BBX 5 9 0 -2
BITMAP
2A3900
0BE400
0AF300
0EB800
4D6C00
9FFF20
D60E70
000000
05B000
ENDCHAR
STARTCHAR Aogonek.sc
ENCODING -1
SWIDTH 503 0
DWIDTH 5 0
BBX 5 7 0 -2
BITMAP
0AF300
0EB800
4D6C00
9FFF20
D60E70
001C10
001D90
ENDCHAR
STARTCHAR AE.sc
ENCODING -1
SWIDTH 741 0
DWIDTH 7 0
BBX 7 5 0 0
BITMAP
01FFFF20
08BF5000
1E5FFC00
7FFF4000
D70FFF30
ENDCHAR
STARTCHAR uni01FC.sc
ENCODING -1
SWIDTH 741 0
DWIDTH 7 0
BBX 7 7 0 0
BITMAP
0000A400
0006A100
01FFFF20
08BF5000
1E5FFC00
7FFF4000
D70FFF30
ENDCHAR
STARTCHAR uni01E2.sc
ENCODING -1
SWIDTH 741 0
DWIDTH 7 0
BBX 7 6 0 0
BITMAP
005FF600
01FFFF20
08BF5000
1E5FFC00
7FFF4000
D70FFF30
ENDCHAR
STARTCHAR uni0243.sc
ENCODING -1
SWIDTH 570 0
DWIDTH 5 0
BBX 5 5 0 0
BITMAP
1FFD40
1F4B80
2FFF40
CFFBC0
1FFE60
ENDCHAR
STARTCHAR uni1E06.sc
ENCODING -1
SWIDTH 546 0
DWIDTH 5 0
BBX 5 7 0 -2
BITMAP
5FFC20
5F1E50
5FFE20
5F1C80
5FFD30
000000
0AFF00
ENDCHAR
STARTCHAR Ccedilla.sc
ENCODING -1
SWIDTH 520 0
DWIDTH 5 0
BBX 5 8 0 -3
BITMAP
08ED20
5E2200
8C0000
6E2300
09FE30
00D600
008900
03D300
ENDCHAR
STARTCHAR Cacute.sc
ENCODING -1
SWIDTH 520 0
DWIDTH 5 0
BBX 5 7 0 0
BITMAP
002B10
009700
08ED20
5E2200
8C0000
6E2300
09ED30
ENDCHAR
STARTCHAR Ccircumflex.sc
ENCODING -1
SWIDTH 520 0
DWIDTH 5 0
BBX 5 6 0 0
BITMAP
069B10
08ED20
5E2200
8C0000
6E2300
09ED30
ENDCHAR
STARTCHAR Ccaron.sc
ENCODING -1
SWIDTH 520 0
DWIDTH 5 0
BBX 5 6 0 0
BITMAP
069B10
08ED20
5E2200
8C0000
6E2300
09ED30
ENDCHAR
STARTCHAR Cdotaccent.sc
ENCODING -1
SWIDTH 520 0
DWIDTH 5 0
BBX 5 6 0 0
BITMAP
00C500
08ED20
5E2200
8C0000
6E2300
09ED30
ENDCHAR
STARTCHAR Dcaron.sc
ENCODING -1
SWIDTH 580 0
DWIDTH 5 0
BBX 5 6 0 0
BITMAP
079A00
5FEB10
5F1C90
5F09C0
5F1C90
5FEB10
ENDCHAR
STARTCHAR uni1E0C.sc
ENCODING -1
SWIDTH 580 0
DWIDTH 5 0
BBX 5 7 0 -2
BITMAP
5FEB10
5F1C90
5F09C0
5F1C90
5FEB10
000000
00C300
ENDCHAR
STARTCHAR uni1E0E.sc
ENCODING -1
SWIDTH 580 0
DWIDTH 5 0
BBX 5 7 0 -2
BITMAP
5FEB10
5F1C90
5F09C0
5F1C90
5FEB10
000000
0AFF00
ENDCHAR
STARTCHAR Dcroat.sc
ENCODING -1
SWIDTH 604 0
DWIDTH 5 0
BBX 5 5 0 0
BITMAP
1FFC30
1F49C0
8FB6F0
1F4AC0
1FFC30
ENDCHAR
STARTCHAR Egrave.sc
ENCODING -1
SWIDTH 499 0
DWIDTH 4 0
BBX 4 7 0 0
BITMAP
0B30
05B0
5FFE
5F00
5FFA
5F00
5FFF
ENDCHAR
STARTCHAR Eacute.sc
ENCODING -1
SWIDTH 499 0
DWIDTH 4 0
BBX 4 7 0 0
BITMAP
0059
01C3
5FFE
5F00
5FFA
5F00
5FFF
ENDCHAR
STARTCHAR Ecircumflex.sc
ENCODING -1
SWIDTH 499 0
DWIDTH 4 0
BBX 4 6 0 0
BITMAP
0A98
5FFE
5F00
5FFA
5F00
5FFF
ENDCHAR
STARTCHAR Ecaron.sc
ENCODING -1
SWIDTH 499 0
DWIDTH 4 0
BBX 4 6 0 0
BITMAP
0A98
5FFE
5F00
5FFA
5F00
5FFF
ENDCHAR
STARTCHAR Edieresis.sc
ENCODING -1
SWIDTH 499 0
DWIDTH 4 0
BBX 4 6 0 0
BITMAP
1C1C
5FFE
5F00
5FFA
5F00
5FFF
ENDCHAR
STARTCHAR Emacron.sc
ENCODING -1
SWIDTH 499 0
DWIDTH 4 0
BBX 4 6 0 0
BITMAP
0EFC
5FFE
5F00
5FFA
5F00
5FFF
ENDCHAR
STARTCHAR Ebreve.sc
ENCODING -1
SWIDTH 499 0
DWIDTH 4 0
BBX 4 7 0 0
BITMAP
0B2B
08E6
5FFE
5F00
5FFA
5F00
5FFF
ENDCHAR
STARTCHAR Edotaccent.sc
ENCODING -1
SWIDTH 499 0
DWIDTH 4 0
BBX 4 6 0 0
BITMAP
03D1
5FFE
5F00
5FFA
5F00
5FFF
ENDCHAR
STARTCHAR uni1EB8.sc
ENCODING -1
SWIDTH 499 0
DWIDTH 4 0
BBX 4 7 0 -2
BITMAP
5FFE
5F00
5FFA
5F00
5FFF
0000
02D1
ENDCHAR
STARTCHAR uni1EBA.sc
ENCODING -1
SWIDTH 499 0
DWIDTH 4 0
BBX 4 7 0 0
BITMAP
05C1
00D2
5FFE
5F00
5FFA
5F00
5FFF
ENDCHAR
STARTCHAR uni1EBC.sc
ENCODING -1
SWIDTH 499 0
DWIDTH 4 0
BBX 5 8 0 0
BITMAP
000410
1DAD10
496600
5FFE00
5F0000
5FFA00
5F0000
5FFF00
ENDCHAR
STARTCHAR uni1EBE.sc
ENCODING -1
SWIDTH 499 0
DWIDTH 4 0
BBX 5 7 0 0
BITMAP
05F750
0B6900
5FFF00
5F0000
5FFA00
5F0000
5FFF00
ENDCHAR
STARTCHAR uni1EC0.sc
ENCODING -1
SWIDTH 499 0
DWIDTH 4 0
BBX 4 7 0 0
BITMAP
78F3
0B69
5FFF
5F00
5FFA
5F00
5FFF
ENDCHAR
STARTCHAR uni1EC2.sc
ENCODING -1
SWIDTH 499 0
DWIDTH 4 0
BBX 5 9 0 0
BITMAP
000A60
0004A0
05F860
0B6900
5FFF00
5F0000
5FFA00
5F0000
5FFF00
ENDCHAR
STARTCHAR uni1EC4.sc
ENCODING -1
SWIDTH 499 0
DWIDTH 4 0
BBX 4 10 0 0
BITMAP
0659
0BB8
0200
05F3
0B69
5FFF
5F00
5FFA
5F00
5FFF
ENDCHAR
STARTCHAR uni1EC6.sc
ENCODING -1
SWIDTH 499 0
DWIDTH 4 0
BBX 4 8 0 -2
BITMAP
0A98
5FFE
5F00
5FFA
5F00
5FFF
0000
02D1
ENDCHAR
STARTCHAR Eogonek.sc
ENCODING -1
SWIDTH 499 0
DWIDTH 4 0
BBX 5 7 0 -2
BITMAP
5FFE00
5F0000
5FFA00
5F0000
5FFF00
008600
009E10
ENDCHAR
STARTCHAR uni1E16.sc
ENCODING -1
SWIDTH 499 0
DWIDTH 4 0
BBX 4 9 0 0
BITMAP
0076
02B2
0000
0EFC
5FFE
5F00
5FFA
5F00
5FFF
ENDCHAR
STARTCHAR uni01F4.sc
ENCODING -1
SWIDTH 576 0
DWIDTH 5 0
BBX 5 7 0 0
BITMAP
001B20
008800
08ED40
5E2200
8C0000
6E6FA0
09EE70
ENDCHAR
STARTCHAR Gcircumflex.sc
ENCODING -1
SWIDTH 576 0
DWIDTH 5 0
BBX 5 6 0 0
BITMAP
04AB20
08ED40
5E2200
8C0000
6E6FA0
09EE70
ENDCHAR
STARTCHAR Gbreve.sc
ENCODING -1
SWIDTH 576 0
DWIDTH 5 0
BBX 5 7 0 0
BITMAP
075840
03EC00
08ED40
5E2200
8C0000
6E6FA0
09EE70
ENDCHAR
STARTCHAR Gdotaccent.sc
ENCODING -1
SWIDTH 576 0
DWIDTH 5 0
BBX 5 6 0 0
BITMAP
00A600
08ED40
5E2200
8C0000
6E6FA0
09EE70
ENDCHAR
STARTCHAR uni0122.sc
ENCODING -1
SWIDTH 576 0
DWIDTH 5 0
BBX 5 8 0 -3
BITMAP
08ED40
5E2200
8C0000
6E6FA0
09EE70
009600
006B00
01D400
ENDCHAR
STARTCHAR Gcaron.sc
ENCODING -1
SWIDTH 576 0
DWIDTH 5 0
BBX 5 6 0 0
BITMAP
04AB20
08ED40
5E2200
8C0000
6E6FA0
09EE70
ENDCHAR
STARTCHAR uni1E20.sc
ENCODING -1
SWIDTH 576 0
DWIDTH 5 0
BBX 5 6 0 0
BITMAP
07FF40
08ED40
5E2200
8C0000
6E6FA0
09EE70
ENDCHAR
STARTCHAR uni00470303.sc
ENCODING -1
SWIDTH 576 0
DWIDTH 5 0
BBX 5 8 0 0
BITMAP
000130
08EA80
0C3810
08ED40
5E2200
8C0000
6E6FA0
09EE70
ENDCHAR
STARTCHAR uni0193.sc
ENCODING -1
SWIDTH 576 0
DWIDTH 5 0
BBX 6 6 0 0
BITMAP
0008E1
08EF60
5E2200
8C0000
6E6FA0
09EE70
ENDCHAR
STARTCHAR Hcircumflex.sc
ENCODING -1
SWIDTH 621 0
DWIDTH 6 0
BBX 5 6 0 0
BITMAP
059B10
5F06E0
5F06E0
5FFFE0
5F06E0
5F06E0
ENDCHAR
STARTCHAR uni1E24.sc
ENCODING -1
SWIDTH 621 0
DWIDTH 6 0
BBX 5 7 0 -2
BITMAP
5F06E0
5F06E0
5FFFE0
5F06E0
5F06E0
000000
00B500
ENDCHAR
STARTCHAR uni1E2A.sc
ENCODING -1
SWIDTH 621 0
DWIDTH 6 0
BBX 5 7 0 -2
BITMAP
5F06E0
5F06E0
5FFFE0
5F06E0
5F07E0
0A4A40
04EB00
ENDCHAR
STARTCHAR Hbar.sc
ENCODING -1
SWIDTH 660 0
DWIDTH 6 0
BBX 6 5 0 0
BITMAP
2F34F1
BFFFFB
2F34F1
2FFFF1
2F34F1
ENDCHAR
STARTCHAR Igrave.sc
ENCODING -1
SWIDTH 301 0
DWIDTH 3 0
BBX 3 7 -1 0
BITMAP
1B30
06B0
05F0
05F0
05F0
05F0
05F0
ENDCHAR
STARTCHAR Iacute.sc
ENCODING -1
SWIDTH 301 0
DWIDTH 3 0
BBX 3 7 0 0
BITMAP
0680
2C30
5F00
5F00
5F00
5F00
5F00
ENDCHAR
STARTCHAR Icircumflex.sc
ENCODING -1
SWIDTH 301 0
DWIDTH 3 0
BBX 3 6 0 0
BITMAP
A970
5F00
5F00
5F00
5F00
5F00
ENDCHAR
STARTCHAR Itilde.sc
ENCODING -1
SWIDTH 301 0
DWIDTH 3 0
BBX 4 8 -1 0
BITMAP
0004
2EAD
5875
05F0
05F0
05F0
05F0
05F0
ENDCHAR
STARTCHAR Idieresis.sc
ENCODING -1
SWIDTH 301 0
DWIDTH 3 0
BBX 4 6 -1 0
BITMAP
2B2B
05F0
05F0
05F0
05F0
05F0
ENDCHAR
STARTCHAR Imacron.sc
ENCODING -1
SWIDTH 301 0
DWIDTH 3 0
BBX 3 6 0 0
BITMAP
FFB0
5F00
5F00
5F00
5F00
5F00
ENDCHAR
STARTCHAR Idotaccent.sc
ENCODING -1
SWIDTH 301 0
DWIDTH 3 0
BBX 2 6 0 0
BITMAP
4D
5F
5F
5F
5F
5F
ENDCHAR
STARTCHAR uni01CF.sc
ENCODING -1
SWIDTH 301 0
DWIDTH 3 0
BBX 3 6 0 0
BITMAP
A970
5F00
5F00
5F00
5F00
5F00
ENDCHAR
STARTCHAR uni1EC8.sc
ENCODING -1
SWIDTH 301 0
DWIDTH 3 0
BBX 3 7 0 0
BITMAP
6C10
1D10
5F00
5F00
5F00
5F00
5F00
ENDCHAR
STARTCHAR uni1ECA.sc
ENCODING -1
SWIDTH 301 0
DWIDTH 3 0
BBX 2 7 0 -2
BITMAP
5F
5F
5F
5F
5F
00
3C
ENDCHAR
STARTCHAR Iogonek.sc
ENCODING -1
SWIDTH 301 0
DWIDTH 3 0
BBX 3 7 0 -2
BITMAP
5F00
5F00
5F00
5F00
5F00
6800
7E30
ENDCHAR
STARTCHAR uni012C.sc
ENCODING -1
SWIDTH 301 0
DWIDTH 3 0
BBX 4 7 -1 0
BITMAP
1B2A
09E5
05F0
05F0
05F0
05F0
05F0
ENDCHAR
STARTCHAR Jcircumflex.sc
ENCODING -1
SWIDTH 470 0
DWIDTH 4 0
BBX 5 6 0 0
BITMAP
05AB20
00C800
00C800
00C800
22C800
7ED200
ENDCHAR
STARTCHAR uni0136.sc
ENCODING -1
SWIDTH 555 0
DWIDTH 5 0
BBX 5 8 0 -3
BITMAP
5F2E60
5FBA00
5FF800
5F6F20
5F0AB0
00A600
006A00
02D400
ENDCHAR
STARTCHAR uni1E32.sc
ENCODING -1
SWIDTH 555 0
DWIDTH 5 0
BBX 5 7 0 -2
BITMAP
5F2E60
5FBA00
5FF800
5F6F20
5F0AB0
000000
00A600
ENDCHAR
STARTCHAR uni1E34.sc
ENCODING -1
SWIDTH 555 0
DWIDTH 5 0
BBX 5 7 0 -2
BITMAP
5F2E60
5FBA00
5FF800
5F6F20
5F0AB0
000000
07FF30
ENDCHAR
STARTCHAR Lacute.sc
ENCODING -1
SWIDTH 471 0
DWIDTH 4 0
BBX 4 7 0 0
BITMAP
0590
1C30
5F00
5F00
5F00
5F00
5FFE
ENDCHAR
STARTCHAR Lcaron.sc
ENCODING -1
SWIDTH 471 0
DWIDTH 4 0
BBX 4 5 0 0
BITMAP
5F1B
5F00
5F00
5F00
5FFE
ENDCHAR
STARTCHAR uni013B.sc
ENCODING -1
SWIDTH 471 0
DWIDTH 4 0
BBX 4 8 0 -3
BITMAP
5F00
5F00
5F00
5F00
5FFE
02C1
01D3
09A0
ENDCHAR
STARTCHAR Ldot.sc
ENCODING -1
SWIDTH 471 0
DWIDTH 4 0
BBX 5 5 0 0
BITMAP
5F0000
5F3E10
5F3E10
5F0000
5FFE00
ENDCHAR
STARTCHAR uni1E36.sc
ENCODING -1
SWIDTH 471 0
DWIDTH 4 0
BBX 4 7 0 -2
BITMAP
5F00
5F00
5F00
5F00
5FFE
0000
03D0
ENDCHAR
STARTCHAR uni1E38.sc
ENCODING -1
SWIDTH 471 0
DWIDTH 4 0
BBX 4 8 0 -2
BITMAP
FFB0
5F00
5F00
5F00
5F00
5FFE
0000
03D0
ENDCHAR
STARTCHAR uni1E3A.sc
ENCODING -1
SWIDTH 471 0
DWIDTH 4 0
BBX 4 7 0 -2
BITMAP
5F00
5F00
5F00
5F00
5FFE
0000
0EFB
ENDCHAR
STARTCHAR Lslash.sc
ENCODING -1
SWIDTH 471 0
DWIDTH 4 0
BBX 5 5 -1 0
BITMAP
04F100
04F770
06FB20
1CF100
04FFF0
ENDCHAR
STARTCHAR uni1E3E.sc
ENCODING -1
SWIDTH 685 0
DWIDTH 6 0
BBX 6 7 0 0
BITMAP
000950
005A10
5F31F7
5F96F7
5CDCC7
5D9BB7
5D24B7
ENDCHAR
STARTCHAR uni1E40.sc
ENCODING -1
SWIDTH 685 0
DWIDTH 6 0
BBX 6 6 0 0
BITMAP
007900
5F31F7
5F96F7
5CDCC7
5D9BB7
5D24B7
ENDCHAR
STARTCHAR uni1E42.sc
ENCODING -1
SWIDTH 685 0
DWIDTH 6 0
BBX 6 7 0 -2
BITMAP
5F31F7
5F96F7
5CDCC7
5D9BB7
5D24B7
000000
007900
ENDCHAR
STARTCHAR Nacute.sc
ENCODING -1
SWIDTH 606 0
DWIDTH 5 0
BBX 5 7 0 0
BITMAP
002B20
009700
5F47C0
5FC7C0
5DDAC0
5D5FC0
5E0CC0
ENDCHAR
STARTCHAR uni01F8.sc
ENCODING -1
SWIDTH 606 0
DWIDTH 5 0
BBX 5 7 0 0
BITMAP
068000
02B400
5F47C0
5FC7C0
5DDAC0
5D5FC0
5E0CC0
ENDCHAR
STARTCHAR Ncaron.sc
ENCODING -1
SWIDTH 606 0
DWIDTH 5 0
BBX 5 6 0 0
BITMAP
059B10
5F47C0
5FC7C0
5DDAC0
5D5FC0
5E0CC0
ENDCHAR
STARTCHAR Ntilde.sc
ENCODING -1
SWIDTH 606 0
DWIDTH 5 0
BBX 5 8 0 0
BITMAP
000230
08DA70
0C3810
5F47C0
5FC7C0
5DDAC0
5D5FC0
5E0CC0
ENDCHAR
STARTCHAR uni0145.sc
ENCODING -1
SWIDTH 606 0
DWIDTH 5 0
BBX 5 8 0 -3
BITMAP
5F47C0
5FC7C0
5DDAC0
5D5FC0
5E0CC0
00B500
008900
03D300
ENDCHAR
STARTCHAR uni1E44.sc
ENCODING -1
SWIDTH 606 0
DWIDTH 5 0
BBX 5 6 0 0
BITMAP
00B600
5F47C0
5FC7C0
5DDAC0
5D5FC0
5E0CC0
ENDCHAR
STARTCHAR uni1E46.sc
ENCODING -1
SWIDTH 606 0
DWIDTH 5 0
BBX 5 7 0 -2
BITMAP
5F47C0
5FC7C0
5DDAC0
5D5FC0
5E0CC0
000000
00B500
ENDCHAR
STARTCHAR uni1E48.sc
ENCODING -1
SWIDTH 606 0
DWIDTH 5 0
BBX 5 7 0 -2
BITMAP
5F47C0
5FC7C0
5DDAC0
5D5FC0
5E0CC0
000000
08FF20
ENDCHAR
STARTCHAR Ograve.sc
ENCODING -1
SWIDTH 616 0
DWIDTH 6 0
BBX 6 7 0 0
BITMAP
078000
02B300
09ED40
6E28E0
8C04F1
6E28E0
09ED40
ENDCHAR
STARTCHAR Oacute.sc
ENCODING -1
SWIDTH 616 0
DWIDTH 6 0
BBX 6 7 0 0
BITMAP
002B20
009700
09ED40
6E28E0
8C04F1
6E28E0
09ED40
ENDCHAR
STARTCHAR Ocircumflex.sc
ENCODING -1
SWIDTH 616 0
DWIDTH 6 0
BBX 6 6 0 0
BITMAP
059B10
09ED40
6E28E0
8C04F1
6E28E0
09ED40
ENDCHAR
STARTCHAR Otilde.sc
ENCODING -1
SWIDTH 616 0
DWIDTH 6 0
BBX 6 8 0 0
BITMAP
000230
09DA70
0D3810
09ED40
6E28E0
8C04F1
6E28E0
09ED40
ENDCHAR
STARTCHAR Odieresis.sc
ENCODING -1
SWIDTH 616 0
DWIDTH 6 0
BBX 6 6 0 0
BITMAP
0A4A40
09ED40
6E28E0
8C04F1
6E28E0
09ED40
ENDCHAR
STARTCHAR Omacron.sc
ENCODING -1
SWIDTH 616 0
DWIDTH 6 0
BBX 6 6 0 0
BITMAP
09FF20
09ED40
6E28E0
8C04F1
6E28E0
09ED40
ENDCHAR
STARTCHAR Ohungarumlaut.sc
ENCODING -1
SWIDTH 616 0
DWIDTH 6 0
BBX 6 7 0 0
BITMAP
00B4A0
039840
09ED40
6E28E0
8C04F1
6E28E0
09ED40
ENDCHAR
STARTCHAR uni01D1.sc
ENCODING -1
SWIDTH 616 0
DWIDTH 6 0
BBX 6 6 0 0
BITMAP
069B10
09ED40
6E28E0
8C04F1
6E28E0
09ED40
ENDCHAR
STARTCHAR uni1ECC.sc
ENCODING -1
SWIDTH 616 0
DWIDTH 6 0
BBX 6 7 0 -2
BITMAP
09ED40
6E28E0
8C04F1
6E28E0
09ED40
000000
00B500
ENDCHAR
STARTCHAR uni1ECE.sc
ENCODING -1
SWIDTH 616 0
DWIDTH 6 0
BBX 6 7 0 0
BITMAP
00D500
008700
09FD40
6E28E0
8C04F1
6E28E0
09ED40
ENDCHAR
STARTCHAR uni1ED0.sc
ENCODING -1
SWIDTH 616 0
DWIDTH 6 0
BBX 6 7 0 0
BITMAP
01E990
067C00
0BEF40
6E28E0
8C04F1
6E28E0
09ED40
ENDCHAR
STARTCHAR uni1ED2.sc
ENCODING -1
SWIDTH 616 0
DWIDTH 6 0
BBX 6 7 0 0
BITMAP
37E800
067C00
0BEF40
6E28E0
8C04F1
6E28E0
09ED40
ENDCHAR
STARTCHAR uni1ED4.sc
ENCODING -1
SWIDTH 616 0
DWIDTH 6 0
BBX 6 9 0 0
BITMAP
0005A0
0000D0
01E9B0
067C00
0BEF40
6E28E0
8C04F1
6E28E0
09ED40
ENDCHAR
STARTCHAR uni1ED6.sc
ENCODING -1
SWIDTH 616 0
DWIDTH 6 0
BBX 6 10 0 0
BITMAP
028810
089D00
020000
01E800
067C00
0BEF40
6E28E0
8C04F1
6E28E0
09ED40
ENDCHAR
STARTCHAR uni1ED8.sc
ENCODING -1
SWIDTH 616 0
DWIDTH 6 0
BBX 6 8 0 -2
BITMAP
059B10
09ED40
6E28E0
8C04F1
6E28E0
09ED40
000000
00B500
ENDCHAR
STARTCHAR Oslash.sc
ENCODING -1
SWIDTH 616 0
DWIDTH 6 0
BBX 6 5 0 0
BITMAP
09EDB0
6E2CE0
8B96F1
6F67E0
5CED40
ENDCHAR
STARTCHAR OE.sc
ENCODING -1
SWIDTH 766 0
DWIDTH 7 0
BBX 7 5 0 0
BITMAP
09EFFF50
6E2D7000
8C0DFF10
6E2D7000
09EFFF60
ENDCHAR
STARTCHAR Ohorn.sc
ENCODING -1
SWIDTH 616 0
DWIDTH 6 0
BBX 6 7 0 0
BITMAP
000022
0000A7
09EDB1
6E28E0
8C04F1
6E28E0
09ED40
ENDCHAR
STARTCHAR uni1EDA.sc
ENCODING -1
SWIDTH 616 0
DWIDTH 6 0
BBX 6 7 0 0
BITMAP
002B32
0097A7
09EDB1
6E28E0
8C04F1
6E28E0
09ED40
ENDCHAR
STARTCHAR uni1EDC.sc
ENCODING -1
SWIDTH 616 0
DWIDTH 6 0
BBX 6 7 0 0
BITMAP
078022
02B3A7
09EDB1
6E28E0
8C04F1
6E28E0
09ED40
ENDCHAR
STARTCHAR uni1EDE.sc
ENCODING -1
SWIDTH 616 0
DWIDTH 6 0
BBX 6 7 0 0
BITMAP
00D522
0087A7
09FDB1
6E28E0
8C04F1
6E28E0
09ED40
ENDCHAR
STARTCHAR uni1EE0.sc
ENCODING -1
SWIDTH 616 0
DWIDTH 6 0
BBX 6 8 0 0
BITMAP
000320
0CCC52
2B57A7
09EDB1
6E28E0
8C04F1
6E28E0
09ED40
ENDCHAR
STARTCHAR uni1EE2.sc
ENCODING -1
SWIDTH 616 0
DWIDTH 6 0
BBX 6 9 0 -2
BITMAP
000022
0000A7
09EDB1
6E28E0
8C04F1
6E28E0
09ED40
000000
00B500
ENDCHAR
STARTCHAR uni01EA.sc
ENCODING -1
SWIDTH 616 0
DWIDTH 6 0
BBX 6 7 0 -2
BITMAP
09ED40
6E28E0
8C04F1
6E28E0
09EE50
00C200
00CB00
ENDCHAR
STARTCHAR uni014E.sc
ENCODING -1
SWIDTH 616 0
DWIDTH 6 0
BBX 6 7 0 0
BITMAP
084A20
04EB00
09ED40
6E28E0
8C04F1
6E28E0
09ED40
ENDCHAR
STARTCHAR uni1E52.sc
ENCODING -1
SWIDTH 616 0
DWIDTH 6 0
BBX 6 9 0 0
BITMAP
003A00
00A400
000000
09FF20
09ED40
6E28E0
8C04F1
6E28E0
09ED40
ENDCHAR
STARTCHAR Racute.sc
ENCODING -1
SWIDTH 561 0
DWIDTH 5 0
BBX 5 7 0 0
BITMAP
003B10
00A600
5FFD30
5F1C80
5FFE20
5F3F20
5F0B90
ENDCHAR
STARTCHAR uni1E58.sc
ENCODING -1
SWIDTH 561 0
DWIDTH 5 0
BBX 5 6 0 0
BITMAP
00C400
5FFD30
5F1C80
5FFE20
5F3F20
5F0B90
ENDCHAR
STARTCHAR Rcaron.sc
ENCODING -1
SWIDTH 561 0
DWIDTH 5 0
BBX 5 6 0 0
BITMAP
079A00
5FFD30
5F1C80
5FFE20
5F3F20
5F0B90
ENDCHAR
STARTCHAR uni0156.sc
ENCODING -1
SWIDTH 561 0
DWIDTH 5 0
BBX 5 8 0 -3
BITMAP
5FFD30
5F1C80
5FFE20
5F3F20
5F0B90
00B400
008800
03D300
ENDCHAR
STARTCHAR uni1E5A.sc
ENCODING -1
SWIDTH 561 0
DWIDTH 5 0
BBX 5 7 0 -2
BITMAP
5FFD30
5F1C80
5FFE20
5F3F20
5F0B90
000000
00C400
ENDCHAR
STARTCHAR uni1E5C.sc
ENCODING -1
SWIDTH 561 0
DWIDTH 5 0
BBX 5 8 0 -2
BITMAP
0AFF10
5FFD30
5F1C80
5FFE20
5F3F20
5F0B90
000000
00C400
ENDCHAR
STARTCHAR uni1E5E.sc
ENCODING -1
SWIDTH 561 0
DWIDTH 5 0
BBX 5 7 0 -2
BITMAP
5FFD30
5F1C80
5FFE20
5F3F20
5F0B90
000000
09FF10
ENDCHAR
STARTCHAR Sacute.sc
ENCODING -1
SWIDTH 504 0
DWIDTH 5 0
BBX 5 7 0 0
BITMAP
005A00
01C400
1CEB00
6F3300
1BFA00
245F30
5DEA00
ENDCHAR
STARTCHAR Scircumflex.sc
ENCODING -1
SWIDTH 504 0
DWIDTH 5 0
BBX 5 6 0 0
BITMAP
099800
1CEB00
6F3300
1BFA00
245F30
5DEA00
ENDCHAR
ENDFONT
